<?xml version="1.0" encoding="utf-8" standalone="no"?>
<!DOCTYPE svg PUBLIC "-//W3C//DTD SVG 1.1//EN"
  "http://www.w3.org/Graphics/SVG/1.1/DTD/svg11.dtd">
<!-- Created with matplotlib (https://matplotlib.org/) -->
<svg height="648pt" version="1.1" viewBox="0 0 1152 648" width="1152pt" xmlns="http://www.w3.org/2000/svg" xmlns:xlink="http://www.w3.org/1999/xlink">
 <defs>
  <style type="text/css">
*{stroke-linecap:butt;stroke-linejoin:round;white-space:pre;}
  </style>
 </defs>
 <g id="figure_1">
  <g id="patch_1">
   <path d="M 0 648 
L 1152 648 
L 1152 0 
L 0 0 
z
" style="fill:#ffffff;"/>
  </g>
  <g id="axes_1">
   <g id="patch_2">
    <path d="M 144 576.72 
L 549.818182 576.72 
L 549.818182 77.76 
L 144 77.76 
z
" style="fill:#e5e5e5;"/>
   </g>
   <g id="matplotlib.axis_1">
    <g id="xtick_1">
     <g id="line2d_1">
      <path clip-path="url(#pda6c6f2ecf)" d="M 172.417244 576.72 
L 172.417244 77.76 
" style="fill:none;stroke:#ffffff;stroke-linecap:square;stroke-width:0.8;"/>
     </g>
     <g id="line2d_2">
      <defs>
       <path d="M 0 0 
L 0 3.5 
" id="m2f0ffa0341" style="stroke:#555555;stroke-width:0.8;"/>
      </defs>
      <g>
       <use style="fill:#555555;stroke:#555555;stroke-width:0.8;" x="172.417244" xlink:href="#m2f0ffa0341" y="576.72"/>
      </g>
     </g>
     <g id="text_1">
      <!-- hornet -->
      <defs>
       <path d="M 54.890625 33.015625 
L 54.890625 0 
L 45.90625 0 
L 45.90625 32.71875 
Q 45.90625 40.484375 42.875 44.328125 
Q 39.84375 48.1875 33.796875 48.1875 
Q 26.515625 48.1875 22.3125 43.546875 
Q 18.109375 38.921875 18.109375 30.90625 
L 18.109375 0 
L 9.078125 0 
L 9.078125 75.984375 
L 18.109375 75.984375 
L 18.109375 46.1875 
Q 21.34375 51.125 25.703125 53.5625 
Q 30.078125 56 35.796875 56 
Q 45.21875 56 50.046875 50.171875 
Q 54.890625 44.34375 54.890625 33.015625 
z
" id="DejaVuSans-104"/>
       <path d="M 30.609375 48.390625 
Q 23.390625 48.390625 19.1875 42.75 
Q 14.984375 37.109375 14.984375 27.296875 
Q 14.984375 17.484375 19.15625 11.84375 
Q 23.34375 6.203125 30.609375 6.203125 
Q 37.796875 6.203125 41.984375 11.859375 
Q 46.1875 17.53125 46.1875 27.296875 
Q 46.1875 37.015625 41.984375 42.703125 
Q 37.796875 48.390625 30.609375 48.390625 
z
M 30.609375 56 
Q 42.328125 56 49.015625 48.375 
Q 55.71875 40.765625 55.71875 27.296875 
Q 55.71875 13.875 49.015625 6.21875 
Q 42.328125 -1.421875 30.609375 -1.421875 
Q 18.84375 -1.421875 12.171875 6.21875 
Q 5.515625 13.875 5.515625 27.296875 
Q 5.515625 40.765625 12.171875 48.375 
Q 18.84375 56 30.609375 56 
z
" id="DejaVuSans-111"/>
       <path d="M 41.109375 46.296875 
Q 39.59375 47.171875 37.8125 47.578125 
Q 36.03125 48 33.890625 48 
Q 26.265625 48 22.1875 43.046875 
Q 18.109375 38.09375 18.109375 28.8125 
L 18.109375 0 
L 9.078125 0 
L 9.078125 54.6875 
L 18.109375 54.6875 
L 18.109375 46.1875 
Q 20.953125 51.171875 25.484375 53.578125 
Q 30.03125 56 36.53125 56 
Q 37.453125 56 38.578125 55.875 
Q 39.703125 55.765625 41.0625 55.515625 
z
" id="DejaVuSans-114"/>
       <path d="M 54.890625 33.015625 
L 54.890625 0 
L 45.90625 0 
L 45.90625 32.71875 
Q 45.90625 40.484375 42.875 44.328125 
Q 39.84375 48.1875 33.796875 48.1875 
Q 26.515625 48.1875 22.3125 43.546875 
Q 18.109375 38.921875 18.109375 30.90625 
L 18.109375 0 
L 9.078125 0 
L 9.078125 54.6875 
L 18.109375 54.6875 
L 18.109375 46.1875 
Q 21.34375 51.125 25.703125 53.5625 
Q 30.078125 56 35.796875 56 
Q 45.21875 56 50.046875 50.171875 
Q 54.890625 44.34375 54.890625 33.015625 
z
" id="DejaVuSans-110"/>
       <path d="M 56.203125 29.59375 
L 56.203125 25.203125 
L 14.890625 25.203125 
Q 15.484375 15.921875 20.484375 11.0625 
Q 25.484375 6.203125 34.421875 6.203125 
Q 39.59375 6.203125 44.453125 7.46875 
Q 49.3125 8.734375 54.109375 11.28125 
L 54.109375 2.78125 
Q 49.265625 0.734375 44.1875 -0.34375 
Q 39.109375 -1.421875 33.890625 -1.421875 
Q 20.796875 -1.421875 13.15625 6.1875 
Q 5.515625 13.8125 5.515625 26.8125 
Q 5.515625 40.234375 12.765625 48.109375 
Q 20.015625 56 32.328125 56 
Q 43.359375 56 49.78125 48.890625 
Q 56.203125 41.796875 56.203125 29.59375 
z
M 47.21875 32.234375 
Q 47.125 39.59375 43.09375 43.984375 
Q 39.0625 48.390625 32.421875 48.390625 
Q 24.90625 48.390625 20.390625 44.140625 
Q 15.875 39.890625 15.1875 32.171875 
z
" id="DejaVuSans-101"/>
       <path d="M 18.3125 70.21875 
L 18.3125 54.6875 
L 36.8125 54.6875 
L 36.8125 47.703125 
L 18.3125 47.703125 
L 18.3125 18.015625 
Q 18.3125 11.328125 20.140625 9.421875 
Q 21.96875 7.515625 27.59375 7.515625 
L 36.8125 7.515625 
L 36.8125 0 
L 27.59375 0 
Q 17.1875 0 13.234375 3.875 
Q 9.28125 7.765625 9.28125 18.015625 
L 9.28125 47.703125 
L 2.6875 47.703125 
L 2.6875 54.6875 
L 9.28125 54.6875 
L 9.28125 70.21875 
z
" id="DejaVuSans-116"/>
      </defs>
      <g style="fill:#555555;" transform="translate(145.818934 610.737667)rotate(-40)scale(0.1 -0.1)">
       <use xlink:href="#DejaVuSans-104"/>
       <use x="63.378906" xlink:href="#DejaVuSans-111"/>
       <use x="124.560547" xlink:href="#DejaVuSans-114"/>
       <use x="165.658203" xlink:href="#DejaVuSans-110"/>
       <use x="229.037109" xlink:href="#DejaVuSans-101"/>
       <use x="290.560547" xlink:href="#DejaVuSans-116"/>
      </g>
     </g>
    </g>
    <g id="xtick_2">
     <g id="line2d_3">
      <path clip-path="url(#pda6c6f2ecf)" d="M 197.34465 576.72 
L 197.34465 77.76 
" style="fill:none;stroke:#ffffff;stroke-linecap:square;stroke-width:0.8;"/>
     </g>
     <g id="line2d_4">
      <g>
       <use style="fill:#555555;stroke:#555555;stroke-width:0.8;" x="197.34465" xlink:href="#m2f0ffa0341" y="576.72"/>
      </g>
     </g>
     <g id="text_2">
      <!-- found -->
      <defs>
       <path d="M 37.109375 75.984375 
L 37.109375 68.5 
L 28.515625 68.5 
Q 23.6875 68.5 21.796875 66.546875 
Q 19.921875 64.59375 19.921875 59.515625 
L 19.921875 54.6875 
L 34.71875 54.6875 
L 34.71875 47.703125 
L 19.921875 47.703125 
L 19.921875 0 
L 10.890625 0 
L 10.890625 47.703125 
L 2.296875 47.703125 
L 2.296875 54.6875 
L 10.890625 54.6875 
L 10.890625 58.5 
Q 10.890625 67.625 15.140625 71.796875 
Q 19.390625 75.984375 28.609375 75.984375 
z
" id="DejaVuSans-102"/>
       <path d="M 8.5 21.578125 
L 8.5 54.6875 
L 17.484375 54.6875 
L 17.484375 21.921875 
Q 17.484375 14.15625 20.5 10.265625 
Q 23.53125 6.390625 29.59375 6.390625 
Q 36.859375 6.390625 41.078125 11.03125 
Q 45.3125 15.671875 45.3125 23.6875 
L 45.3125 54.6875 
L 54.296875 54.6875 
L 54.296875 0 
L 45.3125 0 
L 45.3125 8.40625 
Q 42.046875 3.421875 37.71875 1 
Q 33.40625 -1.421875 27.6875 -1.421875 
Q 18.265625 -1.421875 13.375 4.4375 
Q 8.5 10.296875 8.5 21.578125 
z
M 31.109375 56 
z
" id="DejaVuSans-117"/>
       <path d="M 45.40625 46.390625 
L 45.40625 75.984375 
L 54.390625 75.984375 
L 54.390625 0 
L 45.40625 0 
L 45.40625 8.203125 
Q 42.578125 3.328125 38.25 0.953125 
Q 33.9375 -1.421875 27.875 -1.421875 
Q 17.96875 -1.421875 11.734375 6.484375 
Q 5.515625 14.40625 5.515625 27.296875 
Q 5.515625 40.1875 11.734375 48.09375 
Q 17.96875 56 27.875 56 
Q 33.9375 56 38.25 53.625 
Q 42.578125 51.265625 45.40625 46.390625 
z
M 14.796875 27.296875 
Q 14.796875 17.390625 18.875 11.75 
Q 22.953125 6.109375 30.078125 6.109375 
Q 37.203125 6.109375 41.296875 11.75 
Q 45.40625 17.390625 45.40625 27.296875 
Q 45.40625 37.203125 41.296875 42.84375 
Q 37.203125 48.484375 30.078125 48.484375 
Q 22.953125 48.484375 18.875 42.84375 
Q 14.796875 37.203125 14.796875 27.296875 
z
" id="DejaVuSans-100"/>
      </defs>
      <g style="fill:#555555;" transform="translate(174.051104 607.964641)rotate(-40)scale(0.1 -0.1)">
       <use xlink:href="#DejaVuSans-102"/>
       <use x="35.205078" xlink:href="#DejaVuSans-111"/>
       <use x="96.386719" xlink:href="#DejaVuSans-117"/>
       <use x="159.765625" xlink:href="#DejaVuSans-110"/>
       <use x="223.144531" xlink:href="#DejaVuSans-100"/>
      </g>
     </g>
    </g>
    <g id="xtick_3">
     <g id="line2d_5">
      <path clip-path="url(#pda6c6f2ecf)" d="M 222.272057 576.72 
L 222.272057 77.76 
" style="fill:none;stroke:#ffffff;stroke-linecap:square;stroke-width:0.8;"/>
     </g>
     <g id="line2d_6">
      <g>
       <use style="fill:#555555;stroke:#555555;stroke-width:0.8;" x="222.272057" xlink:href="#m2f0ffa0341" y="576.72"/>
      </g>
     </g>
     <g id="text_3">
      <!-- long -->
      <defs>
       <path d="M 9.421875 75.984375 
L 18.40625 75.984375 
L 18.40625 0 
L 9.421875 0 
z
" id="DejaVuSans-108"/>
       <path d="M 45.40625 27.984375 
Q 45.40625 37.75 41.375 43.109375 
Q 37.359375 48.484375 30.078125 48.484375 
Q 22.859375 48.484375 18.828125 43.109375 
Q 14.796875 37.75 14.796875 27.984375 
Q 14.796875 18.265625 18.828125 12.890625 
Q 22.859375 7.515625 30.078125 7.515625 
Q 37.359375 7.515625 41.375 12.890625 
Q 45.40625 18.265625 45.40625 27.984375 
z
M 54.390625 6.78125 
Q 54.390625 -7.171875 48.1875 -13.984375 
Q 42 -20.796875 29.203125 -20.796875 
Q 24.46875 -20.796875 20.265625 -20.09375 
Q 16.0625 -19.390625 12.109375 -17.921875 
L 12.109375 -9.1875 
Q 16.0625 -11.328125 19.921875 -12.34375 
Q 23.78125 -13.375 27.78125 -13.375 
Q 36.625 -13.375 41.015625 -8.765625 
Q 45.40625 -4.15625 45.40625 5.171875 
L 45.40625 9.625 
Q 42.625 4.78125 38.28125 2.390625 
Q 33.9375 0 27.875 0 
Q 17.828125 0 11.671875 7.65625 
Q 5.515625 15.328125 5.515625 27.984375 
Q 5.515625 40.671875 11.671875 48.328125 
Q 17.828125 56 27.875 56 
Q 33.9375 56 38.28125 53.609375 
Q 42.625 51.21875 45.40625 46.390625 
L 45.40625 54.6875 
L 54.390625 54.6875 
z
" id="DejaVuSans-103"/>
      </defs>
      <g style="fill:#555555;" transform="translate(204.401866 603.413905)rotate(-40)scale(0.1 -0.1)">
       <use xlink:href="#DejaVuSans-108"/>
       <use x="27.783203" xlink:href="#DejaVuSans-111"/>
       <use x="88.964844" xlink:href="#DejaVuSans-110"/>
       <use x="152.34375" xlink:href="#DejaVuSans-103"/>
      </g>
     </g>
    </g>
    <g id="xtick_4">
     <g id="line2d_7">
      <path clip-path="url(#pda6c6f2ecf)" d="M 247.199464 576.72 
L 247.199464 77.76 
" style="fill:none;stroke:#ffffff;stroke-linecap:square;stroke-width:0.8;"/>
     </g>
     <g id="line2d_8">
      <g>
       <use style="fill:#555555;stroke:#555555;stroke-width:0.8;" x="247.199464" xlink:href="#m2f0ffa0341" y="576.72"/>
      </g>
     </g>
     <g id="text_4">
      <!-- one -->
      <g style="fill:#555555;" transform="translate(231.607058 601.502616)rotate(-40)scale(0.1 -0.1)">
       <use xlink:href="#DejaVuSans-111"/>
       <use x="61.181641" xlink:href="#DejaVuSans-110"/>
       <use x="124.560547" xlink:href="#DejaVuSans-101"/>
      </g>
     </g>
    </g>
    <g id="xtick_5">
     <g id="line2d_9">
      <path clip-path="url(#pda6c6f2ecf)" d="M 272.126871 576.72 
L 272.126871 77.76 
" style="fill:none;stroke:#ffffff;stroke-linecap:square;stroke-width:0.8;"/>
     </g>
     <g id="line2d_10">
      <g>
       <use style="fill:#555555;stroke:#555555;stroke-width:0.8;" x="272.126871" xlink:href="#m2f0ffa0341" y="576.72"/>
      </g>
     </g>
     <g id="text_5">
      <!-- seen -->
      <defs>
       <path d="M 44.28125 53.078125 
L 44.28125 44.578125 
Q 40.484375 46.53125 36.375 47.5 
Q 32.28125 48.484375 27.875 48.484375 
Q 21.1875 48.484375 17.84375 46.4375 
Q 14.5 44.390625 14.5 40.28125 
Q 14.5 37.15625 16.890625 35.375 
Q 19.28125 33.59375 26.515625 31.984375 
L 29.59375 31.296875 
Q 39.15625 29.25 43.1875 25.515625 
Q 47.21875 21.78125 47.21875 15.09375 
Q 47.21875 7.46875 41.1875 3.015625 
Q 35.15625 -1.421875 24.609375 -1.421875 
Q 20.21875 -1.421875 15.453125 -0.5625 
Q 10.6875 0.296875 5.421875 2 
L 5.421875 11.28125 
Q 10.40625 8.6875 15.234375 7.390625 
Q 20.0625 6.109375 24.8125 6.109375 
Q 31.15625 6.109375 34.5625 8.28125 
Q 37.984375 10.453125 37.984375 14.40625 
Q 37.984375 18.0625 35.515625 20.015625 
Q 33.0625 21.96875 24.703125 23.78125 
L 21.578125 24.515625 
Q 13.234375 26.265625 9.515625 29.90625 
Q 5.8125 33.546875 5.8125 39.890625 
Q 5.8125 47.609375 11.28125 51.796875 
Q 16.75 56 26.8125 56 
Q 31.78125 56 36.171875 55.265625 
Q 40.578125 54.546875 44.28125 53.078125 
z
" id="DejaVuSans-115"/>
      </defs>
      <g style="fill:#555555;" transform="translate(252.517519 604.873234)rotate(-40)scale(0.1 -0.1)">
       <use xlink:href="#DejaVuSans-115"/>
       <use x="52.099609" xlink:href="#DejaVuSans-101"/>
       <use x="113.623047" xlink:href="#DejaVuSans-101"/>
       <use x="175.146484" xlink:href="#DejaVuSans-110"/>
      </g>
     </g>
    </g>
    <g id="xtick_6">
     <g id="line2d_11">
      <path clip-path="url(#pda6c6f2ecf)" d="M 297.054277 576.72 
L 297.054277 77.76 
" style="fill:none;stroke:#ffffff;stroke-linecap:square;stroke-width:0.8;"/>
     </g>
     <g id="line2d_12">
      <g>
       <use style="fill:#555555;stroke:#555555;stroke-width:0.8;" x="297.054277" xlink:href="#m2f0ffa0341" y="576.72"/>
      </g>
     </g>
     <g id="text_6">
      <!-- large -->
      <defs>
       <path d="M 34.28125 27.484375 
Q 23.390625 27.484375 19.1875 25 
Q 14.984375 22.515625 14.984375 16.5 
Q 14.984375 11.71875 18.140625 8.90625 
Q 21.296875 6.109375 26.703125 6.109375 
Q 34.1875 6.109375 38.703125 11.40625 
Q 43.21875 16.703125 43.21875 25.484375 
L 43.21875 27.484375 
z
M 52.203125 31.203125 
L 52.203125 0 
L 43.21875 0 
L 43.21875 8.296875 
Q 40.140625 3.328125 35.546875 0.953125 
Q 30.953125 -1.421875 24.3125 -1.421875 
Q 15.921875 -1.421875 10.953125 3.296875 
Q 6 8.015625 6 15.921875 
Q 6 25.140625 12.171875 29.828125 
Q 18.359375 34.515625 30.609375 34.515625 
L 43.21875 34.515625 
L 43.21875 35.40625 
Q 43.21875 41.609375 39.140625 45 
Q 35.0625 48.390625 27.6875 48.390625 
Q 23 48.390625 18.546875 47.265625 
Q 14.109375 46.140625 10.015625 43.890625 
L 10.015625 52.203125 
Q 14.9375 54.109375 19.578125 55.046875 
Q 24.21875 56 28.609375 56 
Q 40.484375 56 46.34375 49.84375 
Q 52.203125 43.703125 52.203125 31.203125 
z
" id="DejaVuSans-97"/>
      </defs>
      <g style="fill:#555555;" transform="translate(276.17018 605.942873)rotate(-40)scale(0.1 -0.1)">
       <use xlink:href="#DejaVuSans-108"/>
       <use x="27.783203" xlink:href="#DejaVuSans-97"/>
       <use x="89.0625" xlink:href="#DejaVuSans-114"/>
       <use x="130.160156" xlink:href="#DejaVuSans-103"/>
       <use x="193.636719" xlink:href="#DejaVuSans-101"/>
      </g>
     </g>
    </g>
    <g id="xtick_7">
     <g id="line2d_13">
      <path clip-path="url(#pda6c6f2ecf)" d="M 321.981684 576.72 
L 321.981684 77.76 
" style="fill:none;stroke:#ffffff;stroke-linecap:square;stroke-width:0.8;"/>
     </g>
     <g id="line2d_14">
      <g>
       <use style="fill:#555555;stroke:#555555;stroke-width:0.8;" x="321.981684" xlink:href="#m2f0ffa0341" y="576.72"/>
      </g>
     </g>
     <g id="text_7">
      <!-- like -->
      <defs>
       <path d="M 9.421875 54.6875 
L 18.40625 54.6875 
L 18.40625 0 
L 9.421875 0 
z
M 9.421875 75.984375 
L 18.40625 75.984375 
L 18.40625 64.59375 
L 9.421875 64.59375 
z
" id="DejaVuSans-105"/>
       <path d="M 9.078125 75.984375 
L 18.109375 75.984375 
L 18.109375 31.109375 
L 44.921875 54.6875 
L 56.390625 54.6875 
L 27.390625 29.109375 
L 57.625 0 
L 45.90625 0 
L 18.109375 26.703125 
L 18.109375 0 
L 9.078125 0 
z
" id="DejaVuSans-107"/>
      </defs>
      <g style="fill:#555555;" transform="translate(307.2427 600.786511)rotate(-40)scale(0.1 -0.1)">
       <use xlink:href="#DejaVuSans-108"/>
       <use x="27.783203" xlink:href="#DejaVuSans-105"/>
       <use x="55.566406" xlink:href="#DejaVuSans-107"/>
       <use x="113.429688" xlink:href="#DejaVuSans-101"/>
      </g>
     </g>
    </g>
    <g id="xtick_8">
     <g id="line2d_15">
      <path clip-path="url(#pda6c6f2ecf)" d="M 346.909091 576.72 
L 346.909091 77.76 
" style="fill:none;stroke:#ffffff;stroke-linecap:square;stroke-width:0.8;"/>
     </g>
     <g id="line2d_16">
      <g>
       <use style="fill:#555555;stroke:#555555;stroke-width:0.8;" x="346.909091" xlink:href="#m2f0ffa0341" y="576.72"/>
      </g>
     </g>
     <g id="text_8">
      <!-- sure -->
      <g style="fill:#555555;" transform="translate(328.86654 603.558532)rotate(-40)scale(0.1 -0.1)">
       <use xlink:href="#DejaVuSans-115"/>
       <use x="52.099609" xlink:href="#DejaVuSans-117"/>
       <use x="115.478516" xlink:href="#DejaVuSans-114"/>
       <use x="156.560547" xlink:href="#DejaVuSans-101"/>
      </g>
     </g>
    </g>
    <g id="xtick_9">
     <g id="line2d_17">
      <path clip-path="url(#pda6c6f2ecf)" d="M 371.836498 576.72 
L 371.836498 77.76 
" style="fill:none;stroke:#ffffff;stroke-linecap:square;stroke-width:0.8;"/>
     </g>
     <g id="line2d_18">
      <g>
       <use style="fill:#555555;stroke:#555555;stroke-width:0.8;" x="371.836498" xlink:href="#m2f0ffa0341" y="576.72"/>
      </g>
     </g>
     <g id="text_9">
      <!-- saw -->
      <defs>
       <path d="M 4.203125 54.6875 
L 13.1875 54.6875 
L 24.421875 12.015625 
L 35.59375 54.6875 
L 46.1875 54.6875 
L 57.421875 12.015625 
L 68.609375 54.6875 
L 77.59375 54.6875 
L 63.28125 0 
L 52.6875 0 
L 40.921875 44.828125 
L 29.109375 0 
L 18.5 0 
z
" id="DejaVuSans-119"/>
      </defs>
      <g style="fill:#555555;" transform="translate(355.549864 602.085143)rotate(-40)scale(0.1 -0.1)">
       <use xlink:href="#DejaVuSans-115"/>
       <use x="52.099609" xlink:href="#DejaVuSans-97"/>
       <use x="113.378906" xlink:href="#DejaVuSans-119"/>
      </g>
     </g>
    </g>
    <g id="xtick_10">
     <g id="line2d_19">
      <path clip-path="url(#pda6c6f2ecf)" d="M 396.763904 576.72 
L 396.763904 77.76 
" style="fill:none;stroke:#ffffff;stroke-linecap:square;stroke-width:0.8;"/>
     </g>
     <g id="line2d_20">
      <g>
       <use style="fill:#555555;stroke:#555555;stroke-width:0.8;" x="396.763904" xlink:href="#m2f0ffa0341" y="576.72"/>
      </g>
     </g>
     <g id="text_10">
      <!-- dead -->
      <g style="fill:#555555;" transform="translate(376.292753 605.59637)rotate(-40)scale(0.1 -0.1)">
       <use xlink:href="#DejaVuSans-100"/>
       <use x="63.476562" xlink:href="#DejaVuSans-101"/>
       <use x="125" xlink:href="#DejaVuSans-97"/>
       <use x="186.279297" xlink:href="#DejaVuSans-100"/>
      </g>
     </g>
    </g>
    <g id="xtick_11">
     <g id="line2d_21">
      <path clip-path="url(#pda6c6f2ecf)" d="M 421.691311 576.72 
L 421.691311 77.76 
" style="fill:none;stroke:#ffffff;stroke-linecap:square;stroke-width:0.8;"/>
     </g>
     <g id="line2d_22">
      <g>
       <use style="fill:#555555;stroke:#555555;stroke-width:0.8;" x="421.691311" xlink:href="#m2f0ffa0341" y="576.72"/>
      </g>
     </g>
     <g id="text_11">
      <!-- asian -->
      <g style="fill:#555555;" transform="translate(399.992095 606.626839)rotate(-40)scale(0.1 -0.1)">
       <use xlink:href="#DejaVuSans-97"/>
       <use x="61.279297" xlink:href="#DejaVuSans-115"/>
       <use x="113.378906" xlink:href="#DejaVuSans-105"/>
       <use x="141.162109" xlink:href="#DejaVuSans-97"/>
       <use x="202.441406" xlink:href="#DejaVuSans-110"/>
      </g>
     </g>
    </g>
    <g id="xtick_12">
     <g id="line2d_23">
      <path clip-path="url(#pda6c6f2ecf)" d="M 446.618718 576.72 
L 446.618718 77.76 
" style="fill:none;stroke:#ffffff;stroke-linecap:square;stroke-width:0.8;"/>
     </g>
     <g id="line2d_24">
      <g>
       <use style="fill:#555555;stroke:#555555;stroke-width:0.8;" x="446.618718" xlink:href="#m2f0ffa0341" y="576.72"/>
      </g>
     </g>
     <g id="text_12">
      <!-- bee -->
      <defs>
       <path d="M 48.6875 27.296875 
Q 48.6875 37.203125 44.609375 42.84375 
Q 40.53125 48.484375 33.40625 48.484375 
Q 26.265625 48.484375 22.1875 42.84375 
Q 18.109375 37.203125 18.109375 27.296875 
Q 18.109375 17.390625 22.1875 11.75 
Q 26.265625 6.109375 33.40625 6.109375 
Q 40.53125 6.109375 44.609375 11.75 
Q 48.6875 17.390625 48.6875 27.296875 
z
M 18.109375 46.390625 
Q 20.953125 51.265625 25.265625 53.625 
Q 29.59375 56 35.59375 56 
Q 45.5625 56 51.78125 48.09375 
Q 58.015625 40.1875 58.015625 27.296875 
Q 58.015625 14.40625 51.78125 6.484375 
Q 45.5625 -1.421875 35.59375 -1.421875 
Q 29.59375 -1.421875 25.265625 0.953125 
Q 20.953125 3.328125 18.109375 8.203125 
L 18.109375 0 
L 9.078125 0 
L 9.078125 75.984375 
L 18.109375 75.984375 
z
" id="DejaVuSans-98"/>
      </defs>
      <g style="fill:#555555;" transform="translate(430.991601 601.531743)rotate(-40)scale(0.1 -0.1)">
       <use xlink:href="#DejaVuSans-98"/>
       <use x="63.476562" xlink:href="#DejaVuSans-101"/>
       <use x="125" xlink:href="#DejaVuSans-101"/>
      </g>
     </g>
    </g>
    <g id="xtick_13">
     <g id="line2d_25">
      <path clip-path="url(#pda6c6f2ecf)" d="M 471.546125 576.72 
L 471.546125 77.76 
" style="fill:none;stroke:#ffffff;stroke-linecap:square;stroke-width:0.8;"/>
     </g>
     <g id="line2d_26">
      <g>
       <use style="fill:#555555;stroke:#555555;stroke-width:0.8;" x="471.546125" xlink:href="#m2f0ffa0341" y="576.72"/>
      </g>
     </g>
     <g id="text_13">
      <!-- inches -->
      <defs>
       <path d="M 48.78125 52.59375 
L 48.78125 44.1875 
Q 44.96875 46.296875 41.140625 47.34375 
Q 37.3125 48.390625 33.40625 48.390625 
Q 24.65625 48.390625 19.8125 42.84375 
Q 14.984375 37.3125 14.984375 27.296875 
Q 14.984375 17.28125 19.8125 11.734375 
Q 24.65625 6.203125 33.40625 6.203125 
Q 37.3125 6.203125 41.140625 7.25 
Q 44.96875 8.296875 48.78125 10.40625 
L 48.78125 2.09375 
Q 45.015625 0.34375 40.984375 -0.53125 
Q 36.96875 -1.421875 32.421875 -1.421875 
Q 20.0625 -1.421875 12.78125 6.34375 
Q 5.515625 14.109375 5.515625 27.296875 
Q 5.515625 40.671875 12.859375 48.328125 
Q 20.21875 56 33.015625 56 
Q 37.15625 56 41.109375 55.140625 
Q 45.0625 54.296875 48.78125 52.59375 
z
" id="DejaVuSans-99"/>
      </defs>
      <g style="fill:#555555;" transform="translate(445.455319 610.31182)rotate(-40)scale(0.1 -0.1)">
       <use xlink:href="#DejaVuSans-105"/>
       <use x="27.783203" xlink:href="#DejaVuSans-110"/>
       <use x="91.162109" xlink:href="#DejaVuSans-99"/>
       <use x="146.142578" xlink:href="#DejaVuSans-104"/>
       <use x="209.521484" xlink:href="#DejaVuSans-101"/>
       <use x="271.044922" xlink:href="#DejaVuSans-115"/>
      </g>
     </g>
    </g>
    <g id="xtick_14">
     <g id="line2d_27">
      <path clip-path="url(#pda6c6f2ecf)" d="M 496.473531 576.72 
L 496.473531 77.76 
" style="fill:none;stroke:#ffffff;stroke-linecap:square;stroke-width:0.8;"/>
     </g>
     <g id="line2d_28">
      <g>
       <use style="fill:#555555;stroke:#555555;stroke-width:0.8;" x="496.473531" xlink:href="#m2f0ffa0341" y="576.72"/>
      </g>
     </g>
     <g id="text_14">
      <!-- around -->
      <g style="fill:#555555;" transform="translate(468.035518 612.281361)rotate(-40)scale(0.1 -0.1)">
       <use xlink:href="#DejaVuSans-97"/>
       <use x="61.279297" xlink:href="#DejaVuSans-114"/>
       <use x="102.361328" xlink:href="#DejaVuSans-111"/>
       <use x="163.542969" xlink:href="#DejaVuSans-117"/>
       <use x="226.921875" xlink:href="#DejaVuSans-110"/>
       <use x="290.300781" xlink:href="#DejaVuSans-100"/>
      </g>
     </g>
    </g>
    <g id="xtick_15">
     <g id="line2d_29">
      <path clip-path="url(#pda6c6f2ecf)" d="M 521.400938 576.72 
L 521.400938 77.76 
" style="fill:none;stroke:#ffffff;stroke-linecap:square;stroke-width:0.8;"/>
     </g>
     <g id="line2d_30">
      <g>
       <use style="fill:#555555;stroke:#555555;stroke-width:0.8;" x="521.400938" xlink:href="#m2f0ffa0341" y="576.72"/>
      </g>
     </g>
     <g id="text_15">
      <!-- wasp -->
      <defs>
       <path d="M 18.109375 8.203125 
L 18.109375 -20.796875 
L 9.078125 -20.796875 
L 9.078125 54.6875 
L 18.109375 54.6875 
L 18.109375 46.390625 
Q 20.953125 51.265625 25.265625 53.625 
Q 29.59375 56 35.59375 56 
Q 45.5625 56 51.78125 48.09375 
Q 58.015625 40.1875 58.015625 27.296875 
Q 58.015625 14.40625 51.78125 6.484375 
Q 45.5625 -1.421875 35.59375 -1.421875 
Q 29.59375 -1.421875 25.265625 0.953125 
Q 20.953125 3.328125 18.109375 8.203125 
z
M 48.6875 27.296875 
Q 48.6875 37.203125 44.609375 42.84375 
Q 40.53125 48.484375 33.40625 48.484375 
Q 26.265625 48.484375 22.1875 42.84375 
Q 18.109375 37.203125 18.109375 27.296875 
Q 18.109375 17.390625 22.1875 11.75 
Q 26.265625 6.109375 33.40625 6.109375 
Q 40.53125 6.109375 44.609375 11.75 
Q 48.6875 17.390625 48.6875 27.296875 
z
" id="DejaVuSans-112"/>
      </defs>
      <g style="fill:#555555;" transform="translate(500.251119 606.16584)rotate(-40)scale(0.1 -0.1)">
       <use xlink:href="#DejaVuSans-119"/>
       <use x="81.787109" xlink:href="#DejaVuSans-97"/>
       <use x="143.066406" xlink:href="#DejaVuSans-115"/>
       <use x="195.166016" xlink:href="#DejaVuSans-112"/>
      </g>
     </g>
    </g>
    <g id="text_16">
     <!-- Word -->
     <defs>
      <path d="M 3.328125 72.90625 
L 13.28125 72.90625 
L 28.609375 11.28125 
L 43.890625 72.90625 
L 54.984375 72.90625 
L 70.3125 11.28125 
L 85.59375 72.90625 
L 95.609375 72.90625 
L 77.296875 0 
L 64.890625 0 
L 49.515625 63.28125 
L 33.984375 0 
L 21.578125 0 
z
" id="DejaVuSans-87"/>
     </defs>
     <g style="fill:#555555;" transform="translate(331.035341 626.992619)scale(0.12 -0.12)">
      <use xlink:href="#DejaVuSans-87"/>
      <use x="98.798828" xlink:href="#DejaVuSans-111"/>
      <use x="159.980469" xlink:href="#DejaVuSans-114"/>
      <use x="201.078125" xlink:href="#DejaVuSans-100"/>
     </g>
    </g>
   </g>
   <g id="matplotlib.axis_2">
    <g id="ytick_1">
     <g id="line2d_31">
      <path clip-path="url(#pda6c6f2ecf)" d="M 144 576.72 
L 549.818182 576.72 
" style="fill:none;stroke:#ffffff;stroke-linecap:square;stroke-width:0.8;"/>
     </g>
     <g id="line2d_32">
      <defs>
       <path d="M 0 0 
L -3.5 0 
" id="m66229def14" style="stroke:#555555;stroke-width:0.8;"/>
      </defs>
      <g>
       <use style="fill:#555555;stroke:#555555;stroke-width:0.8;" x="144" xlink:href="#m66229def14" y="576.72"/>
      </g>
     </g>
     <g id="text_17">
      <!-- 0 -->
      <defs>
       <path d="M 31.78125 66.40625 
Q 24.171875 66.40625 20.328125 58.90625 
Q 16.5 51.421875 16.5 36.375 
Q 16.5 21.390625 20.328125 13.890625 
Q 24.171875 6.390625 31.78125 6.390625 
Q 39.453125 6.390625 43.28125 13.890625 
Q 47.125 21.390625 47.125 36.375 
Q 47.125 51.421875 43.28125 58.90625 
Q 39.453125 66.40625 31.78125 66.40625 
z
M 31.78125 74.21875 
Q 44.046875 74.21875 50.515625 64.515625 
Q 56.984375 54.828125 56.984375 36.375 
Q 56.984375 17.96875 50.515625 8.265625 
Q 44.046875 -1.421875 31.78125 -1.421875 
Q 19.53125 -1.421875 13.0625 8.265625 
Q 6.59375 17.96875 6.59375 36.375 
Q 6.59375 54.828125 13.0625 64.515625 
Q 19.53125 74.21875 31.78125 74.21875 
z
" id="DejaVuSans-48"/>
      </defs>
      <g style="fill:#555555;" transform="translate(130.6375 580.519219)scale(0.1 -0.1)">
       <use xlink:href="#DejaVuSans-48"/>
      </g>
     </g>
    </g>
    <g id="ytick_2">
     <g id="line2d_33">
      <path clip-path="url(#pda6c6f2ecf)" d="M 144 517.46813 
L 549.818182 517.46813 
" style="fill:none;stroke:#ffffff;stroke-linecap:square;stroke-width:0.8;"/>
     </g>
     <g id="line2d_34">
      <g>
       <use style="fill:#555555;stroke:#555555;stroke-width:0.8;" x="144" xlink:href="#m66229def14" y="517.46813"/>
      </g>
     </g>
     <g id="text_18">
      <!-- 50 -->
      <defs>
       <path d="M 10.796875 72.90625 
L 49.515625 72.90625 
L 49.515625 64.59375 
L 19.828125 64.59375 
L 19.828125 46.734375 
Q 21.96875 47.46875 24.109375 47.828125 
Q 26.265625 48.1875 28.421875 48.1875 
Q 40.625 48.1875 47.75 41.5 
Q 54.890625 34.8125 54.890625 23.390625 
Q 54.890625 11.625 47.5625 5.09375 
Q 40.234375 -1.421875 26.90625 -1.421875 
Q 22.3125 -1.421875 17.546875 -0.640625 
Q 12.796875 0.140625 7.71875 1.703125 
L 7.71875 11.625 
Q 12.109375 9.234375 16.796875 8.0625 
Q 21.484375 6.890625 26.703125 6.890625 
Q 35.15625 6.890625 40.078125 11.328125 
Q 45.015625 15.765625 45.015625 23.390625 
Q 45.015625 31 40.078125 35.4375 
Q 35.15625 39.890625 26.703125 39.890625 
Q 22.75 39.890625 18.8125 39.015625 
Q 14.890625 38.140625 10.796875 36.28125 
z
" id="DejaVuSans-53"/>
      </defs>
      <g style="fill:#555555;" transform="translate(124.275 521.267348)scale(0.1 -0.1)">
       <use xlink:href="#DejaVuSans-53"/>
       <use x="63.623047" xlink:href="#DejaVuSans-48"/>
      </g>
     </g>
    </g>
    <g id="ytick_3">
     <g id="line2d_35">
      <path clip-path="url(#pda6c6f2ecf)" d="M 144 458.216259 
L 549.818182 458.216259 
" style="fill:none;stroke:#ffffff;stroke-linecap:square;stroke-width:0.8;"/>
     </g>
     <g id="line2d_36">
      <g>
       <use style="fill:#555555;stroke:#555555;stroke-width:0.8;" x="144" xlink:href="#m66229def14" y="458.216259"/>
      </g>
     </g>
     <g id="text_19">
      <!-- 100 -->
      <defs>
       <path d="M 12.40625 8.296875 
L 28.515625 8.296875 
L 28.515625 63.921875 
L 10.984375 60.40625 
L 10.984375 69.390625 
L 28.421875 72.90625 
L 38.28125 72.90625 
L 38.28125 8.296875 
L 54.390625 8.296875 
L 54.390625 0 
L 12.40625 0 
z
" id="DejaVuSans-49"/>
      </defs>
      <g style="fill:#555555;" transform="translate(117.9125 462.015478)scale(0.1 -0.1)">
       <use xlink:href="#DejaVuSans-49"/>
       <use x="63.623047" xlink:href="#DejaVuSans-48"/>
       <use x="127.246094" xlink:href="#DejaVuSans-48"/>
      </g>
     </g>
    </g>
    <g id="ytick_4">
     <g id="line2d_37">
      <path clip-path="url(#pda6c6f2ecf)" d="M 144 398.964389 
L 549.818182 398.964389 
" style="fill:none;stroke:#ffffff;stroke-linecap:square;stroke-width:0.8;"/>
     </g>
     <g id="line2d_38">
      <g>
       <use style="fill:#555555;stroke:#555555;stroke-width:0.8;" x="144" xlink:href="#m66229def14" y="398.964389"/>
      </g>
     </g>
     <g id="text_20">
      <!-- 150 -->
      <g style="fill:#555555;" transform="translate(117.9125 402.763608)scale(0.1 -0.1)">
       <use xlink:href="#DejaVuSans-49"/>
       <use x="63.623047" xlink:href="#DejaVuSans-53"/>
       <use x="127.246094" xlink:href="#DejaVuSans-48"/>
      </g>
     </g>
    </g>
    <g id="ytick_5">
     <g id="line2d_39">
      <path clip-path="url(#pda6c6f2ecf)" d="M 144 339.712519 
L 549.818182 339.712519 
" style="fill:none;stroke:#ffffff;stroke-linecap:square;stroke-width:0.8;"/>
     </g>
     <g id="line2d_40">
      <g>
       <use style="fill:#555555;stroke:#555555;stroke-width:0.8;" x="144" xlink:href="#m66229def14" y="339.712519"/>
      </g>
     </g>
     <g id="text_21">
      <!-- 200 -->
      <defs>
       <path d="M 19.1875 8.296875 
L 53.609375 8.296875 
L 53.609375 0 
L 7.328125 0 
L 7.328125 8.296875 
Q 12.9375 14.109375 22.625 23.890625 
Q 32.328125 33.6875 34.8125 36.53125 
Q 39.546875 41.84375 41.421875 45.53125 
Q 43.3125 49.21875 43.3125 52.78125 
Q 43.3125 58.59375 39.234375 62.25 
Q 35.15625 65.921875 28.609375 65.921875 
Q 23.96875 65.921875 18.8125 64.3125 
Q 13.671875 62.703125 7.8125 59.421875 
L 7.8125 69.390625 
Q 13.765625 71.78125 18.9375 73 
Q 24.125 74.21875 28.421875 74.21875 
Q 39.75 74.21875 46.484375 68.546875 
Q 53.21875 62.890625 53.21875 53.421875 
Q 53.21875 48.921875 51.53125 44.890625 
Q 49.859375 40.875 45.40625 35.40625 
Q 44.1875 33.984375 37.640625 27.21875 
Q 31.109375 20.453125 19.1875 8.296875 
z
" id="DejaVuSans-50"/>
      </defs>
      <g style="fill:#555555;" transform="translate(117.9125 343.511737)scale(0.1 -0.1)">
       <use xlink:href="#DejaVuSans-50"/>
       <use x="63.623047" xlink:href="#DejaVuSans-48"/>
       <use x="127.246094" xlink:href="#DejaVuSans-48"/>
      </g>
     </g>
    </g>
    <g id="ytick_6">
     <g id="line2d_41">
      <path clip-path="url(#pda6c6f2ecf)" d="M 144 280.460648 
L 549.818182 280.460648 
" style="fill:none;stroke:#ffffff;stroke-linecap:square;stroke-width:0.8;"/>
     </g>
     <g id="line2d_42">
      <g>
       <use style="fill:#555555;stroke:#555555;stroke-width:0.8;" x="144" xlink:href="#m66229def14" y="280.460648"/>
      </g>
     </g>
     <g id="text_22">
      <!-- 250 -->
      <g style="fill:#555555;" transform="translate(117.9125 284.259867)scale(0.1 -0.1)">
       <use xlink:href="#DejaVuSans-50"/>
       <use x="63.623047" xlink:href="#DejaVuSans-53"/>
       <use x="127.246094" xlink:href="#DejaVuSans-48"/>
      </g>
     </g>
    </g>
    <g id="ytick_7">
     <g id="line2d_43">
      <path clip-path="url(#pda6c6f2ecf)" d="M 144 221.208778 
L 549.818182 221.208778 
" style="fill:none;stroke:#ffffff;stroke-linecap:square;stroke-width:0.8;"/>
     </g>
     <g id="line2d_44">
      <g>
       <use style="fill:#555555;stroke:#555555;stroke-width:0.8;" x="144" xlink:href="#m66229def14" y="221.208778"/>
      </g>
     </g>
     <g id="text_23">
      <!-- 300 -->
      <defs>
       <path d="M 40.578125 39.3125 
Q 47.65625 37.796875 51.625 33 
Q 55.609375 28.21875 55.609375 21.1875 
Q 55.609375 10.40625 48.1875 4.484375 
Q 40.765625 -1.421875 27.09375 -1.421875 
Q 22.515625 -1.421875 17.65625 -0.515625 
Q 12.796875 0.390625 7.625 2.203125 
L 7.625 11.71875 
Q 11.71875 9.328125 16.59375 8.109375 
Q 21.484375 6.890625 26.8125 6.890625 
Q 36.078125 6.890625 40.9375 10.546875 
Q 45.796875 14.203125 45.796875 21.1875 
Q 45.796875 27.640625 41.28125 31.265625 
Q 36.765625 34.90625 28.71875 34.90625 
L 20.21875 34.90625 
L 20.21875 43.015625 
L 29.109375 43.015625 
Q 36.375 43.015625 40.234375 45.921875 
Q 44.09375 48.828125 44.09375 54.296875 
Q 44.09375 59.90625 40.109375 62.90625 
Q 36.140625 65.921875 28.71875 65.921875 
Q 24.65625 65.921875 20.015625 65.03125 
Q 15.375 64.15625 9.8125 62.3125 
L 9.8125 71.09375 
Q 15.4375 72.65625 20.34375 73.4375 
Q 25.25 74.21875 29.59375 74.21875 
Q 40.828125 74.21875 47.359375 69.109375 
Q 53.90625 64.015625 53.90625 55.328125 
Q 53.90625 49.265625 50.4375 45.09375 
Q 46.96875 40.921875 40.578125 39.3125 
z
" id="DejaVuSans-51"/>
      </defs>
      <g style="fill:#555555;" transform="translate(117.9125 225.007997)scale(0.1 -0.1)">
       <use xlink:href="#DejaVuSans-51"/>
       <use x="63.623047" xlink:href="#DejaVuSans-48"/>
       <use x="127.246094" xlink:href="#DejaVuSans-48"/>
      </g>
     </g>
    </g>
    <g id="ytick_8">
     <g id="line2d_45">
      <path clip-path="url(#pda6c6f2ecf)" d="M 144 161.956908 
L 549.818182 161.956908 
" style="fill:none;stroke:#ffffff;stroke-linecap:square;stroke-width:0.8;"/>
     </g>
     <g id="line2d_46">
      <g>
       <use style="fill:#555555;stroke:#555555;stroke-width:0.8;" x="144" xlink:href="#m66229def14" y="161.956908"/>
      </g>
     </g>
     <g id="text_24">
      <!-- 350 -->
      <g style="fill:#555555;" transform="translate(117.9125 165.756126)scale(0.1 -0.1)">
       <use xlink:href="#DejaVuSans-51"/>
       <use x="63.623047" xlink:href="#DejaVuSans-53"/>
       <use x="127.246094" xlink:href="#DejaVuSans-48"/>
      </g>
     </g>
    </g>
    <g id="ytick_9">
     <g id="line2d_47">
      <path clip-path="url(#pda6c6f2ecf)" d="M 144 102.705037 
L 549.818182 102.705037 
" style="fill:none;stroke:#ffffff;stroke-linecap:square;stroke-width:0.8;"/>
     </g>
     <g id="line2d_48">
      <g>
       <use style="fill:#555555;stroke:#555555;stroke-width:0.8;" x="144" xlink:href="#m66229def14" y="102.705037"/>
      </g>
     </g>
     <g id="text_25">
      <!-- 400 -->
      <defs>
       <path d="M 37.796875 64.3125 
L 12.890625 25.390625 
L 37.796875 25.390625 
z
M 35.203125 72.90625 
L 47.609375 72.90625 
L 47.609375 25.390625 
L 58.015625 25.390625 
L 58.015625 17.1875 
L 47.609375 17.1875 
L 47.609375 0 
L 37.796875 0 
L 37.796875 17.1875 
L 4.890625 17.1875 
L 4.890625 26.703125 
z
" id="DejaVuSans-52"/>
      </defs>
      <g style="fill:#555555;" transform="translate(117.9125 106.504256)scale(0.1 -0.1)">
       <use xlink:href="#DejaVuSans-52"/>
       <use x="63.623047" xlink:href="#DejaVuSans-48"/>
       <use x="127.246094" xlink:href="#DejaVuSans-48"/>
      </g>
     </g>
    </g>
    <g id="text_26">
     <!-- Count -->
     <defs>
      <path d="M 64.40625 67.28125 
L 64.40625 56.890625 
Q 59.421875 61.53125 53.78125 63.8125 
Q 48.140625 66.109375 41.796875 66.109375 
Q 29.296875 66.109375 22.65625 58.46875 
Q 16.015625 50.828125 16.015625 36.375 
Q 16.015625 21.96875 22.65625 14.328125 
Q 29.296875 6.6875 41.796875 6.6875 
Q 48.140625 6.6875 53.78125 8.984375 
Q 59.421875 11.28125 64.40625 15.921875 
L 64.40625 5.609375 
Q 59.234375 2.09375 53.4375 0.328125 
Q 47.65625 -1.421875 41.21875 -1.421875 
Q 24.65625 -1.421875 15.125 8.703125 
Q 5.609375 18.84375 5.609375 36.375 
Q 5.609375 53.953125 15.125 64.078125 
Q 24.65625 74.21875 41.21875 74.21875 
Q 47.75 74.21875 53.53125 72.484375 
Q 59.328125 70.75 64.40625 67.28125 
z
" id="DejaVuSans-67"/>
     </defs>
     <g style="fill:#555555;" transform="translate(111.416875 345.058125)rotate(-90)scale(0.12 -0.12)">
      <use xlink:href="#DejaVuSans-67"/>
      <use x="69.824219" xlink:href="#DejaVuSans-111"/>
      <use x="131.005859" xlink:href="#DejaVuSans-117"/>
      <use x="194.384766" xlink:href="#DejaVuSans-110"/>
      <use x="257.763672" xlink:href="#DejaVuSans-116"/>
     </g>
    </g>
   </g>
   <g id="patch_3">
    <path clip-path="url(#pda6c6f2ecf)" d="M 162.446281 576.72 
L 182.388206 576.72 
L 182.388206 101.52 
L 162.446281 101.52 
z
" style="fill:#008080;opacity:0.8;"/>
   </g>
   <g id="patch_4">
    <path clip-path="url(#pda6c6f2ecf)" d="M 187.373688 576.72 
L 207.315613 576.72 
L 207.315613 139.441197 
L 187.373688 139.441197 
z
" style="fill:#008080;opacity:0.8;"/>
   </g>
   <g id="patch_5">
    <path clip-path="url(#pda6c6f2ecf)" d="M 212.301094 576.72 
L 232.24302 576.72 
L 232.24302 288.75591 
L 212.301094 288.75591 
z
" style="fill:#008080;opacity:0.8;"/>
   </g>
   <g id="patch_6">
    <path clip-path="url(#pda6c6f2ecf)" d="M 237.228501 576.72 
L 257.170427 576.72 
L 257.170427 295.866135 
L 237.228501 295.866135 
z
" style="fill:#008080;opacity:0.8;"/>
   </g>
   <g id="patch_7">
    <path clip-path="url(#pda6c6f2ecf)" d="M 262.155908 576.72 
L 282.097833 576.72 
L 282.097833 299.421247 
L 262.155908 299.421247 
z
" style="fill:#008080;opacity:0.8;"/>
   </g>
   <g id="patch_8">
    <path clip-path="url(#pda6c6f2ecf)" d="M 287.083315 576.72 
L 307.02524 576.72 
L 307.02524 357.48808 
L 287.083315 357.48808 
z
" style="fill:#008080;opacity:0.8;"/>
   </g>
   <g id="patch_9">
    <path clip-path="url(#pda6c6f2ecf)" d="M 312.010721 576.72 
L 331.952647 576.72 
L 331.952647 362.228229 
L 312.010721 362.228229 
z
" style="fill:#008080;opacity:0.8;"/>
   </g>
   <g id="patch_10">
    <path clip-path="url(#pda6c6f2ecf)" d="M 336.938128 576.72 
L 356.880054 576.72 
L 356.880054 364.598304 
L 336.938128 364.598304 
z
" style="fill:#008080;opacity:0.8;"/>
   </g>
   <g id="patch_11">
    <path clip-path="url(#pda6c6f2ecf)" d="M 361.865535 576.72 
L 381.80746 576.72 
L 381.80746 378.818753 
L 361.865535 378.818753 
z
" style="fill:#008080;opacity:0.8;"/>
   </g>
   <g id="patch_12">
    <path clip-path="url(#pda6c6f2ecf)" d="M 386.792942 576.72 
L 406.734867 576.72 
L 406.734867 385.928978 
L 386.792942 385.928978 
z
" style="fill:#008080;opacity:0.8;"/>
   </g>
   <g id="patch_13">
    <path clip-path="url(#pda6c6f2ecf)" d="M 411.720348 576.72 
L 431.662274 576.72 
L 431.662274 403.704539 
L 411.720348 403.704539 
z
" style="fill:#008080;opacity:0.8;"/>
   </g>
   <g id="patch_14">
    <path clip-path="url(#pda6c6f2ecf)" d="M 436.647755 576.72 
L 456.589681 576.72 
L 456.589681 411.9998 
L 436.647755 411.9998 
z
" style="fill:#008080;opacity:0.8;"/>
   </g>
   <g id="patch_15">
    <path clip-path="url(#pda6c6f2ecf)" d="M 461.575162 576.72 
L 481.517087 576.72 
L 481.517087 423.850175 
L 461.575162 423.850175 
z
" style="fill:#008080;opacity:0.8;"/>
   </g>
   <g id="patch_16">
    <path clip-path="url(#pda6c6f2ecf)" d="M 486.502569 576.72 
L 506.444494 576.72 
L 506.444494 430.960399 
L 486.502569 430.960399 
z
" style="fill:#008080;opacity:0.8;"/>
   </g>
   <g id="patch_17">
    <path clip-path="url(#pda6c6f2ecf)" d="M 511.429975 576.72 
L 531.371901 576.72 
L 531.371901 439.255661 
L 511.429975 439.255661 
z
" style="fill:#008080;opacity:0.8;"/>
   </g>
   <g id="patch_18">
    <path d="M 144 576.72 
L 144 77.76 
" style="fill:none;stroke:#ffffff;stroke-linecap:square;stroke-linejoin:miter;"/>
   </g>
   <g id="patch_19">
    <path d="M 549.818182 576.72 
L 549.818182 77.76 
" style="fill:none;stroke:#ffffff;stroke-linecap:square;stroke-linejoin:miter;"/>
   </g>
   <g id="patch_20">
    <path d="M 144 576.72 
L 549.818182 576.72 
" style="fill:none;stroke:#ffffff;stroke-linecap:square;stroke-linejoin:miter;"/>
   </g>
   <g id="patch_21">
    <path d="M 144 77.76 
L 549.818182 77.76 
" style="fill:none;stroke:#ffffff;stroke-linecap:square;stroke-linejoin:miter;"/>
   </g>
   <g id="text_27">
    <!-- Negative ID (User Comments) -->
    <defs>
     <path d="M 9.8125 72.90625 
L 23.09375 72.90625 
L 55.421875 11.921875 
L 55.421875 72.90625 
L 64.984375 72.90625 
L 64.984375 0 
L 51.703125 0 
L 19.390625 60.984375 
L 19.390625 0 
L 9.8125 0 
z
" id="DejaVuSans-78"/>
     <path d="M 2.984375 54.6875 
L 12.5 54.6875 
L 29.59375 8.796875 
L 46.6875 54.6875 
L 56.203125 54.6875 
L 35.6875 0 
L 23.484375 0 
z
" id="DejaVuSans-118"/>
     <path id="DejaVuSans-32"/>
     <path d="M 9.8125 72.90625 
L 19.671875 72.90625 
L 19.671875 0 
L 9.8125 0 
z
" id="DejaVuSans-73"/>
     <path d="M 19.671875 64.796875 
L 19.671875 8.109375 
L 31.59375 8.109375 
Q 46.6875 8.109375 53.6875 14.9375 
Q 60.6875 21.78125 60.6875 36.53125 
Q 60.6875 51.171875 53.6875 57.984375 
Q 46.6875 64.796875 31.59375 64.796875 
z
M 9.8125 72.90625 
L 30.078125 72.90625 
Q 51.265625 72.90625 61.171875 64.09375 
Q 71.09375 55.28125 71.09375 36.53125 
Q 71.09375 17.671875 61.125 8.828125 
Q 51.171875 0 30.078125 0 
L 9.8125 0 
z
" id="DejaVuSans-68"/>
     <path d="M 31 75.875 
Q 24.46875 64.65625 21.28125 53.65625 
Q 18.109375 42.671875 18.109375 31.390625 
Q 18.109375 20.125 21.3125 9.0625 
Q 24.515625 -2 31 -13.1875 
L 23.1875 -13.1875 
Q 15.875 -1.703125 12.234375 9.375 
Q 8.59375 20.453125 8.59375 31.390625 
Q 8.59375 42.28125 12.203125 53.3125 
Q 15.828125 64.359375 23.1875 75.875 
z
" id="DejaVuSans-40"/>
     <path d="M 8.6875 72.90625 
L 18.609375 72.90625 
L 18.609375 28.609375 
Q 18.609375 16.890625 22.84375 11.734375 
Q 27.09375 6.59375 36.625 6.59375 
Q 46.09375 6.59375 50.34375 11.734375 
Q 54.59375 16.890625 54.59375 28.609375 
L 54.59375 72.90625 
L 64.5 72.90625 
L 64.5 27.390625 
Q 64.5 13.140625 57.4375 5.859375 
Q 50.390625 -1.421875 36.625 -1.421875 
Q 22.796875 -1.421875 15.734375 5.859375 
Q 8.6875 13.140625 8.6875 27.390625 
z
" id="DejaVuSans-85"/>
     <path d="M 52 44.1875 
Q 55.375 50.25 60.0625 53.125 
Q 64.75 56 71.09375 56 
Q 79.640625 56 84.28125 50.015625 
Q 88.921875 44.046875 88.921875 33.015625 
L 88.921875 0 
L 79.890625 0 
L 79.890625 32.71875 
Q 79.890625 40.578125 77.09375 44.375 
Q 74.3125 48.1875 68.609375 48.1875 
Q 61.625 48.1875 57.5625 43.546875 
Q 53.515625 38.921875 53.515625 30.90625 
L 53.515625 0 
L 44.484375 0 
L 44.484375 32.71875 
Q 44.484375 40.625 41.703125 44.40625 
Q 38.921875 48.1875 33.109375 48.1875 
Q 26.21875 48.1875 22.15625 43.53125 
Q 18.109375 38.875 18.109375 30.90625 
L 18.109375 0 
L 9.078125 0 
L 9.078125 54.6875 
L 18.109375 54.6875 
L 18.109375 46.1875 
Q 21.1875 51.21875 25.484375 53.609375 
Q 29.78125 56 35.6875 56 
Q 41.65625 56 45.828125 52.96875 
Q 50 49.953125 52 44.1875 
z
" id="DejaVuSans-109"/>
     <path d="M 8.015625 75.875 
L 15.828125 75.875 
Q 23.140625 64.359375 26.78125 53.3125 
Q 30.421875 42.28125 30.421875 31.390625 
Q 30.421875 20.453125 26.78125 9.375 
Q 23.140625 -1.703125 15.828125 -13.1875 
L 8.015625 -13.1875 
Q 14.5 -2 17.703125 9.0625 
Q 20.90625 20.125 20.90625 31.390625 
Q 20.90625 42.671875 17.703125 53.65625 
Q 14.5 64.65625 8.015625 75.875 
z
" id="DejaVuSans-41"/>
    </defs>
    <g transform="translate(239.006966 71.76)scale(0.144 -0.144)">
     <use xlink:href="#DejaVuSans-78"/>
     <use x="74.804688" xlink:href="#DejaVuSans-101"/>
     <use x="136.328125" xlink:href="#DejaVuSans-103"/>
     <use x="199.804688" xlink:href="#DejaVuSans-97"/>
     <use x="261.083984" xlink:href="#DejaVuSans-116"/>
     <use x="300.292969" xlink:href="#DejaVuSans-105"/>
     <use x="328.076172" xlink:href="#DejaVuSans-118"/>
     <use x="387.255859" xlink:href="#DejaVuSans-101"/>
     <use x="448.779297" xlink:href="#DejaVuSans-32"/>
     <use x="480.566406" xlink:href="#DejaVuSans-73"/>
     <use x="510.058594" xlink:href="#DejaVuSans-68"/>
     <use x="587.060547" xlink:href="#DejaVuSans-32"/>
     <use x="618.847656" xlink:href="#DejaVuSans-40"/>
     <use x="657.861328" xlink:href="#DejaVuSans-85"/>
     <use x="731.054688" xlink:href="#DejaVuSans-115"/>
     <use x="783.154297" xlink:href="#DejaVuSans-101"/>
     <use x="844.677734" xlink:href="#DejaVuSans-114"/>
     <use x="885.791016" xlink:href="#DejaVuSans-32"/>
     <use x="917.578125" xlink:href="#DejaVuSans-67"/>
     <use x="987.402344" xlink:href="#DejaVuSans-111"/>
     <use x="1048.583984" xlink:href="#DejaVuSans-109"/>
     <use x="1145.996094" xlink:href="#DejaVuSans-109"/>
     <use x="1243.408203" xlink:href="#DejaVuSans-101"/>
     <use x="1304.931641" xlink:href="#DejaVuSans-110"/>
     <use x="1368.310547" xlink:href="#DejaVuSans-116"/>
     <use x="1407.519531" xlink:href="#DejaVuSans-115"/>
     <use x="1459.619141" xlink:href="#DejaVuSans-41"/>
    </g>
   </g>
  </g>
  <g id="axes_2">
   <g id="patch_22">
    <path d="M 630.981818 576.72 
L 1036.8 576.72 
L 1036.8 77.76 
L 630.981818 77.76 
z
" style="fill:#e5e5e5;"/>
   </g>
   <g id="matplotlib.axis_3">
    <g id="xtick_16">
     <g id="line2d_49">
      <path clip-path="url(#pfc9ecdced2)" d="M 659.399062 576.72 
L 659.399062 77.76 
" style="fill:none;stroke:#ffffff;stroke-linecap:square;stroke-width:0.8;"/>
     </g>
     <g id="line2d_50">
      <g>
       <use style="fill:#555555;stroke:#555555;stroke-width:0.8;" x="659.399062" xlink:href="#m2f0ffa0341" y="576.72"/>
      </g>
     </g>
     <g id="text_28">
      <!-- thanks -->
      <g style="fill:#555555;" transform="translate(632.228613 611.217749)rotate(-40)scale(0.1 -0.1)">
       <use xlink:href="#DejaVuSans-116"/>
       <use x="39.208984" xlink:href="#DejaVuSans-104"/>
       <use x="102.587891" xlink:href="#DejaVuSans-97"/>
       <use x="163.867188" xlink:href="#DejaVuSans-110"/>
       <use x="227.246094" xlink:href="#DejaVuSans-107"/>
       <use x="285.15625" xlink:href="#DejaVuSans-115"/>
      </g>
     </g>
    </g>
    <g id="xtick_17">
     <g id="line2d_51">
      <path clip-path="url(#pfc9ecdced2)" d="M 684.326469 576.72 
L 684.326469 77.76 
" style="fill:none;stroke:#ffffff;stroke-linecap:square;stroke-width:0.8;"/>
     </g>
     <g id="line2d_52">
      <g>
       <use style="fill:#555555;stroke:#555555;stroke-width:0.8;" x="684.326469" xlink:href="#m2f0ffa0341" y="576.72"/>
      </g>
     </g>
     <g id="text_29">
      <!-- submission -->
      <g style="fill:#555555;" transform="translate(640.039714 625.580034)rotate(-40)scale(0.1 -0.1)">
       <use xlink:href="#DejaVuSans-115"/>
       <use x="52.099609" xlink:href="#DejaVuSans-117"/>
       <use x="115.478516" xlink:href="#DejaVuSans-98"/>
       <use x="178.955078" xlink:href="#DejaVuSans-109"/>
       <use x="276.367188" xlink:href="#DejaVuSans-105"/>
       <use x="304.150391" xlink:href="#DejaVuSans-115"/>
       <use x="356.25" xlink:href="#DejaVuSans-115"/>
       <use x="408.349609" xlink:href="#DejaVuSans-105"/>
       <use x="436.132812" xlink:href="#DejaVuSans-111"/>
       <use x="497.314453" xlink:href="#DejaVuSans-110"/>
      </g>
     </g>
    </g>
    <g id="xtick_18">
     <g id="line2d_53">
      <path clip-path="url(#pfc9ecdced2)" d="M 709.253875 576.72 
L 709.253875 77.76 
" style="fill:none;stroke:#ffffff;stroke-linecap:square;stroke-width:0.8;"/>
     </g>
     <g id="line2d_54">
      <g>
       <use style="fill:#555555;stroke:#555555;stroke-width:0.8;" x="709.253875" xlink:href="#m2f0ffa0341" y="576.72"/>
      </g>
     </g>
     <g id="text_30">
      <!-- wasp -->
      <g style="fill:#555555;" transform="translate(688.104057 606.16584)rotate(-40)scale(0.1 -0.1)">
       <use xlink:href="#DejaVuSans-119"/>
       <use x="81.787109" xlink:href="#DejaVuSans-97"/>
       <use x="143.066406" xlink:href="#DejaVuSans-115"/>
       <use x="195.166016" xlink:href="#DejaVuSans-112"/>
      </g>
     </g>
    </g>
    <g id="xtick_19">
     <g id="line2d_55">
      <path clip-path="url(#pfc9ecdced2)" d="M 734.181282 576.72 
L 734.181282 77.76 
" style="fill:none;stroke:#ffffff;stroke-linecap:square;stroke-width:0.8;"/>
     </g>
     <g id="line2d_56">
      <g>
       <use style="fill:#555555;stroke:#555555;stroke-width:0.8;" x="734.181282" xlink:href="#m2f0ffa0341" y="576.72"/>
      </g>
     </g>
     <g id="text_31">
      <!-- sawfly -->
      <defs>
       <path d="M 32.171875 -5.078125 
Q 28.375 -14.84375 24.75 -17.8125 
Q 21.140625 -20.796875 15.09375 -20.796875 
L 7.90625 -20.796875 
L 7.90625 -13.28125 
L 13.1875 -13.28125 
Q 16.890625 -13.28125 18.9375 -11.515625 
Q 21 -9.765625 23.484375 -3.21875 
L 25.09375 0.875 
L 2.984375 54.6875 
L 12.5 54.6875 
L 29.59375 11.921875 
L 46.6875 54.6875 
L 56.203125 54.6875 
z
" id="DejaVuSans-121"/>
      </defs>
      <g style="fill:#555555;" transform="translate(708.53574 609.9382)rotate(-40)scale(0.1 -0.1)">
       <use xlink:href="#DejaVuSans-115"/>
       <use x="52.099609" xlink:href="#DejaVuSans-97"/>
       <use x="113.378906" xlink:href="#DejaVuSans-119"/>
       <use x="195.166016" xlink:href="#DejaVuSans-102"/>
       <use x="230.371094" xlink:href="#DejaVuSans-108"/>
       <use x="258.154297" xlink:href="#DejaVuSans-121"/>
      </g>
     </g>
    </g>
    <g id="xtick_20">
     <g id="line2d_57">
      <path clip-path="url(#pfc9ecdced2)" d="M 759.108689 576.72 
L 759.108689 77.76 
" style="fill:none;stroke:#ffffff;stroke-linecap:square;stroke-width:0.8;"/>
     </g>
     <g id="line2d_58">
      <g>
       <use style="fill:#555555;stroke:#555555;stroke-width:0.8;" x="759.108689" xlink:href="#m2f0ffa0341" y="576.72"/>
      </g>
     </g>
     <g id="text_32">
      <!-- digger -->
      <g style="fill:#555555;" transform="translate(733.19144 610.166188)rotate(-40)scale(0.1 -0.1)">
       <use xlink:href="#DejaVuSans-100"/>
       <use x="63.476562" xlink:href="#DejaVuSans-105"/>
       <use x="91.259766" xlink:href="#DejaVuSans-103"/>
       <use x="154.736328" xlink:href="#DejaVuSans-103"/>
       <use x="218.212891" xlink:href="#DejaVuSans-101"/>
       <use x="279.736328" xlink:href="#DejaVuSans-114"/>
      </g>
     </g>
    </g>
    <g id="xtick_21">
     <g id="line2d_59">
      <path clip-path="url(#pfc9ecdced2)" d="M 784.036096 576.72 
L 784.036096 77.76 
" style="fill:none;stroke:#ffffff;stroke-linecap:square;stroke-width:0.8;"/>
     </g>
     <g id="line2d_60">
      <g>
       <use style="fill:#555555;stroke:#555555;stroke-width:0.8;" x="784.036096" xlink:href="#m2f0ffa0341" y="576.72"/>
      </g>
     </g>
     <g id="text_33">
      <!-- golden -->
      <g style="fill:#555555;" transform="translate(756.589152 611.449755)rotate(-40)scale(0.1 -0.1)">
       <use xlink:href="#DejaVuSans-103"/>
       <use x="63.476562" xlink:href="#DejaVuSans-111"/>
       <use x="124.658203" xlink:href="#DejaVuSans-108"/>
       <use x="152.441406" xlink:href="#DejaVuSans-100"/>
       <use x="215.917969" xlink:href="#DejaVuSans-101"/>
       <use x="277.441406" xlink:href="#DejaVuSans-110"/>
      </g>
     </g>
    </g>
    <g id="xtick_22">
     <g id="line2d_61">
      <path clip-path="url(#pfc9ecdced2)" d="M 808.963502 576.72 
L 808.963502 77.76 
" style="fill:none;stroke:#ffffff;stroke-linecap:square;stroke-width:0.8;"/>
     </g>
     <g id="line2d_62">
      <g>
       <use style="fill:#555555;stroke:#555555;stroke-width:0.8;" x="808.963502" xlink:href="#m2f0ffa0341" y="576.72"/>
      </g>
     </g>
     <g id="text_34">
      <!-- horntail -->
      <g style="fill:#555555;" transform="translate(778.128009 614.293086)rotate(-40)scale(0.1 -0.1)">
       <use xlink:href="#DejaVuSans-104"/>
       <use x="63.378906" xlink:href="#DejaVuSans-111"/>
       <use x="124.560547" xlink:href="#DejaVuSans-114"/>
       <use x="165.658203" xlink:href="#DejaVuSans-110"/>
       <use x="229.037109" xlink:href="#DejaVuSans-116"/>
       <use x="268.246094" xlink:href="#DejaVuSans-97"/>
       <use x="329.525391" xlink:href="#DejaVuSans-105"/>
       <use x="357.308594" xlink:href="#DejaVuSans-108"/>
      </g>
     </g>
    </g>
    <g id="xtick_23">
     <g id="line2d_63">
      <path clip-path="url(#pfc9ecdced2)" d="M 833.890909 576.72 
L 833.890909 77.76 
" style="fill:none;stroke:#ffffff;stroke-linecap:square;stroke-width:0.8;"/>
     </g>
     <g id="line2d_64">
      <g>
       <use style="fill:#555555;stroke:#555555;stroke-width:0.8;" x="833.890909" xlink:href="#m2f0ffa0341" y="576.72"/>
      </g>
     </g>
     <g id="text_35">
      <!-- wood -->
      <g style="fill:#555555;" transform="translate(812.05165 606.744349)rotate(-40)scale(0.1 -0.1)">
       <use xlink:href="#DejaVuSans-119"/>
       <use x="81.787109" xlink:href="#DejaVuSans-111"/>
       <use x="142.96875" xlink:href="#DejaVuSans-111"/>
       <use x="204.150391" xlink:href="#DejaVuSans-100"/>
      </g>
     </g>
    </g>
    <g id="xtick_24">
     <g id="line2d_65">
      <path clip-path="url(#pfc9ecdced2)" d="M 858.818316 576.72 
L 858.818316 77.76 
" style="fill:none;stroke:#ffffff;stroke-linecap:square;stroke-width:0.8;"/>
     </g>
     <g id="line2d_66">
      <g>
       <use style="fill:#555555;stroke:#555555;stroke-width:0.8;" x="858.818316" xlink:href="#m2f0ffa0341" y="576.72"/>
      </g>
     </g>
     <g id="text_36">
      <!-- hornet -->
      <g style="fill:#555555;" transform="translate(832.220006 610.737667)rotate(-40)scale(0.1 -0.1)">
       <use xlink:href="#DejaVuSans-104"/>
       <use x="63.378906" xlink:href="#DejaVuSans-111"/>
       <use x="124.560547" xlink:href="#DejaVuSans-114"/>
       <use x="165.658203" xlink:href="#DejaVuSans-110"/>
       <use x="229.037109" xlink:href="#DejaVuSans-101"/>
       <use x="290.560547" xlink:href="#DejaVuSans-116"/>
      </g>
     </g>
    </g>
    <g id="xtick_25">
     <g id="line2d_67">
      <path clip-path="url(#pfc9ecdced2)" d="M 883.745723 576.72 
L 883.745723 77.76 
" style="fill:none;stroke:#ffffff;stroke-linecap:square;stroke-width:0.8;"/>
     </g>
     <g id="line2d_68">
      <g>
       <use style="fill:#555555;stroke:#555555;stroke-width:0.8;" x="883.745723" xlink:href="#m2f0ffa0341" y="576.72"/>
      </g>
     </g>
     <g id="text_37">
      <!-- great -->
      <g style="fill:#555555;" transform="translate(861.987856 606.676052)rotate(-40)scale(0.1 -0.1)">
       <use xlink:href="#DejaVuSans-103"/>
       <use x="63.476562" xlink:href="#DejaVuSans-114"/>
       <use x="104.558594" xlink:href="#DejaVuSans-101"/>
       <use x="166.082031" xlink:href="#DejaVuSans-97"/>
       <use x="227.361328" xlink:href="#DejaVuSans-116"/>
      </g>
     </g>
    </g>
    <g id="xtick_26">
     <g id="line2d_69">
      <path clip-path="url(#pfc9ecdced2)" d="M 908.673129 576.72 
L 908.673129 77.76 
" style="fill:none;stroke:#ffffff;stroke-linecap:square;stroke-width:0.8;"/>
     </g>
     <g id="line2d_70">
      <g>
       <use style="fill:#555555;stroke:#555555;stroke-width:0.8;" x="908.673129" xlink:href="#m2f0ffa0341" y="576.72"/>
      </g>
     </g>
     <g id="text_38">
      <!-- cicada -->
      <g style="fill:#555555;" transform="translate(882.532052 610.354003)rotate(-40)scale(0.1 -0.1)">
       <use xlink:href="#DejaVuSans-99"/>
       <use x="54.980469" xlink:href="#DejaVuSans-105"/>
       <use x="82.763672" xlink:href="#DejaVuSans-99"/>
       <use x="137.744141" xlink:href="#DejaVuSans-97"/>
       <use x="199.023438" xlink:href="#DejaVuSans-100"/>
       <use x="262.5" xlink:href="#DejaVuSans-97"/>
      </g>
     </g>
    </g>
    <g id="xtick_27">
     <g id="line2d_71">
      <path clip-path="url(#pfc9ecdced2)" d="M 933.600536 576.72 
L 933.600536 77.76 
" style="fill:none;stroke:#ffffff;stroke-linecap:square;stroke-width:0.8;"/>
     </g>
     <g id="line2d_72">
      <g>
       <use style="fill:#555555;stroke:#555555;stroke-width:0.8;" x="933.600536" xlink:href="#m2f0ffa0341" y="576.72"/>
      </g>
     </g>
     <g id="text_39">
      <!-- killer -->
      <g style="fill:#555555;" transform="translate(913.580633 605.217728)rotate(-40)scale(0.1 -0.1)">
       <use xlink:href="#DejaVuSans-107"/>
       <use x="57.910156" xlink:href="#DejaVuSans-105"/>
       <use x="85.693359" xlink:href="#DejaVuSans-108"/>
       <use x="113.476562" xlink:href="#DejaVuSans-108"/>
       <use x="141.259766" xlink:href="#DejaVuSans-101"/>
       <use x="202.783203" xlink:href="#DejaVuSans-114"/>
      </g>
     </g>
    </g>
    <g id="xtick_28">
     <g id="line2d_73">
      <path clip-path="url(#pfc9ecdced2)" d="M 958.527943 576.72 
L 958.527943 77.76 
" style="fill:none;stroke:#ffffff;stroke-linecap:square;stroke-width:0.8;"/>
     </g>
     <g id="line2d_74">
      <g>
       <use style="fill:#555555;stroke:#555555;stroke-width:0.8;" x="958.527943" xlink:href="#m2f0ffa0341" y="576.72"/>
      </g>
     </g>
     <g id="text_40">
      <!-- like -->
      <g style="fill:#555555;" transform="translate(943.788959 600.786511)rotate(-40)scale(0.1 -0.1)">
       <use xlink:href="#DejaVuSans-108"/>
       <use x="27.783203" xlink:href="#DejaVuSans-105"/>
       <use x="55.566406" xlink:href="#DejaVuSans-107"/>
       <use x="113.429688" xlink:href="#DejaVuSans-101"/>
      </g>
     </g>
    </g>
    <g id="xtick_29">
     <g id="line2d_75">
      <path clip-path="url(#pfc9ecdced2)" d="M 983.45535 576.72 
L 983.45535 77.76 
" style="fill:none;stroke:#ffffff;stroke-linecap:square;stroke-width:0.8;"/>
     </g>
     <g id="line2d_76">
      <g>
       <use style="fill:#555555;stroke:#555555;stroke-width:0.8;" x="983.45535" xlink:href="#m2f0ffa0341" y="576.72"/>
      </g>
     </g>
     <g id="text_41">
      <!-- looks -->
      <g style="fill:#555555;" transform="translate(962.189427 606.263262)rotate(-40)scale(0.1 -0.1)">
       <use xlink:href="#DejaVuSans-108"/>
       <use x="27.783203" xlink:href="#DejaVuSans-111"/>
       <use x="88.964844" xlink:href="#DejaVuSans-111"/>
       <use x="150.146484" xlink:href="#DejaVuSans-107"/>
       <use x="208.056641" xlink:href="#DejaVuSans-115"/>
      </g>
     </g>
    </g>
    <g id="xtick_30">
     <g id="line2d_77">
      <path clip-path="url(#pfc9ecdced2)" d="M 1008.382756 576.72 
L 1008.382756 77.76 
" style="fill:none;stroke:#ffffff;stroke-linecap:square;stroke-width:0.8;"/>
     </g>
     <g id="line2d_78">
      <g>
       <use style="fill:#555555;stroke:#555555;stroke-width:0.8;" x="1008.382756" xlink:href="#m2f0ffa0341" y="576.72"/>
      </g>
     </g>
     <g id="text_42">
      <!-- female -->
      <g style="fill:#555555;" transform="translate(980.637774 611.699839)rotate(-40)scale(0.1 -0.1)">
       <use xlink:href="#DejaVuSans-102"/>
       <use x="35.205078" xlink:href="#DejaVuSans-101"/>
       <use x="96.728516" xlink:href="#DejaVuSans-109"/>
       <use x="194.140625" xlink:href="#DejaVuSans-97"/>
       <use x="255.419922" xlink:href="#DejaVuSans-108"/>
       <use x="283.203125" xlink:href="#DejaVuSans-101"/>
      </g>
     </g>
    </g>
    <g id="text_43">
     <!-- Word -->
     <g style="fill:#555555;" transform="translate(818.017159 640.291292)scale(0.12 -0.12)">
      <use xlink:href="#DejaVuSans-87"/>
      <use x="98.798828" xlink:href="#DejaVuSans-111"/>
      <use x="159.980469" xlink:href="#DejaVuSans-114"/>
      <use x="201.078125" xlink:href="#DejaVuSans-100"/>
     </g>
    </g>
   </g>
   <g id="matplotlib.axis_4">
    <g id="ytick_10">
     <g id="line2d_79">
      <path clip-path="url(#pfc9ecdced2)" d="M 630.981818 576.72 
L 1036.8 576.72 
" style="fill:none;stroke:#ffffff;stroke-linecap:square;stroke-width:0.8;"/>
     </g>
     <g id="line2d_80">
      <g>
       <use style="fill:#555555;stroke:#555555;stroke-width:0.8;" x="630.981818" xlink:href="#m66229def14" y="576.72"/>
      </g>
     </g>
     <g id="text_44">
      <!-- 0 -->
      <g style="fill:#555555;" transform="translate(617.619318 580.519219)scale(0.1 -0.1)">
       <use xlink:href="#DejaVuSans-48"/>
      </g>
     </g>
    </g>
    <g id="ytick_11">
     <g id="line2d_81">
      <path clip-path="url(#pfc9ecdced2)" d="M 630.981818 508.345899 
L 1036.8 508.345899 
" style="fill:none;stroke:#ffffff;stroke-linecap:square;stroke-width:0.8;"/>
     </g>
     <g id="line2d_82">
      <g>
       <use style="fill:#555555;stroke:#555555;stroke-width:0.8;" x="630.981818" xlink:href="#m66229def14" y="508.345899"/>
      </g>
     </g>
     <g id="text_45">
      <!-- 200 -->
      <g style="fill:#555555;" transform="translate(604.894318 512.145118)scale(0.1 -0.1)">
       <use xlink:href="#DejaVuSans-50"/>
       <use x="63.623047" xlink:href="#DejaVuSans-48"/>
       <use x="127.246094" xlink:href="#DejaVuSans-48"/>
      </g>
     </g>
    </g>
    <g id="ytick_12">
     <g id="line2d_83">
      <path clip-path="url(#pfc9ecdced2)" d="M 630.981818 439.971799 
L 1036.8 439.971799 
" style="fill:none;stroke:#ffffff;stroke-linecap:square;stroke-width:0.8;"/>
     </g>
     <g id="line2d_84">
      <g>
       <use style="fill:#555555;stroke:#555555;stroke-width:0.8;" x="630.981818" xlink:href="#m66229def14" y="439.971799"/>
      </g>
     </g>
     <g id="text_46">
      <!-- 400 -->
      <g style="fill:#555555;" transform="translate(604.894318 443.771017)scale(0.1 -0.1)">
       <use xlink:href="#DejaVuSans-52"/>
       <use x="63.623047" xlink:href="#DejaVuSans-48"/>
       <use x="127.246094" xlink:href="#DejaVuSans-48"/>
      </g>
     </g>
    </g>
    <g id="ytick_13">
     <g id="line2d_85">
      <path clip-path="url(#pfc9ecdced2)" d="M 630.981818 371.597698 
L 1036.8 371.597698 
" style="fill:none;stroke:#ffffff;stroke-linecap:square;stroke-width:0.8;"/>
     </g>
     <g id="line2d_86">
      <g>
       <use style="fill:#555555;stroke:#555555;stroke-width:0.8;" x="630.981818" xlink:href="#m66229def14" y="371.597698"/>
      </g>
     </g>
     <g id="text_47">
      <!-- 600 -->
      <defs>
       <path d="M 33.015625 40.375 
Q 26.375 40.375 22.484375 35.828125 
Q 18.609375 31.296875 18.609375 23.390625 
Q 18.609375 15.53125 22.484375 10.953125 
Q 26.375 6.390625 33.015625 6.390625 
Q 39.65625 6.390625 43.53125 10.953125 
Q 47.40625 15.53125 47.40625 23.390625 
Q 47.40625 31.296875 43.53125 35.828125 
Q 39.65625 40.375 33.015625 40.375 
z
M 52.59375 71.296875 
L 52.59375 62.3125 
Q 48.875 64.0625 45.09375 64.984375 
Q 41.3125 65.921875 37.59375 65.921875 
Q 27.828125 65.921875 22.671875 59.328125 
Q 17.53125 52.734375 16.796875 39.40625 
Q 19.671875 43.65625 24.015625 45.921875 
Q 28.375 48.1875 33.59375 48.1875 
Q 44.578125 48.1875 50.953125 41.515625 
Q 57.328125 34.859375 57.328125 23.390625 
Q 57.328125 12.15625 50.6875 5.359375 
Q 44.046875 -1.421875 33.015625 -1.421875 
Q 20.359375 -1.421875 13.671875 8.265625 
Q 6.984375 17.96875 6.984375 36.375 
Q 6.984375 53.65625 15.1875 63.9375 
Q 23.390625 74.21875 37.203125 74.21875 
Q 40.921875 74.21875 44.703125 73.484375 
Q 48.484375 72.75 52.59375 71.296875 
z
" id="DejaVuSans-54"/>
      </defs>
      <g style="fill:#555555;" transform="translate(604.894318 375.396917)scale(0.1 -0.1)">
       <use xlink:href="#DejaVuSans-54"/>
       <use x="63.623047" xlink:href="#DejaVuSans-48"/>
       <use x="127.246094" xlink:href="#DejaVuSans-48"/>
      </g>
     </g>
    </g>
    <g id="ytick_14">
     <g id="line2d_87">
      <path clip-path="url(#pfc9ecdced2)" d="M 630.981818 303.223597 
L 1036.8 303.223597 
" style="fill:none;stroke:#ffffff;stroke-linecap:square;stroke-width:0.8;"/>
     </g>
     <g id="line2d_88">
      <g>
       <use style="fill:#555555;stroke:#555555;stroke-width:0.8;" x="630.981818" xlink:href="#m66229def14" y="303.223597"/>
      </g>
     </g>
     <g id="text_48">
      <!-- 800 -->
      <defs>
       <path d="M 31.78125 34.625 
Q 24.75 34.625 20.71875 30.859375 
Q 16.703125 27.09375 16.703125 20.515625 
Q 16.703125 13.921875 20.71875 10.15625 
Q 24.75 6.390625 31.78125 6.390625 
Q 38.8125 6.390625 42.859375 10.171875 
Q 46.921875 13.96875 46.921875 20.515625 
Q 46.921875 27.09375 42.890625 30.859375 
Q 38.875 34.625 31.78125 34.625 
z
M 21.921875 38.8125 
Q 15.578125 40.375 12.03125 44.71875 
Q 8.5 49.078125 8.5 55.328125 
Q 8.5 64.0625 14.71875 69.140625 
Q 20.953125 74.21875 31.78125 74.21875 
Q 42.671875 74.21875 48.875 69.140625 
Q 55.078125 64.0625 55.078125 55.328125 
Q 55.078125 49.078125 51.53125 44.71875 
Q 48 40.375 41.703125 38.8125 
Q 48.828125 37.15625 52.796875 32.3125 
Q 56.78125 27.484375 56.78125 20.515625 
Q 56.78125 9.90625 50.3125 4.234375 
Q 43.84375 -1.421875 31.78125 -1.421875 
Q 19.734375 -1.421875 13.25 4.234375 
Q 6.78125 9.90625 6.78125 20.515625 
Q 6.78125 27.484375 10.78125 32.3125 
Q 14.796875 37.15625 21.921875 38.8125 
z
M 18.3125 54.390625 
Q 18.3125 48.734375 21.84375 45.5625 
Q 25.390625 42.390625 31.78125 42.390625 
Q 38.140625 42.390625 41.71875 45.5625 
Q 45.3125 48.734375 45.3125 54.390625 
Q 45.3125 60.0625 41.71875 63.234375 
Q 38.140625 66.40625 31.78125 66.40625 
Q 25.390625 66.40625 21.84375 63.234375 
Q 18.3125 60.0625 18.3125 54.390625 
z
" id="DejaVuSans-56"/>
      </defs>
      <g style="fill:#555555;" transform="translate(604.894318 307.022816)scale(0.1 -0.1)">
       <use xlink:href="#DejaVuSans-56"/>
       <use x="63.623047" xlink:href="#DejaVuSans-48"/>
       <use x="127.246094" xlink:href="#DejaVuSans-48"/>
      </g>
     </g>
    </g>
    <g id="ytick_15">
     <g id="line2d_89">
      <path clip-path="url(#pfc9ecdced2)" d="M 630.981818 234.849496 
L 1036.8 234.849496 
" style="fill:none;stroke:#ffffff;stroke-linecap:square;stroke-width:0.8;"/>
     </g>
     <g id="line2d_90">
      <g>
       <use style="fill:#555555;stroke:#555555;stroke-width:0.8;" x="630.981818" xlink:href="#m66229def14" y="234.849496"/>
      </g>
     </g>
     <g id="text_49">
      <!-- 1000 -->
      <g style="fill:#555555;" transform="translate(598.531818 238.648715)scale(0.1 -0.1)">
       <use xlink:href="#DejaVuSans-49"/>
       <use x="63.623047" xlink:href="#DejaVuSans-48"/>
       <use x="127.246094" xlink:href="#DejaVuSans-48"/>
       <use x="190.869141" xlink:href="#DejaVuSans-48"/>
      </g>
     </g>
    </g>
    <g id="ytick_16">
     <g id="line2d_91">
      <path clip-path="url(#pfc9ecdced2)" d="M 630.981818 166.475396 
L 1036.8 166.475396 
" style="fill:none;stroke:#ffffff;stroke-linecap:square;stroke-width:0.8;"/>
     </g>
     <g id="line2d_92">
      <g>
       <use style="fill:#555555;stroke:#555555;stroke-width:0.8;" x="630.981818" xlink:href="#m66229def14" y="166.475396"/>
      </g>
     </g>
     <g id="text_50">
      <!-- 1200 -->
      <g style="fill:#555555;" transform="translate(598.531818 170.274614)scale(0.1 -0.1)">
       <use xlink:href="#DejaVuSans-49"/>
       <use x="63.623047" xlink:href="#DejaVuSans-50"/>
       <use x="127.246094" xlink:href="#DejaVuSans-48"/>
       <use x="190.869141" xlink:href="#DejaVuSans-48"/>
      </g>
     </g>
    </g>
    <g id="ytick_17">
     <g id="line2d_93">
      <path clip-path="url(#pfc9ecdced2)" d="M 630.981818 98.101295 
L 1036.8 98.101295 
" style="fill:none;stroke:#ffffff;stroke-linecap:square;stroke-width:0.8;"/>
     </g>
     <g id="line2d_94">
      <g>
       <use style="fill:#555555;stroke:#555555;stroke-width:0.8;" x="630.981818" xlink:href="#m66229def14" y="98.101295"/>
      </g>
     </g>
     <g id="text_51">
      <!-- 1400 -->
      <g style="fill:#555555;" transform="translate(598.531818 101.900514)scale(0.1 -0.1)">
       <use xlink:href="#DejaVuSans-49"/>
       <use x="63.623047" xlink:href="#DejaVuSans-52"/>
       <use x="127.246094" xlink:href="#DejaVuSans-48"/>
       <use x="190.869141" xlink:href="#DejaVuSans-48"/>
      </g>
     </g>
    </g>
    <g id="text_52">
     <!-- Count -->
     <g style="fill:#555555;" transform="translate(592.036193 345.058125)rotate(-90)scale(0.12 -0.12)">
      <use xlink:href="#DejaVuSans-67"/>
      <use x="69.824219" xlink:href="#DejaVuSans-111"/>
      <use x="131.005859" xlink:href="#DejaVuSans-117"/>
      <use x="194.384766" xlink:href="#DejaVuSans-110"/>
      <use x="257.763672" xlink:href="#DejaVuSans-116"/>
     </g>
    </g>
   </g>
   <g id="patch_23">
    <path clip-path="url(#pfc9ecdced2)" d="M 649.428099 576.72 
L 669.370025 576.72 
L 669.370025 101.52 
L 649.428099 101.52 
z
" style="fill:#0000ff;opacity:0.8;"/>
   </g>
   <g id="patch_24">
    <path clip-path="url(#pfc9ecdced2)" d="M 674.355506 576.72 
L 694.297431 576.72 
L 694.297431 113.485468 
L 674.355506 113.485468 
z
" style="fill:#0000ff;opacity:0.8;"/>
   </g>
   <g id="patch_25">
    <path clip-path="url(#pfc9ecdced2)" d="M 699.282913 576.72 
L 719.224838 576.72 
L 719.224838 295.360576 
L 699.282913 295.360576 
z
" style="fill:#0000ff;opacity:0.8;"/>
   </g>
   <g id="patch_26">
    <path clip-path="url(#pfc9ecdced2)" d="M 724.210319 576.72 
L 744.152245 576.72 
L 744.152245 396.896115 
L 724.210319 396.896115 
z
" style="fill:#0000ff;opacity:0.8;"/>
   </g>
   <g id="patch_27">
    <path clip-path="url(#pfc9ecdced2)" d="M 749.137726 576.72 
L 769.079652 576.72 
L 769.079652 416.724604 
L 749.137726 416.724604 
z
" style="fill:#0000ff;opacity:0.8;"/>
   </g>
   <g id="patch_28">
    <path clip-path="url(#pfc9ecdced2)" d="M 774.065133 576.72 
L 794.007058 576.72 
L 794.007058 418.775827 
L 774.065133 418.775827 
z
" style="fill:#0000ff;opacity:0.8;"/>
   </g>
   <g id="patch_29">
    <path clip-path="url(#pfc9ecdced2)" d="M 798.99254 576.72 
L 818.934465 576.72 
L 818.934465 448.860432 
L 798.99254 448.860432 
z
" style="fill:#0000ff;opacity:0.8;"/>
   </g>
   <g id="patch_30">
    <path clip-path="url(#pfc9ecdced2)" d="M 823.919946 576.72 
L 843.861872 576.72 
L 843.861872 489.201151 
L 823.919946 489.201151 
z
" style="fill:#0000ff;opacity:0.8;"/>
   </g>
   <g id="patch_31">
    <path clip-path="url(#pfc9ecdced2)" d="M 848.847353 576.72 
L 868.789279 576.72 
L 868.789279 490.910504 
L 848.847353 490.910504 
z
" style="fill:#0000ff;opacity:0.8;"/>
   </g>
   <g id="patch_32">
    <path clip-path="url(#pfc9ecdced2)" d="M 873.77476 576.72 
L 893.716685 576.72 
L 893.716685 493.303597 
L 873.77476 493.303597 
z
" style="fill:#0000ff;opacity:0.8;"/>
   </g>
   <g id="patch_33">
    <path clip-path="url(#pfc9ecdced2)" d="M 898.702167 576.72 
L 918.644092 576.72 
L 918.644092 494.671079 
L 898.702167 494.671079 
z
" style="fill:#0000ff;opacity:0.8;"/>
   </g>
   <g id="patch_34">
    <path clip-path="url(#pfc9ecdced2)" d="M 923.629573 576.72 
L 943.571499 576.72 
L 943.571499 499.115396 
L 923.629573 499.115396 
z
" style="fill:#0000ff;opacity:0.8;"/>
   </g>
   <g id="patch_35">
    <path clip-path="url(#pfc9ecdced2)" d="M 948.55698 576.72 
L 968.498906 576.72 
L 968.498906 507.320288 
L 948.55698 507.320288 
z
" style="fill:#0000ff;opacity:0.8;"/>
   </g>
   <g id="patch_36">
    <path clip-path="url(#pfc9ecdced2)" d="M 973.484387 576.72 
L 993.426312 576.72 
L 993.426312 517.234532 
L 973.484387 517.234532 
z
" style="fill:#0000ff;opacity:0.8;"/>
   </g>
   <g id="patch_37">
    <path clip-path="url(#pfc9ecdced2)" d="M 998.411794 576.72 
L 1018.353719 576.72 
L 1018.353719 523.388201 
L 998.411794 523.388201 
z
" style="fill:#0000ff;opacity:0.8;"/>
   </g>
   <g id="patch_38">
    <path d="M 630.981818 576.72 
L 630.981818 77.76 
" style="fill:none;stroke:#ffffff;stroke-linecap:square;stroke-linejoin:miter;"/>
   </g>
   <g id="patch_39">
    <path d="M 1036.8 576.72 
L 1036.8 77.76 
" style="fill:none;stroke:#ffffff;stroke-linecap:square;stroke-linejoin:miter;"/>
   </g>
   <g id="patch_40">
    <path d="M 630.981818 576.72 
L 1036.8 576.72 
" style="fill:none;stroke:#ffffff;stroke-linecap:square;stroke-linejoin:miter;"/>
   </g>
   <g id="patch_41">
    <path d="M 630.981818 77.76 
L 1036.8 77.76 
" style="fill:none;stroke:#ffffff;stroke-linecap:square;stroke-linejoin:miter;"/>
   </g>
   <g id="text_53">
    <!-- Negative ID (Lab Comments) -->
    <defs>
     <path d="M 9.8125 72.90625 
L 19.671875 72.90625 
L 19.671875 8.296875 
L 55.171875 8.296875 
L 55.171875 0 
L 9.8125 0 
z
" id="DejaVuSans-76"/>
    </defs>
    <g transform="translate(729.404284 71.76)scale(0.144 -0.144)">
     <use xlink:href="#DejaVuSans-78"/>
     <use x="74.804688" xlink:href="#DejaVuSans-101"/>
     <use x="136.328125" xlink:href="#DejaVuSans-103"/>
     <use x="199.804688" xlink:href="#DejaVuSans-97"/>
     <use x="261.083984" xlink:href="#DejaVuSans-116"/>
     <use x="300.292969" xlink:href="#DejaVuSans-105"/>
     <use x="328.076172" xlink:href="#DejaVuSans-118"/>
     <use x="387.255859" xlink:href="#DejaVuSans-101"/>
     <use x="448.779297" xlink:href="#DejaVuSans-32"/>
     <use x="480.566406" xlink:href="#DejaVuSans-73"/>
     <use x="510.058594" xlink:href="#DejaVuSans-68"/>
     <use x="587.060547" xlink:href="#DejaVuSans-32"/>
     <use x="618.847656" xlink:href="#DejaVuSans-40"/>
     <use x="657.861328" xlink:href="#DejaVuSans-76"/>
     <use x="713.574219" xlink:href="#DejaVuSans-97"/>
     <use x="774.853516" xlink:href="#DejaVuSans-98"/>
     <use x="838.330078" xlink:href="#DejaVuSans-32"/>
     <use x="870.117188" xlink:href="#DejaVuSans-67"/>
     <use x="939.941406" xlink:href="#DejaVuSans-111"/>
     <use x="1001.123047" xlink:href="#DejaVuSans-109"/>
     <use x="1098.535156" xlink:href="#DejaVuSans-109"/>
     <use x="1195.947266" xlink:href="#DejaVuSans-101"/>
     <use x="1257.470703" xlink:href="#DejaVuSans-110"/>
     <use x="1320.849609" xlink:href="#DejaVuSans-116"/>
     <use x="1360.058594" xlink:href="#DejaVuSans-115"/>
     <use x="1412.158203" xlink:href="#DejaVuSans-41"/>
    </g>
   </g>
   <g id="legend_1">
    <g id="patch_42">
     <path d="M 1025.8 90.76 
L 1029.8 90.76 
Q 1031.8 90.76 1031.8 88.76 
L 1031.8 84.76 
Q 1031.8 82.76 1029.8 82.76 
L 1025.8 82.76 
Q 1023.8 82.76 1023.8 84.76 
L 1023.8 88.76 
Q 1023.8 90.76 1025.8 90.76 
z
" style="fill:#e5e5e5;opacity:0.8;stroke:#cccccc;stroke-linejoin:miter;stroke-width:0.5;"/>
    </g>
   </g>
  </g>
  <g id="text_54">
   <!-- Frequency of Common Words -->
   <defs>
    <path d="M 9.8125 72.90625 
L 51.703125 72.90625 
L 51.703125 64.59375 
L 19.671875 64.59375 
L 19.671875 43.109375 
L 48.578125 43.109375 
L 48.578125 34.8125 
L 19.671875 34.8125 
L 19.671875 0 
L 9.8125 0 
z
" id="DejaVuSans-70"/>
    <path d="M 14.796875 27.296875 
Q 14.796875 17.390625 18.875 11.75 
Q 22.953125 6.109375 30.078125 6.109375 
Q 37.203125 6.109375 41.296875 11.75 
Q 45.40625 17.390625 45.40625 27.296875 
Q 45.40625 37.203125 41.296875 42.84375 
Q 37.203125 48.484375 30.078125 48.484375 
Q 22.953125 48.484375 18.875 42.84375 
Q 14.796875 37.203125 14.796875 27.296875 
z
M 45.40625 8.203125 
Q 42.578125 3.328125 38.25 0.953125 
Q 33.9375 -1.421875 27.875 -1.421875 
Q 17.96875 -1.421875 11.734375 6.484375 
Q 5.515625 14.40625 5.515625 27.296875 
Q 5.515625 40.1875 11.734375 48.09375 
Q 17.96875 56 27.875 56 
Q 33.9375 56 38.25 53.625 
Q 42.578125 51.265625 45.40625 46.390625 
L 45.40625 54.6875 
L 54.390625 54.6875 
L 54.390625 -20.796875 
L 45.40625 -20.796875 
z
" id="DejaVuSans-113"/>
   </defs>
   <g transform="translate(457.22125 25.1175)scale(0.16 -0.16)">
    <use xlink:href="#DejaVuSans-70"/>
    <use x="57.410156" xlink:href="#DejaVuSans-114"/>
    <use x="98.492188" xlink:href="#DejaVuSans-101"/>
    <use x="160.015625" xlink:href="#DejaVuSans-113"/>
    <use x="223.492188" xlink:href="#DejaVuSans-117"/>
    <use x="286.871094" xlink:href="#DejaVuSans-101"/>
    <use x="348.394531" xlink:href="#DejaVuSans-110"/>
    <use x="411.773438" xlink:href="#DejaVuSans-99"/>
    <use x="466.753906" xlink:href="#DejaVuSans-121"/>
    <use x="525.933594" xlink:href="#DejaVuSans-32"/>
    <use x="557.720703" xlink:href="#DejaVuSans-111"/>
    <use x="618.902344" xlink:href="#DejaVuSans-102"/>
    <use x="654.107422" xlink:href="#DejaVuSans-32"/>
    <use x="685.894531" xlink:href="#DejaVuSans-67"/>
    <use x="755.71875" xlink:href="#DejaVuSans-111"/>
    <use x="816.900391" xlink:href="#DejaVuSans-109"/>
    <use x="914.3125" xlink:href="#DejaVuSans-109"/>
    <use x="1011.724609" xlink:href="#DejaVuSans-111"/>
    <use x="1072.90625" xlink:href="#DejaVuSans-110"/>
    <use x="1136.285156" xlink:href="#DejaVuSans-32"/>
    <use x="1168.072266" xlink:href="#DejaVuSans-87"/>
    <use x="1266.871094" xlink:href="#DejaVuSans-111"/>
    <use x="1328.052734" xlink:href="#DejaVuSans-114"/>
    <use x="1369.150391" xlink:href="#DejaVuSans-100"/>
    <use x="1432.626953" xlink:href="#DejaVuSans-115"/>
   </g>
  </g>
 </g>
 <defs>
  <clipPath id="pda6c6f2ecf">
   <rect height="498.96" width="405.818182" x="144" y="77.76"/>
  </clipPath>
  <clipPath id="pfc9ecdced2">
   <rect height="498.96" width="405.818182" x="630.981818" y="77.76"/>
  </clipPath>
 </defs>
</svg>
