<?xml version="1.0" encoding="utf-8" standalone="no"?>
<!DOCTYPE svg PUBLIC "-//W3C//DTD SVG 1.1//EN"
  "http://www.w3.org/Graphics/SVG/1.1/DTD/svg11.dtd">
<!-- Created with matplotlib (https://matplotlib.org/) -->
<svg height="648pt" version="1.1" viewBox="0 0 1152 648" width="1152pt" xmlns="http://www.w3.org/2000/svg" xmlns:xlink="http://www.w3.org/1999/xlink">
 <defs>
  <style type="text/css">
*{stroke-linecap:butt;stroke-linejoin:round;white-space:pre;}
  </style>
 </defs>
 <g id="figure_1">
  <g id="patch_1">
   <path d="M 0 648 
L 1152 648 
L 1152 0 
L 0 0 
z
" style="fill:#ffffff;"/>
  </g>
  <g id="axes_1">
   <g id="patch_2">
    <path d="M 144 576.72 
L 549.818182 576.72 
L 549.818182 77.76 
L 144 77.76 
z
" style="fill:#e5e5e5;"/>
   </g>
   <g id="matplotlib.axis_1">
    <g id="xtick_1">
     <g id="line2d_1">
      <path clip-path="url(#p5bfdee8d21)" d="M 172.417244 576.72 
L 172.417244 77.76 
" style="fill:none;stroke:#ffffff;stroke-linecap:square;stroke-width:0.8;"/>
     </g>
     <g id="line2d_2">
      <defs>
       <path d="M 0 0 
L 0 3.5 
" id="m0b1fd5f232" style="stroke:#555555;stroke-width:0.8;"/>
      </defs>
      <g>
       <use style="fill:#555555;stroke:#555555;stroke-width:0.8;" x="172.417244" xlink:href="#m0b1fd5f232" y="576.72"/>
      </g>
     </g>
     <g id="text_1">
      <!-- hornet -->
      <defs>
       <path d="M 54.890625 33.015625 
L 54.890625 0 
L 45.90625 0 
L 45.90625 32.71875 
Q 45.90625 40.484375 42.875 44.328125 
Q 39.84375 48.1875 33.796875 48.1875 
Q 26.515625 48.1875 22.3125 43.546875 
Q 18.109375 38.921875 18.109375 30.90625 
L 18.109375 0 
L 9.078125 0 
L 9.078125 75.984375 
L 18.109375 75.984375 
L 18.109375 46.1875 
Q 21.34375 51.125 25.703125 53.5625 
Q 30.078125 56 35.796875 56 
Q 45.21875 56 50.046875 50.171875 
Q 54.890625 44.34375 54.890625 33.015625 
z
" id="DejaVuSans-104"/>
       <path d="M 30.609375 48.390625 
Q 23.390625 48.390625 19.1875 42.75 
Q 14.984375 37.109375 14.984375 27.296875 
Q 14.984375 17.484375 19.15625 11.84375 
Q 23.34375 6.203125 30.609375 6.203125 
Q 37.796875 6.203125 41.984375 11.859375 
Q 46.1875 17.53125 46.1875 27.296875 
Q 46.1875 37.015625 41.984375 42.703125 
Q 37.796875 48.390625 30.609375 48.390625 
z
M 30.609375 56 
Q 42.328125 56 49.015625 48.375 
Q 55.71875 40.765625 55.71875 27.296875 
Q 55.71875 13.875 49.015625 6.21875 
Q 42.328125 -1.421875 30.609375 -1.421875 
Q 18.84375 -1.421875 12.171875 6.21875 
Q 5.515625 13.875 5.515625 27.296875 
Q 5.515625 40.765625 12.171875 48.375 
Q 18.84375 56 30.609375 56 
z
" id="DejaVuSans-111"/>
       <path d="M 41.109375 46.296875 
Q 39.59375 47.171875 37.8125 47.578125 
Q 36.03125 48 33.890625 48 
Q 26.265625 48 22.1875 43.046875 
Q 18.109375 38.09375 18.109375 28.8125 
L 18.109375 0 
L 9.078125 0 
L 9.078125 54.6875 
L 18.109375 54.6875 
L 18.109375 46.1875 
Q 20.953125 51.171875 25.484375 53.578125 
Q 30.03125 56 36.53125 56 
Q 37.453125 56 38.578125 55.875 
Q 39.703125 55.765625 41.0625 55.515625 
z
" id="DejaVuSans-114"/>
       <path d="M 54.890625 33.015625 
L 54.890625 0 
L 45.90625 0 
L 45.90625 32.71875 
Q 45.90625 40.484375 42.875 44.328125 
Q 39.84375 48.1875 33.796875 48.1875 
Q 26.515625 48.1875 22.3125 43.546875 
Q 18.109375 38.921875 18.109375 30.90625 
L 18.109375 0 
L 9.078125 0 
L 9.078125 54.6875 
L 18.109375 54.6875 
L 18.109375 46.1875 
Q 21.34375 51.125 25.703125 53.5625 
Q 30.078125 56 35.796875 56 
Q 45.21875 56 50.046875 50.171875 
Q 54.890625 44.34375 54.890625 33.015625 
z
" id="DejaVuSans-110"/>
       <path d="M 56.203125 29.59375 
L 56.203125 25.203125 
L 14.890625 25.203125 
Q 15.484375 15.921875 20.484375 11.0625 
Q 25.484375 6.203125 34.421875 6.203125 
Q 39.59375 6.203125 44.453125 7.46875 
Q 49.3125 8.734375 54.109375 11.28125 
L 54.109375 2.78125 
Q 49.265625 0.734375 44.1875 -0.34375 
Q 39.109375 -1.421875 33.890625 -1.421875 
Q 20.796875 -1.421875 13.15625 6.1875 
Q 5.515625 13.8125 5.515625 26.8125 
Q 5.515625 40.234375 12.765625 48.109375 
Q 20.015625 56 32.328125 56 
Q 43.359375 56 49.78125 48.890625 
Q 56.203125 41.796875 56.203125 29.59375 
z
M 47.21875 32.234375 
Q 47.125 39.59375 43.09375 43.984375 
Q 39.0625 48.390625 32.421875 48.390625 
Q 24.90625 48.390625 20.390625 44.140625 
Q 15.875 39.890625 15.1875 32.171875 
z
" id="DejaVuSans-101"/>
       <path d="M 18.3125 70.21875 
L 18.3125 54.6875 
L 36.8125 54.6875 
L 36.8125 47.703125 
L 18.3125 47.703125 
L 18.3125 18.015625 
Q 18.3125 11.328125 20.140625 9.421875 
Q 21.96875 7.515625 27.59375 7.515625 
L 36.8125 7.515625 
L 36.8125 0 
L 27.59375 0 
Q 17.1875 0 13.234375 3.875 
Q 9.28125 7.765625 9.28125 18.015625 
L 9.28125 47.703125 
L 2.6875 47.703125 
L 2.6875 54.6875 
L 9.28125 54.6875 
L 9.28125 70.21875 
z
" id="DejaVuSans-116"/>
      </defs>
      <g style="fill:#555555;" transform="translate(145.818934 610.737667)rotate(-40)scale(0.1 -0.1)">
       <use xlink:href="#DejaVuSans-104"/>
       <use x="63.378906" xlink:href="#DejaVuSans-111"/>
       <use x="124.560547" xlink:href="#DejaVuSans-114"/>
       <use x="165.658203" xlink:href="#DejaVuSans-110"/>
       <use x="229.037109" xlink:href="#DejaVuSans-101"/>
       <use x="290.560547" xlink:href="#DejaVuSans-116"/>
      </g>
     </g>
    </g>
    <g id="xtick_2">
     <g id="line2d_3">
      <path clip-path="url(#p5bfdee8d21)" d="M 197.34465 576.72 
L 197.34465 77.76 
" style="fill:none;stroke:#ffffff;stroke-linecap:square;stroke-width:0.8;"/>
     </g>
     <g id="line2d_4">
      <g>
       <use style="fill:#555555;stroke:#555555;stroke-width:0.8;" x="197.34465" xlink:href="#m0b1fd5f232" y="576.72"/>
      </g>
     </g>
     <g id="text_2">
      <!-- saw -->
      <defs>
       <path d="M 44.28125 53.078125 
L 44.28125 44.578125 
Q 40.484375 46.53125 36.375 47.5 
Q 32.28125 48.484375 27.875 48.484375 
Q 21.1875 48.484375 17.84375 46.4375 
Q 14.5 44.390625 14.5 40.28125 
Q 14.5 37.15625 16.890625 35.375 
Q 19.28125 33.59375 26.515625 31.984375 
L 29.59375 31.296875 
Q 39.15625 29.25 43.1875 25.515625 
Q 47.21875 21.78125 47.21875 15.09375 
Q 47.21875 7.46875 41.1875 3.015625 
Q 35.15625 -1.421875 24.609375 -1.421875 
Q 20.21875 -1.421875 15.453125 -0.5625 
Q 10.6875 0.296875 5.421875 2 
L 5.421875 11.28125 
Q 10.40625 8.6875 15.234375 7.390625 
Q 20.0625 6.109375 24.8125 6.109375 
Q 31.15625 6.109375 34.5625 8.28125 
Q 37.984375 10.453125 37.984375 14.40625 
Q 37.984375 18.0625 35.515625 20.015625 
Q 33.0625 21.96875 24.703125 23.78125 
L 21.578125 24.515625 
Q 13.234375 26.265625 9.515625 29.90625 
Q 5.8125 33.546875 5.8125 39.890625 
Q 5.8125 47.609375 11.28125 51.796875 
Q 16.75 56 26.8125 56 
Q 31.78125 56 36.171875 55.265625 
Q 40.578125 54.546875 44.28125 53.078125 
z
" id="DejaVuSans-115"/>
       <path d="M 34.28125 27.484375 
Q 23.390625 27.484375 19.1875 25 
Q 14.984375 22.515625 14.984375 16.5 
Q 14.984375 11.71875 18.140625 8.90625 
Q 21.296875 6.109375 26.703125 6.109375 
Q 34.1875 6.109375 38.703125 11.40625 
Q 43.21875 16.703125 43.21875 25.484375 
L 43.21875 27.484375 
z
M 52.203125 31.203125 
L 52.203125 0 
L 43.21875 0 
L 43.21875 8.296875 
Q 40.140625 3.328125 35.546875 0.953125 
Q 30.953125 -1.421875 24.3125 -1.421875 
Q 15.921875 -1.421875 10.953125 3.296875 
Q 6 8.015625 6 15.921875 
Q 6 25.140625 12.171875 29.828125 
Q 18.359375 34.515625 30.609375 34.515625 
L 43.21875 34.515625 
L 43.21875 35.40625 
Q 43.21875 41.609375 39.140625 45 
Q 35.0625 48.390625 27.6875 48.390625 
Q 23 48.390625 18.546875 47.265625 
Q 14.109375 46.140625 10.015625 43.890625 
L 10.015625 52.203125 
Q 14.9375 54.109375 19.578125 55.046875 
Q 24.21875 56 28.609375 56 
Q 40.484375 56 46.34375 49.84375 
Q 52.203125 43.703125 52.203125 31.203125 
z
" id="DejaVuSans-97"/>
       <path d="M 4.203125 54.6875 
L 13.1875 54.6875 
L 24.421875 12.015625 
L 35.59375 54.6875 
L 46.1875 54.6875 
L 57.421875 12.015625 
L 68.609375 54.6875 
L 77.59375 54.6875 
L 63.28125 0 
L 52.6875 0 
L 40.921875 44.828125 
L 29.109375 0 
L 18.5 0 
z
" id="DejaVuSans-119"/>
      </defs>
      <g style="fill:#555555;" transform="translate(181.058017 602.085143)rotate(-40)scale(0.1 -0.1)">
       <use xlink:href="#DejaVuSans-115"/>
       <use x="52.099609" xlink:href="#DejaVuSans-97"/>
       <use x="113.378906" xlink:href="#DejaVuSans-119"/>
      </g>
     </g>
    </g>
    <g id="xtick_3">
     <g id="line2d_5">
      <path clip-path="url(#p5bfdee8d21)" d="M 222.272057 576.72 
L 222.272057 77.76 
" style="fill:none;stroke:#ffffff;stroke-linecap:square;stroke-width:0.8;"/>
     </g>
     <g id="line2d_6">
      <g>
       <use style="fill:#555555;stroke:#555555;stroke-width:0.8;" x="222.272057" xlink:href="#m0b1fd5f232" y="576.72"/>
      </g>
     </g>
     <g id="text_3">
      <!-- large -->
      <defs>
       <path d="M 9.421875 75.984375 
L 18.40625 75.984375 
L 18.40625 0 
L 9.421875 0 
z
" id="DejaVuSans-108"/>
       <path d="M 45.40625 27.984375 
Q 45.40625 37.75 41.375 43.109375 
Q 37.359375 48.484375 30.078125 48.484375 
Q 22.859375 48.484375 18.828125 43.109375 
Q 14.796875 37.75 14.796875 27.984375 
Q 14.796875 18.265625 18.828125 12.890625 
Q 22.859375 7.515625 30.078125 7.515625 
Q 37.359375 7.515625 41.375 12.890625 
Q 45.40625 18.265625 45.40625 27.984375 
z
M 54.390625 6.78125 
Q 54.390625 -7.171875 48.1875 -13.984375 
Q 42 -20.796875 29.203125 -20.796875 
Q 24.46875 -20.796875 20.265625 -20.09375 
Q 16.0625 -19.390625 12.109375 -17.921875 
L 12.109375 -9.1875 
Q 16.0625 -11.328125 19.921875 -12.34375 
Q 23.78125 -13.375 27.78125 -13.375 
Q 36.625 -13.375 41.015625 -8.765625 
Q 45.40625 -4.15625 45.40625 5.171875 
L 45.40625 9.625 
Q 42.625 4.78125 38.28125 2.390625 
Q 33.9375 0 27.875 0 
Q 17.828125 0 11.671875 7.65625 
Q 5.515625 15.328125 5.515625 27.984375 
Q 5.515625 40.671875 11.671875 48.328125 
Q 17.828125 56 27.875 56 
Q 33.9375 56 38.28125 53.609375 
Q 42.625 51.21875 45.40625 46.390625 
L 45.40625 54.6875 
L 54.390625 54.6875 
z
" id="DejaVuSans-103"/>
      </defs>
      <g style="fill:#555555;" transform="translate(201.38796 605.942873)rotate(-40)scale(0.1 -0.1)">
       <use xlink:href="#DejaVuSans-108"/>
       <use x="27.783203" xlink:href="#DejaVuSans-97"/>
       <use x="89.0625" xlink:href="#DejaVuSans-114"/>
       <use x="130.160156" xlink:href="#DejaVuSans-103"/>
       <use x="193.636719" xlink:href="#DejaVuSans-101"/>
      </g>
     </g>
    </g>
    <g id="xtick_4">
     <g id="line2d_7">
      <path clip-path="url(#p5bfdee8d21)" d="M 247.199464 576.72 
L 247.199464 77.76 
" style="fill:none;stroke:#ffffff;stroke-linecap:square;stroke-width:0.8;"/>
     </g>
     <g id="line2d_8">
      <g>
       <use style="fill:#555555;stroke:#555555;stroke-width:0.8;" x="247.199464" xlink:href="#m0b1fd5f232" y="576.72"/>
      </g>
     </g>
     <g id="text_4">
      <!-- seen -->
      <g style="fill:#555555;" transform="translate(227.590113 604.873234)rotate(-40)scale(0.1 -0.1)">
       <use xlink:href="#DejaVuSans-115"/>
       <use x="52.099609" xlink:href="#DejaVuSans-101"/>
       <use x="113.623047" xlink:href="#DejaVuSans-101"/>
       <use x="175.146484" xlink:href="#DejaVuSans-110"/>
      </g>
     </g>
    </g>
    <g id="xtick_5">
     <g id="line2d_9">
      <path clip-path="url(#p5bfdee8d21)" d="M 272.126871 576.72 
L 272.126871 77.76 
" style="fill:none;stroke:#ffffff;stroke-linecap:square;stroke-width:0.8;"/>
     </g>
     <g id="line2d_10">
      <g>
       <use style="fill:#555555;stroke:#555555;stroke-width:0.8;" x="272.126871" xlink:href="#m0b1fd5f232" y="576.72"/>
      </g>
     </g>
     <g id="text_5">
      <!-- flew -->
      <defs>
       <path d="M 37.109375 75.984375 
L 37.109375 68.5 
L 28.515625 68.5 
Q 23.6875 68.5 21.796875 66.546875 
Q 19.921875 64.59375 19.921875 59.515625 
L 19.921875 54.6875 
L 34.71875 54.6875 
L 34.71875 47.703125 
L 19.921875 47.703125 
L 19.921875 0 
L 10.890625 0 
L 10.890625 47.703125 
L 2.296875 47.703125 
L 2.296875 54.6875 
L 10.890625 54.6875 
L 10.890625 58.5 
Q 10.890625 67.625 15.140625 71.796875 
Q 19.390625 75.984375 28.609375 75.984375 
z
" id="DejaVuSans-102"/>
      </defs>
      <g style="fill:#555555;" transform="translate(254.986816 602.801248)rotate(-40)scale(0.1 -0.1)">
       <use xlink:href="#DejaVuSans-102"/>
       <use x="35.205078" xlink:href="#DejaVuSans-108"/>
       <use x="62.988281" xlink:href="#DejaVuSans-101"/>
       <use x="124.511719" xlink:href="#DejaVuSans-119"/>
      </g>
     </g>
    </g>
    <g id="xtick_6">
     <g id="line2d_11">
      <path clip-path="url(#p5bfdee8d21)" d="M 297.054277 576.72 
L 297.054277 77.76 
" style="fill:none;stroke:#ffffff;stroke-linecap:square;stroke-width:0.8;"/>
     </g>
     <g id="line2d_12">
      <g>
       <use style="fill:#555555;stroke:#555555;stroke-width:0.8;" x="297.054277" xlink:href="#m0b1fd5f232" y="576.72"/>
      </g>
     </g>
     <g id="text_6">
      <!-- long -->
      <g style="fill:#555555;" transform="translate(279.184086 603.413905)rotate(-40)scale(0.1 -0.1)">
       <use xlink:href="#DejaVuSans-108"/>
       <use x="27.783203" xlink:href="#DejaVuSans-111"/>
       <use x="88.964844" xlink:href="#DejaVuSans-110"/>
       <use x="152.34375" xlink:href="#DejaVuSans-103"/>
      </g>
     </g>
    </g>
    <g id="xtick_7">
     <g id="line2d_13">
      <path clip-path="url(#p5bfdee8d21)" d="M 321.981684 576.72 
L 321.981684 77.76 
" style="fill:none;stroke:#ffffff;stroke-linecap:square;stroke-width:0.8;"/>
     </g>
     <g id="line2d_14">
      <g>
       <use style="fill:#555555;stroke:#555555;stroke-width:0.8;" x="321.981684" xlink:href="#m0b1fd5f232" y="576.72"/>
      </g>
     </g>
     <g id="text_7">
      <!-- orange -->
      <g style="fill:#555555;" transform="translate(293.682516 612.164856)rotate(-40)scale(0.1 -0.1)">
       <use xlink:href="#DejaVuSans-111"/>
       <use x="61.181641" xlink:href="#DejaVuSans-114"/>
       <use x="102.294922" xlink:href="#DejaVuSans-97"/>
       <use x="163.574219" xlink:href="#DejaVuSans-110"/>
       <use x="226.953125" xlink:href="#DejaVuSans-103"/>
       <use x="290.429688" xlink:href="#DejaVuSans-101"/>
      </g>
     </g>
    </g>
    <g id="xtick_8">
     <g id="line2d_15">
      <path clip-path="url(#p5bfdee8d21)" d="M 346.909091 576.72 
L 346.909091 77.76 
" style="fill:none;stroke:#ffffff;stroke-linecap:square;stroke-width:0.8;"/>
     </g>
     <g id="line2d_16">
      <g>
       <use style="fill:#555555;stroke:#555555;stroke-width:0.8;" x="346.909091" xlink:href="#m0b1fd5f232" y="576.72"/>
      </g>
     </g>
     <g id="text_8">
      <!-- one -->
      <g style="fill:#555555;" transform="translate(331.316685 601.502616)rotate(-40)scale(0.1 -0.1)">
       <use xlink:href="#DejaVuSans-111"/>
       <use x="61.181641" xlink:href="#DejaVuSans-110"/>
       <use x="124.560547" xlink:href="#DejaVuSans-101"/>
      </g>
     </g>
    </g>
    <g id="xtick_9">
     <g id="line2d_17">
      <path clip-path="url(#p5bfdee8d21)" d="M 371.836498 576.72 
L 371.836498 77.76 
" style="fill:none;stroke:#ffffff;stroke-linecap:square;stroke-width:0.8;"/>
     </g>
     <g id="line2d_18">
      <g>
       <use style="fill:#555555;stroke:#555555;stroke-width:0.8;" x="371.836498" xlink:href="#m0b1fd5f232" y="576.72"/>
      </g>
     </g>
     <g id="text_9">
      <!-- get -->
      <g style="fill:#555555;" transform="translate(357.919814 600.096519)rotate(-40)scale(0.1 -0.1)">
       <use xlink:href="#DejaVuSans-103"/>
       <use x="63.476562" xlink:href="#DejaVuSans-101"/>
       <use x="125" xlink:href="#DejaVuSans-116"/>
      </g>
     </g>
    </g>
    <g id="xtick_10">
     <g id="line2d_19">
      <path clip-path="url(#p5bfdee8d21)" d="M 396.763904 576.72 
L 396.763904 77.76 
" style="fill:none;stroke:#ffffff;stroke-linecap:square;stroke-width:0.8;"/>
     </g>
     <g id="line2d_20">
      <g>
       <use style="fill:#555555;stroke:#555555;stroke-width:0.8;" x="396.763904" xlink:href="#m0b1fd5f232" y="576.72"/>
      </g>
     </g>
     <g id="text_10">
      <!-- like -->
      <defs>
       <path d="M 9.421875 54.6875 
L 18.40625 54.6875 
L 18.40625 0 
L 9.421875 0 
z
M 9.421875 75.984375 
L 18.40625 75.984375 
L 18.40625 64.59375 
L 9.421875 64.59375 
z
" id="DejaVuSans-105"/>
       <path d="M 9.078125 75.984375 
L 18.109375 75.984375 
L 18.109375 31.109375 
L 44.921875 54.6875 
L 56.390625 54.6875 
L 27.390625 29.109375 
L 57.625 0 
L 45.90625 0 
L 18.109375 26.703125 
L 18.109375 0 
L 9.078125 0 
z
" id="DejaVuSans-107"/>
      </defs>
      <g style="fill:#555555;" transform="translate(382.02492 600.786511)rotate(-40)scale(0.1 -0.1)">
       <use xlink:href="#DejaVuSans-108"/>
       <use x="27.783203" xlink:href="#DejaVuSans-105"/>
       <use x="55.566406" xlink:href="#DejaVuSans-107"/>
       <use x="113.429688" xlink:href="#DejaVuSans-101"/>
      </g>
     </g>
    </g>
    <g id="xtick_11">
     <g id="line2d_21">
      <path clip-path="url(#p5bfdee8d21)" d="M 421.691311 576.72 
L 421.691311 77.76 
" style="fill:none;stroke:#ffffff;stroke-linecap:square;stroke-width:0.8;"/>
     </g>
     <g id="line2d_22">
      <g>
       <use style="fill:#555555;stroke:#555555;stroke-width:0.8;" x="421.691311" xlink:href="#m0b1fd5f232" y="576.72"/>
      </g>
     </g>
     <g id="text_11">
      <!-- bee -->
      <defs>
       <path d="M 48.6875 27.296875 
Q 48.6875 37.203125 44.609375 42.84375 
Q 40.53125 48.484375 33.40625 48.484375 
Q 26.265625 48.484375 22.1875 42.84375 
Q 18.109375 37.203125 18.109375 27.296875 
Q 18.109375 17.390625 22.1875 11.75 
Q 26.265625 6.109375 33.40625 6.109375 
Q 40.53125 6.109375 44.609375 11.75 
Q 48.6875 17.390625 48.6875 27.296875 
z
M 18.109375 46.390625 
Q 20.953125 51.265625 25.265625 53.625 
Q 29.59375 56 35.59375 56 
Q 45.5625 56 51.78125 48.09375 
Q 58.015625 40.1875 58.015625 27.296875 
Q 58.015625 14.40625 51.78125 6.484375 
Q 45.5625 -1.421875 35.59375 -1.421875 
Q 29.59375 -1.421875 25.265625 0.953125 
Q 20.953125 3.328125 18.109375 8.203125 
L 18.109375 0 
L 9.078125 0 
L 9.078125 75.984375 
L 18.109375 75.984375 
z
" id="DejaVuSans-98"/>
      </defs>
      <g style="fill:#555555;" transform="translate(406.064194 601.531743)rotate(-40)scale(0.1 -0.1)">
       <use xlink:href="#DejaVuSans-98"/>
       <use x="63.476562" xlink:href="#DejaVuSans-101"/>
       <use x="125" xlink:href="#DejaVuSans-101"/>
      </g>
     </g>
    </g>
    <g id="xtick_12">
     <g id="line2d_23">
      <path clip-path="url(#p5bfdee8d21)" d="M 446.618718 576.72 
L 446.618718 77.76 
" style="fill:none;stroke:#ffffff;stroke-linecap:square;stroke-width:0.8;"/>
     </g>
     <g id="line2d_24">
      <g>
       <use style="fill:#555555;stroke:#555555;stroke-width:0.8;" x="446.618718" xlink:href="#m0b1fd5f232" y="576.72"/>
      </g>
     </g>
     <g id="text_12">
      <!-- picture -->
      <defs>
       <path d="M 18.109375 8.203125 
L 18.109375 -20.796875 
L 9.078125 -20.796875 
L 9.078125 54.6875 
L 18.109375 54.6875 
L 18.109375 46.390625 
Q 20.953125 51.265625 25.265625 53.625 
Q 29.59375 56 35.59375 56 
Q 45.5625 56 51.78125 48.09375 
Q 58.015625 40.1875 58.015625 27.296875 
Q 58.015625 14.40625 51.78125 6.484375 
Q 45.5625 -1.421875 35.59375 -1.421875 
Q 29.59375 -1.421875 25.265625 0.953125 
Q 20.953125 3.328125 18.109375 8.203125 
z
M 48.6875 27.296875 
Q 48.6875 37.203125 44.609375 42.84375 
Q 40.53125 48.484375 33.40625 48.484375 
Q 26.265625 48.484375 22.1875 42.84375 
Q 18.109375 37.203125 18.109375 27.296875 
Q 18.109375 17.390625 22.1875 11.75 
Q 26.265625 6.109375 33.40625 6.109375 
Q 40.53125 6.109375 44.609375 11.75 
Q 48.6875 17.390625 48.6875 27.296875 
z
" id="DejaVuSans-112"/>
       <path d="M 48.78125 52.59375 
L 48.78125 44.1875 
Q 44.96875 46.296875 41.140625 47.34375 
Q 37.3125 48.390625 33.40625 48.390625 
Q 24.65625 48.390625 19.8125 42.84375 
Q 14.984375 37.3125 14.984375 27.296875 
Q 14.984375 17.28125 19.8125 11.734375 
Q 24.65625 6.203125 33.40625 6.203125 
Q 37.3125 6.203125 41.140625 7.25 
Q 44.96875 8.296875 48.78125 10.40625 
L 48.78125 2.09375 
Q 45.015625 0.34375 40.984375 -0.53125 
Q 36.96875 -1.421875 32.421875 -1.421875 
Q 20.0625 -1.421875 12.78125 6.34375 
Q 5.515625 14.109375 5.515625 27.296875 
Q 5.515625 40.671875 12.859375 48.328125 
Q 20.21875 56 33.015625 56 
Q 37.15625 56 41.109375 55.140625 
Q 45.0625 54.296875 48.78125 52.59375 
z
" id="DejaVuSans-99"/>
       <path d="M 8.5 21.578125 
L 8.5 54.6875 
L 17.484375 54.6875 
L 17.484375 21.921875 
Q 17.484375 14.15625 20.5 10.265625 
Q 23.53125 6.390625 29.59375 6.390625 
Q 36.859375 6.390625 41.078125 11.03125 
Q 45.3125 15.671875 45.3125 23.6875 
L 45.3125 54.6875 
L 54.296875 54.6875 
L 54.296875 0 
L 45.3125 0 
L 45.3125 8.40625 
Q 42.046875 3.421875 37.71875 1 
Q 33.40625 -1.421875 27.6875 -1.421875 
Q 18.265625 -1.421875 13.375 4.4375 
Q 8.5 10.296875 8.5 21.578125 
z
M 31.109375 56 
z
" id="DejaVuSans-117"/>
      </defs>
      <g style="fill:#555555;" transform="translate(418.360246 612.130708)rotate(-40)scale(0.1 -0.1)">
       <use xlink:href="#DejaVuSans-112"/>
       <use x="63.476562" xlink:href="#DejaVuSans-105"/>
       <use x="91.259766" xlink:href="#DejaVuSans-99"/>
       <use x="146.240234" xlink:href="#DejaVuSans-116"/>
       <use x="185.449219" xlink:href="#DejaVuSans-117"/>
       <use x="248.828125" xlink:href="#DejaVuSans-114"/>
       <use x="289.910156" xlink:href="#DejaVuSans-101"/>
      </g>
     </g>
    </g>
    <g id="xtick_13">
     <g id="line2d_25">
      <path clip-path="url(#p5bfdee8d21)" d="M 471.546125 576.72 
L 471.546125 77.76 
" style="fill:none;stroke:#ffffff;stroke-linecap:square;stroke-width:0.8;"/>
     </g>
     <g id="line2d_26">
      <g>
       <use style="fill:#555555;stroke:#555555;stroke-width:0.8;" x="471.546125" xlink:href="#m0b1fd5f232" y="576.72"/>
      </g>
     </g>
     <g id="text_13">
      <!-- black -->
      <g style="fill:#555555;" transform="translate(449.875635 606.602734)rotate(-40)scale(0.1 -0.1)">
       <use xlink:href="#DejaVuSans-98"/>
       <use x="63.476562" xlink:href="#DejaVuSans-108"/>
       <use x="91.259766" xlink:href="#DejaVuSans-97"/>
       <use x="152.539062" xlink:href="#DejaVuSans-99"/>
       <use x="207.519531" xlink:href="#DejaVuSans-107"/>
      </g>
     </g>
    </g>
    <g id="xtick_14">
     <g id="line2d_27">
      <path clip-path="url(#p5bfdee8d21)" d="M 496.473531 576.72 
L 496.473531 77.76 
" style="fill:none;stroke:#ffffff;stroke-linecap:square;stroke-width:0.8;"/>
     </g>
     <g id="line2d_28">
      <g>
       <use style="fill:#555555;stroke:#555555;stroke-width:0.8;" x="496.473531" xlink:href="#m0b1fd5f232" y="576.72"/>
      </g>
     </g>
     <g id="text_14">
      <!-- around -->
      <defs>
       <path d="M 45.40625 46.390625 
L 45.40625 75.984375 
L 54.390625 75.984375 
L 54.390625 0 
L 45.40625 0 
L 45.40625 8.203125 
Q 42.578125 3.328125 38.25 0.953125 
Q 33.9375 -1.421875 27.875 -1.421875 
Q 17.96875 -1.421875 11.734375 6.484375 
Q 5.515625 14.40625 5.515625 27.296875 
Q 5.515625 40.1875 11.734375 48.09375 
Q 17.96875 56 27.875 56 
Q 33.9375 56 38.25 53.625 
Q 42.578125 51.265625 45.40625 46.390625 
z
M 14.796875 27.296875 
Q 14.796875 17.390625 18.875 11.75 
Q 22.953125 6.109375 30.078125 6.109375 
Q 37.203125 6.109375 41.296875 11.75 
Q 45.40625 17.390625 45.40625 27.296875 
Q 45.40625 37.203125 41.296875 42.84375 
Q 37.203125 48.484375 30.078125 48.484375 
Q 22.953125 48.484375 18.875 42.84375 
Q 14.796875 37.203125 14.796875 27.296875 
z
" id="DejaVuSans-100"/>
      </defs>
      <g style="fill:#555555;" transform="translate(468.035518 612.281361)rotate(-40)scale(0.1 -0.1)">
       <use xlink:href="#DejaVuSans-97"/>
       <use x="61.279297" xlink:href="#DejaVuSans-114"/>
       <use x="102.361328" xlink:href="#DejaVuSans-111"/>
       <use x="163.542969" xlink:href="#DejaVuSans-117"/>
       <use x="226.921875" xlink:href="#DejaVuSans-110"/>
       <use x="290.300781" xlink:href="#DejaVuSans-100"/>
      </g>
     </g>
    </g>
    <g id="xtick_15">
     <g id="line2d_29">
      <path clip-path="url(#p5bfdee8d21)" d="M 521.400938 576.72 
L 521.400938 77.76 
" style="fill:none;stroke:#ffffff;stroke-linecap:square;stroke-width:0.8;"/>
     </g>
     <g id="line2d_30">
      <g>
       <use style="fill:#555555;stroke:#555555;stroke-width:0.8;" x="521.400938" xlink:href="#m0b1fd5f232" y="576.72"/>
      </g>
     </g>
     <g id="text_15">
      <!-- flying -->
      <defs>
       <path d="M 32.171875 -5.078125 
Q 28.375 -14.84375 24.75 -17.8125 
Q 21.140625 -20.796875 15.09375 -20.796875 
L 7.90625 -20.796875 
L 7.90625 -13.28125 
L 13.1875 -13.28125 
Q 16.890625 -13.28125 18.9375 -11.515625 
Q 21 -9.765625 23.484375 -3.21875 
L 25.09375 0.875 
L 2.984375 54.6875 
L 12.5 54.6875 
L 29.59375 11.921875 
L 46.6875 54.6875 
L 56.203125 54.6875 
z
" id="DejaVuSans-121"/>
      </defs>
      <g style="fill:#555555;" transform="translate(498.859073 607.333905)rotate(-40)scale(0.1 -0.1)">
       <use xlink:href="#DejaVuSans-102"/>
       <use x="35.205078" xlink:href="#DejaVuSans-108"/>
       <use x="62.988281" xlink:href="#DejaVuSans-121"/>
       <use x="122.167969" xlink:href="#DejaVuSans-105"/>
       <use x="149.951172" xlink:href="#DejaVuSans-110"/>
       <use x="213.330078" xlink:href="#DejaVuSans-103"/>
      </g>
     </g>
    </g>
    <g id="text_16">
     <!-- Word -->
     <defs>
      <path d="M 3.328125 72.90625 
L 13.28125 72.90625 
L 28.609375 11.28125 
L 43.890625 72.90625 
L 54.984375 72.90625 
L 70.3125 11.28125 
L 85.59375 72.90625 
L 95.609375 72.90625 
L 77.296875 0 
L 64.890625 0 
L 49.515625 63.28125 
L 33.984375 0 
L 21.578125 0 
z
" id="DejaVuSans-87"/>
     </defs>
     <g style="fill:#555555;" transform="translate(331.035341 626.992619)scale(0.12 -0.12)">
      <use xlink:href="#DejaVuSans-87"/>
      <use x="98.798828" xlink:href="#DejaVuSans-111"/>
      <use x="159.980469" xlink:href="#DejaVuSans-114"/>
      <use x="201.078125" xlink:href="#DejaVuSans-100"/>
     </g>
    </g>
   </g>
   <g id="matplotlib.axis_2">
    <g id="ytick_1">
     <g id="line2d_31">
      <path clip-path="url(#p5bfdee8d21)" d="M 144 576.72 
L 549.818182 576.72 
" style="fill:none;stroke:#ffffff;stroke-linecap:square;stroke-width:0.8;"/>
     </g>
     <g id="line2d_32">
      <defs>
       <path d="M 0 0 
L -3.5 0 
" id="me4cd3f9a6e" style="stroke:#555555;stroke-width:0.8;"/>
      </defs>
      <g>
       <use style="fill:#555555;stroke:#555555;stroke-width:0.8;" x="144" xlink:href="#me4cd3f9a6e" y="576.72"/>
      </g>
     </g>
     <g id="text_17">
      <!-- 0 -->
      <defs>
       <path d="M 31.78125 66.40625 
Q 24.171875 66.40625 20.328125 58.90625 
Q 16.5 51.421875 16.5 36.375 
Q 16.5 21.390625 20.328125 13.890625 
Q 24.171875 6.390625 31.78125 6.390625 
Q 39.453125 6.390625 43.28125 13.890625 
Q 47.125 21.390625 47.125 36.375 
Q 47.125 51.421875 43.28125 58.90625 
Q 39.453125 66.40625 31.78125 66.40625 
z
M 31.78125 74.21875 
Q 44.046875 74.21875 50.515625 64.515625 
Q 56.984375 54.828125 56.984375 36.375 
Q 56.984375 17.96875 50.515625 8.265625 
Q 44.046875 -1.421875 31.78125 -1.421875 
Q 19.53125 -1.421875 13.0625 8.265625 
Q 6.59375 17.96875 6.59375 36.375 
Q 6.59375 54.828125 13.0625 64.515625 
Q 19.53125 74.21875 31.78125 74.21875 
z
" id="DejaVuSans-48"/>
      </defs>
      <g style="fill:#555555;" transform="translate(130.6375 580.519219)scale(0.1 -0.1)">
       <use xlink:href="#DejaVuSans-48"/>
      </g>
     </g>
    </g>
    <g id="ytick_2">
     <g id="line2d_33">
      <path clip-path="url(#p5bfdee8d21)" d="M 144 514.845 
L 549.818182 514.845 
" style="fill:none;stroke:#ffffff;stroke-linecap:square;stroke-width:0.8;"/>
     </g>
     <g id="line2d_34">
      <g>
       <use style="fill:#555555;stroke:#555555;stroke-width:0.8;" x="144" xlink:href="#me4cd3f9a6e" y="514.845"/>
      </g>
     </g>
     <g id="text_18">
      <!-- 100 -->
      <defs>
       <path d="M 12.40625 8.296875 
L 28.515625 8.296875 
L 28.515625 63.921875 
L 10.984375 60.40625 
L 10.984375 69.390625 
L 28.421875 72.90625 
L 38.28125 72.90625 
L 38.28125 8.296875 
L 54.390625 8.296875 
L 54.390625 0 
L 12.40625 0 
z
" id="DejaVuSans-49"/>
      </defs>
      <g style="fill:#555555;" transform="translate(117.9125 518.644219)scale(0.1 -0.1)">
       <use xlink:href="#DejaVuSans-49"/>
       <use x="63.623047" xlink:href="#DejaVuSans-48"/>
       <use x="127.246094" xlink:href="#DejaVuSans-48"/>
      </g>
     </g>
    </g>
    <g id="ytick_3">
     <g id="line2d_35">
      <path clip-path="url(#p5bfdee8d21)" d="M 144 452.97 
L 549.818182 452.97 
" style="fill:none;stroke:#ffffff;stroke-linecap:square;stroke-width:0.8;"/>
     </g>
     <g id="line2d_36">
      <g>
       <use style="fill:#555555;stroke:#555555;stroke-width:0.8;" x="144" xlink:href="#me4cd3f9a6e" y="452.97"/>
      </g>
     </g>
     <g id="text_19">
      <!-- 200 -->
      <defs>
       <path d="M 19.1875 8.296875 
L 53.609375 8.296875 
L 53.609375 0 
L 7.328125 0 
L 7.328125 8.296875 
Q 12.9375 14.109375 22.625 23.890625 
Q 32.328125 33.6875 34.8125 36.53125 
Q 39.546875 41.84375 41.421875 45.53125 
Q 43.3125 49.21875 43.3125 52.78125 
Q 43.3125 58.59375 39.234375 62.25 
Q 35.15625 65.921875 28.609375 65.921875 
Q 23.96875 65.921875 18.8125 64.3125 
Q 13.671875 62.703125 7.8125 59.421875 
L 7.8125 69.390625 
Q 13.765625 71.78125 18.9375 73 
Q 24.125 74.21875 28.421875 74.21875 
Q 39.75 74.21875 46.484375 68.546875 
Q 53.21875 62.890625 53.21875 53.421875 
Q 53.21875 48.921875 51.53125 44.890625 
Q 49.859375 40.875 45.40625 35.40625 
Q 44.1875 33.984375 37.640625 27.21875 
Q 31.109375 20.453125 19.1875 8.296875 
z
" id="DejaVuSans-50"/>
      </defs>
      <g style="fill:#555555;" transform="translate(117.9125 456.769219)scale(0.1 -0.1)">
       <use xlink:href="#DejaVuSans-50"/>
       <use x="63.623047" xlink:href="#DejaVuSans-48"/>
       <use x="127.246094" xlink:href="#DejaVuSans-48"/>
      </g>
     </g>
    </g>
    <g id="ytick_4">
     <g id="line2d_37">
      <path clip-path="url(#p5bfdee8d21)" d="M 144 391.095 
L 549.818182 391.095 
" style="fill:none;stroke:#ffffff;stroke-linecap:square;stroke-width:0.8;"/>
     </g>
     <g id="line2d_38">
      <g>
       <use style="fill:#555555;stroke:#555555;stroke-width:0.8;" x="144" xlink:href="#me4cd3f9a6e" y="391.095"/>
      </g>
     </g>
     <g id="text_20">
      <!-- 300 -->
      <defs>
       <path d="M 40.578125 39.3125 
Q 47.65625 37.796875 51.625 33 
Q 55.609375 28.21875 55.609375 21.1875 
Q 55.609375 10.40625 48.1875 4.484375 
Q 40.765625 -1.421875 27.09375 -1.421875 
Q 22.515625 -1.421875 17.65625 -0.515625 
Q 12.796875 0.390625 7.625 2.203125 
L 7.625 11.71875 
Q 11.71875 9.328125 16.59375 8.109375 
Q 21.484375 6.890625 26.8125 6.890625 
Q 36.078125 6.890625 40.9375 10.546875 
Q 45.796875 14.203125 45.796875 21.1875 
Q 45.796875 27.640625 41.28125 31.265625 
Q 36.765625 34.90625 28.71875 34.90625 
L 20.21875 34.90625 
L 20.21875 43.015625 
L 29.109375 43.015625 
Q 36.375 43.015625 40.234375 45.921875 
Q 44.09375 48.828125 44.09375 54.296875 
Q 44.09375 59.90625 40.109375 62.90625 
Q 36.140625 65.921875 28.71875 65.921875 
Q 24.65625 65.921875 20.015625 65.03125 
Q 15.375 64.15625 9.8125 62.3125 
L 9.8125 71.09375 
Q 15.4375 72.65625 20.34375 73.4375 
Q 25.25 74.21875 29.59375 74.21875 
Q 40.828125 74.21875 47.359375 69.109375 
Q 53.90625 64.015625 53.90625 55.328125 
Q 53.90625 49.265625 50.4375 45.09375 
Q 46.96875 40.921875 40.578125 39.3125 
z
" id="DejaVuSans-51"/>
      </defs>
      <g style="fill:#555555;" transform="translate(117.9125 394.894219)scale(0.1 -0.1)">
       <use xlink:href="#DejaVuSans-51"/>
       <use x="63.623047" xlink:href="#DejaVuSans-48"/>
       <use x="127.246094" xlink:href="#DejaVuSans-48"/>
      </g>
     </g>
    </g>
    <g id="ytick_5">
     <g id="line2d_39">
      <path clip-path="url(#p5bfdee8d21)" d="M 144 329.22 
L 549.818182 329.22 
" style="fill:none;stroke:#ffffff;stroke-linecap:square;stroke-width:0.8;"/>
     </g>
     <g id="line2d_40">
      <g>
       <use style="fill:#555555;stroke:#555555;stroke-width:0.8;" x="144" xlink:href="#me4cd3f9a6e" y="329.22"/>
      </g>
     </g>
     <g id="text_21">
      <!-- 400 -->
      <defs>
       <path d="M 37.796875 64.3125 
L 12.890625 25.390625 
L 37.796875 25.390625 
z
M 35.203125 72.90625 
L 47.609375 72.90625 
L 47.609375 25.390625 
L 58.015625 25.390625 
L 58.015625 17.1875 
L 47.609375 17.1875 
L 47.609375 0 
L 37.796875 0 
L 37.796875 17.1875 
L 4.890625 17.1875 
L 4.890625 26.703125 
z
" id="DejaVuSans-52"/>
      </defs>
      <g style="fill:#555555;" transform="translate(117.9125 333.019219)scale(0.1 -0.1)">
       <use xlink:href="#DejaVuSans-52"/>
       <use x="63.623047" xlink:href="#DejaVuSans-48"/>
       <use x="127.246094" xlink:href="#DejaVuSans-48"/>
      </g>
     </g>
    </g>
    <g id="ytick_6">
     <g id="line2d_41">
      <path clip-path="url(#p5bfdee8d21)" d="M 144 267.345 
L 549.818182 267.345 
" style="fill:none;stroke:#ffffff;stroke-linecap:square;stroke-width:0.8;"/>
     </g>
     <g id="line2d_42">
      <g>
       <use style="fill:#555555;stroke:#555555;stroke-width:0.8;" x="144" xlink:href="#me4cd3f9a6e" y="267.345"/>
      </g>
     </g>
     <g id="text_22">
      <!-- 500 -->
      <defs>
       <path d="M 10.796875 72.90625 
L 49.515625 72.90625 
L 49.515625 64.59375 
L 19.828125 64.59375 
L 19.828125 46.734375 
Q 21.96875 47.46875 24.109375 47.828125 
Q 26.265625 48.1875 28.421875 48.1875 
Q 40.625 48.1875 47.75 41.5 
Q 54.890625 34.8125 54.890625 23.390625 
Q 54.890625 11.625 47.5625 5.09375 
Q 40.234375 -1.421875 26.90625 -1.421875 
Q 22.3125 -1.421875 17.546875 -0.640625 
Q 12.796875 0.140625 7.71875 1.703125 
L 7.71875 11.625 
Q 12.109375 9.234375 16.796875 8.0625 
Q 21.484375 6.890625 26.703125 6.890625 
Q 35.15625 6.890625 40.078125 11.328125 
Q 45.015625 15.765625 45.015625 23.390625 
Q 45.015625 31 40.078125 35.4375 
Q 35.15625 39.890625 26.703125 39.890625 
Q 22.75 39.890625 18.8125 39.015625 
Q 14.890625 38.140625 10.796875 36.28125 
z
" id="DejaVuSans-53"/>
      </defs>
      <g style="fill:#555555;" transform="translate(117.9125 271.144219)scale(0.1 -0.1)">
       <use xlink:href="#DejaVuSans-53"/>
       <use x="63.623047" xlink:href="#DejaVuSans-48"/>
       <use x="127.246094" xlink:href="#DejaVuSans-48"/>
      </g>
     </g>
    </g>
    <g id="ytick_7">
     <g id="line2d_43">
      <path clip-path="url(#p5bfdee8d21)" d="M 144 205.47 
L 549.818182 205.47 
" style="fill:none;stroke:#ffffff;stroke-linecap:square;stroke-width:0.8;"/>
     </g>
     <g id="line2d_44">
      <g>
       <use style="fill:#555555;stroke:#555555;stroke-width:0.8;" x="144" xlink:href="#me4cd3f9a6e" y="205.47"/>
      </g>
     </g>
     <g id="text_23">
      <!-- 600 -->
      <defs>
       <path d="M 33.015625 40.375 
Q 26.375 40.375 22.484375 35.828125 
Q 18.609375 31.296875 18.609375 23.390625 
Q 18.609375 15.53125 22.484375 10.953125 
Q 26.375 6.390625 33.015625 6.390625 
Q 39.65625 6.390625 43.53125 10.953125 
Q 47.40625 15.53125 47.40625 23.390625 
Q 47.40625 31.296875 43.53125 35.828125 
Q 39.65625 40.375 33.015625 40.375 
z
M 52.59375 71.296875 
L 52.59375 62.3125 
Q 48.875 64.0625 45.09375 64.984375 
Q 41.3125 65.921875 37.59375 65.921875 
Q 27.828125 65.921875 22.671875 59.328125 
Q 17.53125 52.734375 16.796875 39.40625 
Q 19.671875 43.65625 24.015625 45.921875 
Q 28.375 48.1875 33.59375 48.1875 
Q 44.578125 48.1875 50.953125 41.515625 
Q 57.328125 34.859375 57.328125 23.390625 
Q 57.328125 12.15625 50.6875 5.359375 
Q 44.046875 -1.421875 33.015625 -1.421875 
Q 20.359375 -1.421875 13.671875 8.265625 
Q 6.984375 17.96875 6.984375 36.375 
Q 6.984375 53.65625 15.1875 63.9375 
Q 23.390625 74.21875 37.203125 74.21875 
Q 40.921875 74.21875 44.703125 73.484375 
Q 48.484375 72.75 52.59375 71.296875 
z
" id="DejaVuSans-54"/>
      </defs>
      <g style="fill:#555555;" transform="translate(117.9125 209.269219)scale(0.1 -0.1)">
       <use xlink:href="#DejaVuSans-54"/>
       <use x="63.623047" xlink:href="#DejaVuSans-48"/>
       <use x="127.246094" xlink:href="#DejaVuSans-48"/>
      </g>
     </g>
    </g>
    <g id="ytick_8">
     <g id="line2d_45">
      <path clip-path="url(#p5bfdee8d21)" d="M 144 143.595 
L 549.818182 143.595 
" style="fill:none;stroke:#ffffff;stroke-linecap:square;stroke-width:0.8;"/>
     </g>
     <g id="line2d_46">
      <g>
       <use style="fill:#555555;stroke:#555555;stroke-width:0.8;" x="144" xlink:href="#me4cd3f9a6e" y="143.595"/>
      </g>
     </g>
     <g id="text_24">
      <!-- 700 -->
      <defs>
       <path d="M 8.203125 72.90625 
L 55.078125 72.90625 
L 55.078125 68.703125 
L 28.609375 0 
L 18.3125 0 
L 43.21875 64.59375 
L 8.203125 64.59375 
z
" id="DejaVuSans-55"/>
      </defs>
      <g style="fill:#555555;" transform="translate(117.9125 147.394219)scale(0.1 -0.1)">
       <use xlink:href="#DejaVuSans-55"/>
       <use x="63.623047" xlink:href="#DejaVuSans-48"/>
       <use x="127.246094" xlink:href="#DejaVuSans-48"/>
      </g>
     </g>
    </g>
    <g id="ytick_9">
     <g id="line2d_47">
      <path clip-path="url(#p5bfdee8d21)" d="M 144 81.72 
L 549.818182 81.72 
" style="fill:none;stroke:#ffffff;stroke-linecap:square;stroke-width:0.8;"/>
     </g>
     <g id="line2d_48">
      <g>
       <use style="fill:#555555;stroke:#555555;stroke-width:0.8;" x="144" xlink:href="#me4cd3f9a6e" y="81.72"/>
      </g>
     </g>
     <g id="text_25">
      <!-- 800 -->
      <defs>
       <path d="M 31.78125 34.625 
Q 24.75 34.625 20.71875 30.859375 
Q 16.703125 27.09375 16.703125 20.515625 
Q 16.703125 13.921875 20.71875 10.15625 
Q 24.75 6.390625 31.78125 6.390625 
Q 38.8125 6.390625 42.859375 10.171875 
Q 46.921875 13.96875 46.921875 20.515625 
Q 46.921875 27.09375 42.890625 30.859375 
Q 38.875 34.625 31.78125 34.625 
z
M 21.921875 38.8125 
Q 15.578125 40.375 12.03125 44.71875 
Q 8.5 49.078125 8.5 55.328125 
Q 8.5 64.0625 14.71875 69.140625 
Q 20.953125 74.21875 31.78125 74.21875 
Q 42.671875 74.21875 48.875 69.140625 
Q 55.078125 64.0625 55.078125 55.328125 
Q 55.078125 49.078125 51.53125 44.71875 
Q 48 40.375 41.703125 38.8125 
Q 48.828125 37.15625 52.796875 32.3125 
Q 56.78125 27.484375 56.78125 20.515625 
Q 56.78125 9.90625 50.3125 4.234375 
Q 43.84375 -1.421875 31.78125 -1.421875 
Q 19.734375 -1.421875 13.25 4.234375 
Q 6.78125 9.90625 6.78125 20.515625 
Q 6.78125 27.484375 10.78125 32.3125 
Q 14.796875 37.15625 21.921875 38.8125 
z
M 18.3125 54.390625 
Q 18.3125 48.734375 21.84375 45.5625 
Q 25.390625 42.390625 31.78125 42.390625 
Q 38.140625 42.390625 41.71875 45.5625 
Q 45.3125 48.734375 45.3125 54.390625 
Q 45.3125 60.0625 41.71875 63.234375 
Q 38.140625 66.40625 31.78125 66.40625 
Q 25.390625 66.40625 21.84375 63.234375 
Q 18.3125 60.0625 18.3125 54.390625 
z
" id="DejaVuSans-56"/>
      </defs>
      <g style="fill:#555555;" transform="translate(117.9125 85.519219)scale(0.1 -0.1)">
       <use xlink:href="#DejaVuSans-56"/>
       <use x="63.623047" xlink:href="#DejaVuSans-48"/>
       <use x="127.246094" xlink:href="#DejaVuSans-48"/>
      </g>
     </g>
    </g>
    <g id="text_26">
     <!-- Count -->
     <defs>
      <path d="M 64.40625 67.28125 
L 64.40625 56.890625 
Q 59.421875 61.53125 53.78125 63.8125 
Q 48.140625 66.109375 41.796875 66.109375 
Q 29.296875 66.109375 22.65625 58.46875 
Q 16.015625 50.828125 16.015625 36.375 
Q 16.015625 21.96875 22.65625 14.328125 
Q 29.296875 6.6875 41.796875 6.6875 
Q 48.140625 6.6875 53.78125 8.984375 
Q 59.421875 11.28125 64.40625 15.921875 
L 64.40625 5.609375 
Q 59.234375 2.09375 53.4375 0.328125 
Q 47.65625 -1.421875 41.21875 -1.421875 
Q 24.65625 -1.421875 15.125 8.703125 
Q 5.609375 18.84375 5.609375 36.375 
Q 5.609375 53.953125 15.125 64.078125 
Q 24.65625 74.21875 41.21875 74.21875 
Q 47.75 74.21875 53.53125 72.484375 
Q 59.328125 70.75 64.40625 67.28125 
z
" id="DejaVuSans-67"/>
     </defs>
     <g style="fill:#555555;" transform="translate(111.416875 345.058125)rotate(-90)scale(0.12 -0.12)">
      <use xlink:href="#DejaVuSans-67"/>
      <use x="69.824219" xlink:href="#DejaVuSans-111"/>
      <use x="131.005859" xlink:href="#DejaVuSans-117"/>
      <use x="194.384766" xlink:href="#DejaVuSans-110"/>
      <use x="257.763672" xlink:href="#DejaVuSans-116"/>
     </g>
    </g>
   </g>
   <g id="patch_3">
    <path clip-path="url(#p5bfdee8d21)" d="M 162.446281 576.72 
L 182.388206 576.72 
L 182.388206 101.52 
L 162.446281 101.52 
z
" style="fill:#e377c2;opacity:0.8;"/>
   </g>
   <g id="patch_4">
    <path clip-path="url(#p5bfdee8d21)" d="M 187.373688 576.72 
L 207.315613 576.72 
L 207.315613 256.82625 
L 187.373688 256.82625 
z
" style="fill:#e377c2;opacity:0.8;"/>
   </g>
   <g id="patch_5">
    <path clip-path="url(#p5bfdee8d21)" d="M 212.301094 576.72 
L 232.24302 576.72 
L 232.24302 271.67625 
L 212.301094 271.67625 
z
" style="fill:#e377c2;opacity:0.8;"/>
   </g>
   <g id="patch_6">
    <path clip-path="url(#p5bfdee8d21)" d="M 237.228501 576.72 
L 257.170427 576.72 
L 257.170427 308.80125 
L 237.228501 308.80125 
z
" style="fill:#e377c2;opacity:0.8;"/>
   </g>
   <g id="patch_7">
    <path clip-path="url(#p5bfdee8d21)" d="M 262.155908 576.72 
L 282.097833 576.72 
L 282.097833 341.595 
L 262.155908 341.595 
z
" style="fill:#e377c2;opacity:0.8;"/>
   </g>
   <g id="patch_8">
    <path clip-path="url(#p5bfdee8d21)" d="M 287.083315 576.72 
L 307.02524 576.72 
L 307.02524 351.495 
L 287.083315 351.495 
z
" style="fill:#e377c2;opacity:0.8;"/>
   </g>
   <g id="patch_9">
    <path clip-path="url(#p5bfdee8d21)" d="M 312.010721 576.72 
L 331.952647 576.72 
L 331.952647 358.92 
L 312.010721 358.92 
z
" style="fill:#e377c2;opacity:0.8;"/>
   </g>
   <g id="patch_10">
    <path clip-path="url(#p5bfdee8d21)" d="M 336.938128 576.72 
L 356.880054 576.72 
L 356.880054 360.1575 
L 336.938128 360.1575 
z
" style="fill:#e377c2;opacity:0.8;"/>
   </g>
   <g id="patch_11">
    <path clip-path="url(#p5bfdee8d21)" d="M 361.865535 576.72 
L 381.80746 576.72 
L 381.80746 375.0075 
L 361.865535 375.0075 
z
" style="fill:#e377c2;opacity:0.8;"/>
   </g>
   <g id="patch_12">
    <path clip-path="url(#p5bfdee8d21)" d="M 386.792942 576.72 
L 406.734867 576.72 
L 406.734867 394.8075 
L 386.792942 394.8075 
z
" style="fill:#e377c2;opacity:0.8;"/>
   </g>
   <g id="patch_13">
    <path clip-path="url(#p5bfdee8d21)" d="M 411.720348 576.72 
L 431.662274 576.72 
L 431.662274 396.045 
L 411.720348 396.045 
z
" style="fill:#e377c2;opacity:0.8;"/>
   </g>
   <g id="patch_14">
    <path clip-path="url(#p5bfdee8d21)" d="M 436.647755 576.72 
L 456.589681 576.72 
L 456.589681 405.945 
L 436.647755 405.945 
z
" style="fill:#e377c2;opacity:0.8;"/>
   </g>
   <g id="patch_15">
    <path clip-path="url(#p5bfdee8d21)" d="M 461.575162 576.72 
L 481.517087 576.72 
L 481.517087 416.46375 
L 461.575162 416.46375 
z
" style="fill:#e377c2;opacity:0.8;"/>
   </g>
   <g id="patch_16">
    <path clip-path="url(#p5bfdee8d21)" d="M 486.502569 576.72 
L 506.444494 576.72 
L 506.444494 425.12625 
L 486.502569 425.12625 
z
" style="fill:#e377c2;opacity:0.8;"/>
   </g>
   <g id="patch_17">
    <path clip-path="url(#p5bfdee8d21)" d="M 511.429975 576.72 
L 531.371901 576.72 
L 531.371901 428.83875 
L 511.429975 428.83875 
z
" style="fill:#e377c2;opacity:0.8;"/>
   </g>
   <g id="patch_18">
    <path d="M 144 576.72 
L 144 77.76 
" style="fill:none;stroke:#ffffff;stroke-linecap:square;stroke-linejoin:miter;"/>
   </g>
   <g id="patch_19">
    <path d="M 549.818182 576.72 
L 549.818182 77.76 
" style="fill:none;stroke:#ffffff;stroke-linecap:square;stroke-linejoin:miter;"/>
   </g>
   <g id="patch_20">
    <path d="M 144 576.72 
L 549.818182 576.72 
" style="fill:none;stroke:#ffffff;stroke-linecap:square;stroke-linejoin:miter;"/>
   </g>
   <g id="patch_21">
    <path d="M 144 77.76 
L 549.818182 77.76 
" style="fill:none;stroke:#ffffff;stroke-linecap:square;stroke-linejoin:miter;"/>
   </g>
   <g id="text_27">
    <!-- Unverified (User Comments) -->
    <defs>
     <path d="M 8.6875 72.90625 
L 18.609375 72.90625 
L 18.609375 28.609375 
Q 18.609375 16.890625 22.84375 11.734375 
Q 27.09375 6.59375 36.625 6.59375 
Q 46.09375 6.59375 50.34375 11.734375 
Q 54.59375 16.890625 54.59375 28.609375 
L 54.59375 72.90625 
L 64.5 72.90625 
L 64.5 27.390625 
Q 64.5 13.140625 57.4375 5.859375 
Q 50.390625 -1.421875 36.625 -1.421875 
Q 22.796875 -1.421875 15.734375 5.859375 
Q 8.6875 13.140625 8.6875 27.390625 
z
" id="DejaVuSans-85"/>
     <path d="M 2.984375 54.6875 
L 12.5 54.6875 
L 29.59375 8.796875 
L 46.6875 54.6875 
L 56.203125 54.6875 
L 35.6875 0 
L 23.484375 0 
z
" id="DejaVuSans-118"/>
     <path id="DejaVuSans-32"/>
     <path d="M 31 75.875 
Q 24.46875 64.65625 21.28125 53.65625 
Q 18.109375 42.671875 18.109375 31.390625 
Q 18.109375 20.125 21.3125 9.0625 
Q 24.515625 -2 31 -13.1875 
L 23.1875 -13.1875 
Q 15.875 -1.703125 12.234375 9.375 
Q 8.59375 20.453125 8.59375 31.390625 
Q 8.59375 42.28125 12.203125 53.3125 
Q 15.828125 64.359375 23.1875 75.875 
z
" id="DejaVuSans-40"/>
     <path d="M 52 44.1875 
Q 55.375 50.25 60.0625 53.125 
Q 64.75 56 71.09375 56 
Q 79.640625 56 84.28125 50.015625 
Q 88.921875 44.046875 88.921875 33.015625 
L 88.921875 0 
L 79.890625 0 
L 79.890625 32.71875 
Q 79.890625 40.578125 77.09375 44.375 
Q 74.3125 48.1875 68.609375 48.1875 
Q 61.625 48.1875 57.5625 43.546875 
Q 53.515625 38.921875 53.515625 30.90625 
L 53.515625 0 
L 44.484375 0 
L 44.484375 32.71875 
Q 44.484375 40.625 41.703125 44.40625 
Q 38.921875 48.1875 33.109375 48.1875 
Q 26.21875 48.1875 22.15625 43.53125 
Q 18.109375 38.875 18.109375 30.90625 
L 18.109375 0 
L 9.078125 0 
L 9.078125 54.6875 
L 18.109375 54.6875 
L 18.109375 46.1875 
Q 21.1875 51.21875 25.484375 53.609375 
Q 29.78125 56 35.6875 56 
Q 41.65625 56 45.828125 52.96875 
Q 50 49.953125 52 44.1875 
z
" id="DejaVuSans-109"/>
     <path d="M 8.015625 75.875 
L 15.828125 75.875 
Q 23.140625 64.359375 26.78125 53.3125 
Q 30.421875 42.28125 30.421875 31.390625 
Q 30.421875 20.453125 26.78125 9.375 
Q 23.140625 -1.703125 15.828125 -13.1875 
L 8.015625 -13.1875 
Q 14.5 -2 17.703125 9.0625 
Q 20.90625 20.125 20.90625 31.390625 
Q 20.90625 42.671875 17.703125 53.65625 
Q 14.5 64.65625 8.015625 75.875 
z
" id="DejaVuSans-41"/>
    </defs>
    <g transform="translate(244.257341 71.76)scale(0.144 -0.144)">
     <use xlink:href="#DejaVuSans-85"/>
     <use x="73.193359" xlink:href="#DejaVuSans-110"/>
     <use x="136.572266" xlink:href="#DejaVuSans-118"/>
     <use x="195.751953" xlink:href="#DejaVuSans-101"/>
     <use x="257.275391" xlink:href="#DejaVuSans-114"/>
     <use x="298.388672" xlink:href="#DejaVuSans-105"/>
     <use x="326.171875" xlink:href="#DejaVuSans-102"/>
     <use x="361.376953" xlink:href="#DejaVuSans-105"/>
     <use x="389.160156" xlink:href="#DejaVuSans-101"/>
     <use x="450.683594" xlink:href="#DejaVuSans-100"/>
     <use x="514.160156" xlink:href="#DejaVuSans-32"/>
     <use x="545.947266" xlink:href="#DejaVuSans-40"/>
     <use x="584.960938" xlink:href="#DejaVuSans-85"/>
     <use x="658.154297" xlink:href="#DejaVuSans-115"/>
     <use x="710.253906" xlink:href="#DejaVuSans-101"/>
     <use x="771.777344" xlink:href="#DejaVuSans-114"/>
     <use x="812.890625" xlink:href="#DejaVuSans-32"/>
     <use x="844.677734" xlink:href="#DejaVuSans-67"/>
     <use x="914.501953" xlink:href="#DejaVuSans-111"/>
     <use x="975.683594" xlink:href="#DejaVuSans-109"/>
     <use x="1073.095703" xlink:href="#DejaVuSans-109"/>
     <use x="1170.507812" xlink:href="#DejaVuSans-101"/>
     <use x="1232.03125" xlink:href="#DejaVuSans-110"/>
     <use x="1295.410156" xlink:href="#DejaVuSans-116"/>
     <use x="1334.619141" xlink:href="#DejaVuSans-115"/>
     <use x="1386.71875" xlink:href="#DejaVuSans-41"/>
    </g>
   </g>
  </g>
  <g id="axes_2">
   <g id="patch_22">
    <path d="M 630.981818 576.72 
L 1036.8 576.72 
L 1036.8 77.76 
L 630.981818 77.76 
z
" style="fill:#e5e5e5;"/>
   </g>
   <g id="matplotlib.axis_3">
    <g id="xtick_16">
     <g id="line2d_49">
      <path clip-path="url(#pac0fb2be7c)" d="M 659.399062 576.72 
L 659.399062 77.76 
" style="fill:none;stroke:#ffffff;stroke-linecap:square;stroke-width:0.8;"/>
     </g>
     <g id="line2d_50">
      <g>
       <use style="fill:#555555;stroke:#555555;stroke-width:0.8;" x="659.399062" xlink:href="#m0b1fd5f232" y="576.72"/>
      </g>
     </g>
     <g id="text_28">
      <!-- photo -->
      <g style="fill:#555555;" transform="translate(635.96667 608.081146)rotate(-40)scale(0.1 -0.1)">
       <use xlink:href="#DejaVuSans-112"/>
       <use x="63.476562" xlink:href="#DejaVuSans-104"/>
       <use x="126.855469" xlink:href="#DejaVuSans-111"/>
       <use x="188.037109" xlink:href="#DejaVuSans-116"/>
       <use x="227.246094" xlink:href="#DejaVuSans-111"/>
      </g>
     </g>
    </g>
    <g id="xtick_17">
     <g id="line2d_51">
      <path clip-path="url(#pac0fb2be7c)" d="M 684.326469 576.72 
L 684.326469 77.76 
" style="fill:none;stroke:#ffffff;stroke-linecap:square;stroke-width:0.8;"/>
     </g>
     <g id="line2d_52">
      <g>
       <use style="fill:#555555;stroke:#555555;stroke-width:0.8;" x="684.326469" xlink:href="#m0b1fd5f232" y="576.72"/>
      </g>
     </g>
     <g id="text_29">
      <!-- thanks -->
      <g style="fill:#555555;" transform="translate(657.156019 611.217749)rotate(-40)scale(0.1 -0.1)">
       <use xlink:href="#DejaVuSans-116"/>
       <use x="39.208984" xlink:href="#DejaVuSans-104"/>
       <use x="102.587891" xlink:href="#DejaVuSans-97"/>
       <use x="163.867188" xlink:href="#DejaVuSans-110"/>
       <use x="227.246094" xlink:href="#DejaVuSans-107"/>
       <use x="285.15625" xlink:href="#DejaVuSans-115"/>
      </g>
     </g>
    </g>
    <g id="xtick_18">
     <g id="line2d_53">
      <path clip-path="url(#pac0fb2be7c)" d="M 709.253875 576.72 
L 709.253875 77.76 
" style="fill:none;stroke:#ffffff;stroke-linecap:square;stroke-width:0.8;"/>
     </g>
     <g id="line2d_54">
      <g>
       <use style="fill:#555555;stroke:#555555;stroke-width:0.8;" x="709.253875" xlink:href="#m0b1fd5f232" y="576.72"/>
      </g>
     </g>
     <g id="text_30">
      <!-- submission -->
      <g style="fill:#555555;" transform="translate(664.967121 625.580034)rotate(-40)scale(0.1 -0.1)">
       <use xlink:href="#DejaVuSans-115"/>
       <use x="52.099609" xlink:href="#DejaVuSans-117"/>
       <use x="115.478516" xlink:href="#DejaVuSans-98"/>
       <use x="178.955078" xlink:href="#DejaVuSans-109"/>
       <use x="276.367188" xlink:href="#DejaVuSans-105"/>
       <use x="304.150391" xlink:href="#DejaVuSans-115"/>
       <use x="356.25" xlink:href="#DejaVuSans-115"/>
       <use x="408.349609" xlink:href="#DejaVuSans-105"/>
       <use x="436.132812" xlink:href="#DejaVuSans-111"/>
       <use x="497.314453" xlink:href="#DejaVuSans-110"/>
      </g>
     </g>
    </g>
    <g id="xtick_19">
     <g id="line2d_55">
      <path clip-path="url(#pac0fb2be7c)" d="M 734.181282 576.72 
L 734.181282 77.76 
" style="fill:none;stroke:#ffffff;stroke-linecap:square;stroke-width:0.8;"/>
     </g>
     <g id="line2d_56">
      <g>
       <use style="fill:#555555;stroke:#555555;stroke-width:0.8;" x="734.181282" xlink:href="#m0b1fd5f232" y="576.72"/>
      </g>
     </g>
     <g id="text_31">
      <!-- please -->
      <g style="fill:#555555;" transform="translate(707.740969 610.605092)rotate(-40)scale(0.1 -0.1)">
       <use xlink:href="#DejaVuSans-112"/>
       <use x="63.476562" xlink:href="#DejaVuSans-108"/>
       <use x="91.259766" xlink:href="#DejaVuSans-101"/>
       <use x="152.783203" xlink:href="#DejaVuSans-97"/>
       <use x="214.0625" xlink:href="#DejaVuSans-115"/>
       <use x="266.162109" xlink:href="#DejaVuSans-101"/>
      </g>
     </g>
    </g>
    <g id="xtick_20">
     <g id="line2d_57">
      <path clip-path="url(#pac0fb2be7c)" d="M 759.108689 576.72 
L 759.108689 77.76 
" style="fill:none;stroke:#ffffff;stroke-linecap:square;stroke-width:0.8;"/>
     </g>
     <g id="line2d_58">
      <g>
       <use style="fill:#555555;stroke:#555555;stroke-width:0.8;" x="759.108689" xlink:href="#m0b1fd5f232" y="576.72"/>
      </g>
     </g>
     <g id="text_32">
      <!-- resubmit -->
      <g style="fill:#555555;" transform="translate(723.6099 618.206055)rotate(-40)scale(0.1 -0.1)">
       <use xlink:href="#DejaVuSans-114"/>
       <use x="41.082031" xlink:href="#DejaVuSans-101"/>
       <use x="102.605469" xlink:href="#DejaVuSans-115"/>
       <use x="154.705078" xlink:href="#DejaVuSans-117"/>
       <use x="218.083984" xlink:href="#DejaVuSans-98"/>
       <use x="281.560547" xlink:href="#DejaVuSans-109"/>
       <use x="378.972656" xlink:href="#DejaVuSans-105"/>
       <use x="406.755859" xlink:href="#DejaVuSans-116"/>
      </g>
     </g>
    </g>
    <g id="xtick_21">
     <g id="line2d_59">
      <path clip-path="url(#pac0fb2be7c)" d="M 784.036096 576.72 
L 784.036096 77.76 
" style="fill:none;stroke:#ffffff;stroke-linecap:square;stroke-width:0.8;"/>
     </g>
     <g id="line2d_60">
      <g>
       <use style="fill:#555555;stroke:#555555;stroke-width:0.8;" x="784.036096" xlink:href="#m0b1fd5f232" y="576.72"/>
      </g>
     </g>
     <g id="text_33">
      <!-- hornet -->
      <g style="fill:#555555;" transform="translate(757.437786 610.737667)rotate(-40)scale(0.1 -0.1)">
       <use xlink:href="#DejaVuSans-104"/>
       <use x="63.378906" xlink:href="#DejaVuSans-111"/>
       <use x="124.560547" xlink:href="#DejaVuSans-114"/>
       <use x="165.658203" xlink:href="#DejaVuSans-110"/>
       <use x="229.037109" xlink:href="#DejaVuSans-101"/>
       <use x="290.560547" xlink:href="#DejaVuSans-116"/>
      </g>
     </g>
    </g>
    <g id="xtick_22">
     <g id="line2d_61">
      <path clip-path="url(#pac0fb2be7c)" d="M 808.963502 576.72 
L 808.963502 77.76 
" style="fill:none;stroke:#ffffff;stroke-linecap:square;stroke-width:0.8;"/>
     </g>
     <g id="line2d_62">
      <g>
       <use style="fill:#555555;stroke:#555555;stroke-width:0.8;" x="808.963502" xlink:href="#m0b1fd5f232" y="576.72"/>
      </g>
     </g>
     <g id="text_34">
      <!-- giant -->
      <g style="fill:#555555;" transform="translate(788.082996 605.93986)rotate(-40)scale(0.1 -0.1)">
       <use xlink:href="#DejaVuSans-103"/>
       <use x="63.476562" xlink:href="#DejaVuSans-105"/>
       <use x="91.259766" xlink:href="#DejaVuSans-97"/>
       <use x="152.539062" xlink:href="#DejaVuSans-110"/>
       <use x="215.917969" xlink:href="#DejaVuSans-116"/>
      </g>
     </g>
    </g>
    <g id="xtick_23">
     <g id="line2d_63">
      <path clip-path="url(#pac0fb2be7c)" d="M 833.890909 576.72 
L 833.890909 77.76 
" style="fill:none;stroke:#ffffff;stroke-linecap:square;stroke-width:0.8;"/>
     </g>
     <g id="line2d_64">
      <g>
       <use style="fill:#555555;stroke:#555555;stroke-width:0.8;" x="833.890909" xlink:href="#m0b1fd5f232" y="576.72"/>
      </g>
     </g>
     <g id="text_35">
      <!-- sighting -->
      <g style="fill:#555555;" transform="translate(801.868047 615.289406)rotate(-40)scale(0.1 -0.1)">
       <use xlink:href="#DejaVuSans-115"/>
       <use x="52.099609" xlink:href="#DejaVuSans-105"/>
       <use x="79.882812" xlink:href="#DejaVuSans-103"/>
       <use x="143.359375" xlink:href="#DejaVuSans-104"/>
       <use x="206.738281" xlink:href="#DejaVuSans-116"/>
       <use x="245.947266" xlink:href="#DejaVuSans-105"/>
       <use x="273.730469" xlink:href="#DejaVuSans-110"/>
       <use x="337.109375" xlink:href="#DejaVuSans-103"/>
      </g>
     </g>
    </g>
    <g id="xtick_24">
     <g id="line2d_65">
      <path clip-path="url(#pac0fb2be7c)" d="M 858.818316 576.72 
L 858.818316 77.76 
" style="fill:none;stroke:#ffffff;stroke-linecap:square;stroke-width:0.8;"/>
     </g>
     <g id="line2d_66">
      <g>
       <use style="fill:#555555;stroke:#555555;stroke-width:0.8;" x="858.818316" xlink:href="#m0b1fd5f232" y="576.72"/>
      </g>
     </g>
     <g id="text_36">
      <!-- asian -->
      <g style="fill:#555555;" transform="translate(837.1191 606.626839)rotate(-40)scale(0.1 -0.1)">
       <use xlink:href="#DejaVuSans-97"/>
       <use x="61.279297" xlink:href="#DejaVuSans-115"/>
       <use x="113.378906" xlink:href="#DejaVuSans-105"/>
       <use x="141.162109" xlink:href="#DejaVuSans-97"/>
       <use x="202.441406" xlink:href="#DejaVuSans-110"/>
      </g>
     </g>
    </g>
    <g id="xtick_25">
     <g id="line2d_67">
      <path clip-path="url(#pac0fb2be7c)" d="M 883.745723 576.72 
L 883.745723 77.76 
" style="fill:none;stroke:#ffffff;stroke-linecap:square;stroke-width:0.8;"/>
     </g>
     <g id="line2d_68">
      <g>
       <use style="fill:#555555;stroke:#555555;stroke-width:0.8;" x="883.745723" xlink:href="#m0b1fd5f232" y="576.72"/>
      </g>
     </g>
     <g id="text_37">
      <!-- get -->
      <g style="fill:#555555;" transform="translate(869.829039 600.096519)rotate(-40)scale(0.1 -0.1)">
       <use xlink:href="#DejaVuSans-103"/>
       <use x="63.476562" xlink:href="#DejaVuSans-101"/>
       <use x="125" xlink:href="#DejaVuSans-116"/>
      </g>
     </g>
    </g>
    <g id="xtick_26">
     <g id="line2d_69">
      <path clip-path="url(#pac0fb2be7c)" d="M 908.673129 576.72 
L 908.673129 77.76 
" style="fill:none;stroke:#ffffff;stroke-linecap:square;stroke-width:0.8;"/>
     </g>
     <g id="line2d_70">
      <g>
       <use style="fill:#555555;stroke:#555555;stroke-width:0.8;" x="908.673129" xlink:href="#m0b1fd5f232" y="576.72"/>
      </g>
     </g>
     <g id="text_38">
      <!-- county -->
      <g style="fill:#555555;" transform="translate(881.190278 611.479885)rotate(-40)scale(0.1 -0.1)">
       <use xlink:href="#DejaVuSans-99"/>
       <use x="54.980469" xlink:href="#DejaVuSans-111"/>
       <use x="116.162109" xlink:href="#DejaVuSans-117"/>
       <use x="179.541016" xlink:href="#DejaVuSans-110"/>
       <use x="242.919922" xlink:href="#DejaVuSans-116"/>
       <use x="282.128906" xlink:href="#DejaVuSans-121"/>
      </g>
     </g>
    </g>
    <g id="xtick_27">
     <g id="line2d_71">
      <path clip-path="url(#pac0fb2be7c)" d="M 933.600536 576.72 
L 933.600536 77.76 
" style="fill:none;stroke:#ffffff;stroke-linecap:square;stroke-width:0.8;"/>
     </g>
     <g id="line2d_72">
      <g>
       <use style="fill:#555555;stroke:#555555;stroke-width:0.8;" x="933.600536" xlink:href="#m0b1fd5f232" y="576.72"/>
      </g>
     </g>
     <g id="text_39">
      <!-- negative -->
      <g style="fill:#555555;" transform="translate(898.75887 617.654664)rotate(-40)scale(0.1 -0.1)">
       <use xlink:href="#DejaVuSans-110"/>
       <use x="63.378906" xlink:href="#DejaVuSans-101"/>
       <use x="124.902344" xlink:href="#DejaVuSans-103"/>
       <use x="188.378906" xlink:href="#DejaVuSans-97"/>
       <use x="249.658203" xlink:href="#DejaVuSans-116"/>
       <use x="288.867188" xlink:href="#DejaVuSans-105"/>
       <use x="316.650391" xlink:href="#DejaVuSans-118"/>
       <use x="375.830078" xlink:href="#DejaVuSans-101"/>
      </g>
     </g>
    </g>
    <g id="xtick_28">
     <g id="line2d_73">
      <path clip-path="url(#pac0fb2be7c)" d="M 958.527943 576.72 
L 958.527943 77.76 
" style="fill:none;stroke:#ffffff;stroke-linecap:square;stroke-width:0.8;"/>
     </g>
     <g id="line2d_74">
      <g>
       <use style="fill:#555555;stroke:#555555;stroke-width:0.8;" x="958.527943" xlink:href="#m0b1fd5f232" y="576.72"/>
      </g>
     </g>
     <g id="text_40">
      <!-- feel -->
      <g style="fill:#555555;" transform="translate(942.939128 601.499603)rotate(-40)scale(0.1 -0.1)">
       <use xlink:href="#DejaVuSans-102"/>
       <use x="35.205078" xlink:href="#DejaVuSans-101"/>
       <use x="96.728516" xlink:href="#DejaVuSans-101"/>
       <use x="158.251953" xlink:href="#DejaVuSans-108"/>
      </g>
     </g>
    </g>
    <g id="xtick_29">
     <g id="line2d_75">
      <path clip-path="url(#pac0fb2be7c)" d="M 983.45535 576.72 
L 983.45535 77.76 
" style="fill:none;stroke:#ffffff;stroke-linecap:square;stroke-width:0.8;"/>
     </g>
     <g id="line2d_76">
      <g>
       <use style="fill:#555555;stroke:#555555;stroke-width:0.8;" x="983.45535" xlink:href="#m0b1fd5f232" y="576.72"/>
      </g>
     </g>
     <g id="text_41">
      <!-- free -->
      <g style="fill:#555555;" transform="translate(966.847935 602.35431)rotate(-40)scale(0.1 -0.1)">
       <use xlink:href="#DejaVuSans-102"/>
       <use x="35.205078" xlink:href="#DejaVuSans-114"/>
       <use x="76.287109" xlink:href="#DejaVuSans-101"/>
       <use x="137.810547" xlink:href="#DejaVuSans-101"/>
      </g>
     </g>
    </g>
    <g id="xtick_30">
     <g id="line2d_77">
      <path clip-path="url(#pac0fb2be7c)" d="M 1008.382756 576.72 
L 1008.382756 77.76 
" style="fill:none;stroke:#ffffff;stroke-linecap:square;stroke-width:0.8;"/>
     </g>
     <g id="line2d_78">
      <g>
       <use style="fill:#555555;stroke:#555555;stroke-width:0.8;" x="1008.382756" xlink:href="#m0b1fd5f232" y="576.72"/>
      </g>
     </g>
     <g id="text_42">
      <!-- see -->
      <g style="fill:#555555;" transform="translate(993.628212 600.799568)rotate(-40)scale(0.1 -0.1)">
       <use xlink:href="#DejaVuSans-115"/>
       <use x="52.099609" xlink:href="#DejaVuSans-101"/>
       <use x="113.623047" xlink:href="#DejaVuSans-101"/>
      </g>
     </g>
    </g>
    <g id="text_43">
     <!-- Word -->
     <g style="fill:#555555;" transform="translate(818.017159 640.291292)scale(0.12 -0.12)">
      <use xlink:href="#DejaVuSans-87"/>
      <use x="98.798828" xlink:href="#DejaVuSans-111"/>
      <use x="159.980469" xlink:href="#DejaVuSans-114"/>
      <use x="201.078125" xlink:href="#DejaVuSans-100"/>
     </g>
    </g>
   </g>
   <g id="matplotlib.axis_4">
    <g id="ytick_10">
     <g id="line2d_79">
      <path clip-path="url(#pac0fb2be7c)" d="M 630.981818 576.72 
L 1036.8 576.72 
" style="fill:none;stroke:#ffffff;stroke-linecap:square;stroke-width:0.8;"/>
     </g>
     <g id="line2d_80">
      <g>
       <use style="fill:#555555;stroke:#555555;stroke-width:0.8;" x="630.981818" xlink:href="#me4cd3f9a6e" y="576.72"/>
      </g>
     </g>
     <g id="text_44">
      <!-- 0 -->
      <g style="fill:#555555;" transform="translate(617.619318 580.519219)scale(0.1 -0.1)">
       <use xlink:href="#DejaVuSans-48"/>
      </g>
     </g>
    </g>
    <g id="ytick_11">
     <g id="line2d_81">
      <path clip-path="url(#pac0fb2be7c)" d="M 630.981818 519.466988 
L 1036.8 519.466988 
" style="fill:none;stroke:#ffffff;stroke-linecap:square;stroke-width:0.8;"/>
     </g>
     <g id="line2d_82">
      <g>
       <use style="fill:#555555;stroke:#555555;stroke-width:0.8;" x="630.981818" xlink:href="#me4cd3f9a6e" y="519.466988"/>
      </g>
     </g>
     <g id="text_45">
      <!-- 10 -->
      <g style="fill:#555555;" transform="translate(611.256818 523.266207)scale(0.1 -0.1)">
       <use xlink:href="#DejaVuSans-49"/>
       <use x="63.623047" xlink:href="#DejaVuSans-48"/>
      </g>
     </g>
    </g>
    <g id="ytick_12">
     <g id="line2d_83">
      <path clip-path="url(#pac0fb2be7c)" d="M 630.981818 462.213976 
L 1036.8 462.213976 
" style="fill:none;stroke:#ffffff;stroke-linecap:square;stroke-width:0.8;"/>
     </g>
     <g id="line2d_84">
      <g>
       <use style="fill:#555555;stroke:#555555;stroke-width:0.8;" x="630.981818" xlink:href="#me4cd3f9a6e" y="462.213976"/>
      </g>
     </g>
     <g id="text_46">
      <!-- 20 -->
      <g style="fill:#555555;" transform="translate(611.256818 466.013195)scale(0.1 -0.1)">
       <use xlink:href="#DejaVuSans-50"/>
       <use x="63.623047" xlink:href="#DejaVuSans-48"/>
      </g>
     </g>
    </g>
    <g id="ytick_13">
     <g id="line2d_85">
      <path clip-path="url(#pac0fb2be7c)" d="M 630.981818 404.960964 
L 1036.8 404.960964 
" style="fill:none;stroke:#ffffff;stroke-linecap:square;stroke-width:0.8;"/>
     </g>
     <g id="line2d_86">
      <g>
       <use style="fill:#555555;stroke:#555555;stroke-width:0.8;" x="630.981818" xlink:href="#me4cd3f9a6e" y="404.960964"/>
      </g>
     </g>
     <g id="text_47">
      <!-- 30 -->
      <g style="fill:#555555;" transform="translate(611.256818 408.760183)scale(0.1 -0.1)">
       <use xlink:href="#DejaVuSans-51"/>
       <use x="63.623047" xlink:href="#DejaVuSans-48"/>
      </g>
     </g>
    </g>
    <g id="ytick_14">
     <g id="line2d_87">
      <path clip-path="url(#pac0fb2be7c)" d="M 630.981818 347.707952 
L 1036.8 347.707952 
" style="fill:none;stroke:#ffffff;stroke-linecap:square;stroke-width:0.8;"/>
     </g>
     <g id="line2d_88">
      <g>
       <use style="fill:#555555;stroke:#555555;stroke-width:0.8;" x="630.981818" xlink:href="#me4cd3f9a6e" y="347.707952"/>
      </g>
     </g>
     <g id="text_48">
      <!-- 40 -->
      <g style="fill:#555555;" transform="translate(611.256818 351.507171)scale(0.1 -0.1)">
       <use xlink:href="#DejaVuSans-52"/>
       <use x="63.623047" xlink:href="#DejaVuSans-48"/>
      </g>
     </g>
    </g>
    <g id="ytick_15">
     <g id="line2d_89">
      <path clip-path="url(#pac0fb2be7c)" d="M 630.981818 290.45494 
L 1036.8 290.45494 
" style="fill:none;stroke:#ffffff;stroke-linecap:square;stroke-width:0.8;"/>
     </g>
     <g id="line2d_90">
      <g>
       <use style="fill:#555555;stroke:#555555;stroke-width:0.8;" x="630.981818" xlink:href="#me4cd3f9a6e" y="290.45494"/>
      </g>
     </g>
     <g id="text_49">
      <!-- 50 -->
      <g style="fill:#555555;" transform="translate(611.256818 294.254159)scale(0.1 -0.1)">
       <use xlink:href="#DejaVuSans-53"/>
       <use x="63.623047" xlink:href="#DejaVuSans-48"/>
      </g>
     </g>
    </g>
    <g id="ytick_16">
     <g id="line2d_91">
      <path clip-path="url(#pac0fb2be7c)" d="M 630.981818 233.201928 
L 1036.8 233.201928 
" style="fill:none;stroke:#ffffff;stroke-linecap:square;stroke-width:0.8;"/>
     </g>
     <g id="line2d_92">
      <g>
       <use style="fill:#555555;stroke:#555555;stroke-width:0.8;" x="630.981818" xlink:href="#me4cd3f9a6e" y="233.201928"/>
      </g>
     </g>
     <g id="text_50">
      <!-- 60 -->
      <g style="fill:#555555;" transform="translate(611.256818 237.001146)scale(0.1 -0.1)">
       <use xlink:href="#DejaVuSans-54"/>
       <use x="63.623047" xlink:href="#DejaVuSans-48"/>
      </g>
     </g>
    </g>
    <g id="ytick_17">
     <g id="line2d_93">
      <path clip-path="url(#pac0fb2be7c)" d="M 630.981818 175.948916 
L 1036.8 175.948916 
" style="fill:none;stroke:#ffffff;stroke-linecap:square;stroke-width:0.8;"/>
     </g>
     <g id="line2d_94">
      <g>
       <use style="fill:#555555;stroke:#555555;stroke-width:0.8;" x="630.981818" xlink:href="#me4cd3f9a6e" y="175.948916"/>
      </g>
     </g>
     <g id="text_51">
      <!-- 70 -->
      <g style="fill:#555555;" transform="translate(611.256818 179.748134)scale(0.1 -0.1)">
       <use xlink:href="#DejaVuSans-55"/>
       <use x="63.623047" xlink:href="#DejaVuSans-48"/>
      </g>
     </g>
    </g>
    <g id="ytick_18">
     <g id="line2d_95">
      <path clip-path="url(#pac0fb2be7c)" d="M 630.981818 118.695904 
L 1036.8 118.695904 
" style="fill:none;stroke:#ffffff;stroke-linecap:square;stroke-width:0.8;"/>
     </g>
     <g id="line2d_96">
      <g>
       <use style="fill:#555555;stroke:#555555;stroke-width:0.8;" x="630.981818" xlink:href="#me4cd3f9a6e" y="118.695904"/>
      </g>
     </g>
     <g id="text_52">
      <!-- 80 -->
      <g style="fill:#555555;" transform="translate(611.256818 122.495122)scale(0.1 -0.1)">
       <use xlink:href="#DejaVuSans-56"/>
       <use x="63.623047" xlink:href="#DejaVuSans-48"/>
      </g>
     </g>
    </g>
    <g id="text_53">
     <!-- Count -->
     <g style="fill:#555555;" transform="translate(604.761193 345.058125)rotate(-90)scale(0.12 -0.12)">
      <use xlink:href="#DejaVuSans-67"/>
      <use x="69.824219" xlink:href="#DejaVuSans-111"/>
      <use x="131.005859" xlink:href="#DejaVuSans-117"/>
      <use x="194.384766" xlink:href="#DejaVuSans-110"/>
      <use x="257.763672" xlink:href="#DejaVuSans-116"/>
     </g>
    </g>
   </g>
   <g id="patch_23">
    <path clip-path="url(#pac0fb2be7c)" d="M 649.428099 576.72 
L 669.370025 576.72 
L 669.370025 101.52 
L 649.428099 101.52 
z
" style="fill:#9467bd;opacity:0.8;"/>
   </g>
   <g id="patch_24">
    <path clip-path="url(#pac0fb2be7c)" d="M 674.355506 576.72 
L 694.297431 576.72 
L 694.297431 107.245301 
L 674.355506 107.245301 
z
" style="fill:#9467bd;opacity:0.8;"/>
   </g>
   <g id="patch_25">
    <path clip-path="url(#pac0fb2be7c)" d="M 699.282913 576.72 
L 719.224838 576.72 
L 719.224838 118.695904 
L 699.282913 118.695904 
z
" style="fill:#9467bd;opacity:0.8;"/>
   </g>
   <g id="patch_26">
    <path clip-path="url(#pac0fb2be7c)" d="M 724.210319 576.72 
L 744.152245 576.72 
L 744.152245 216.026024 
L 724.210319 216.026024 
z
" style="fill:#9467bd;opacity:0.8;"/>
   </g>
   <g id="patch_27">
    <path clip-path="url(#pac0fb2be7c)" d="M 749.137726 576.72 
L 769.079652 576.72 
L 769.079652 256.103133 
L 749.137726 256.103133 
z
" style="fill:#9467bd;opacity:0.8;"/>
   </g>
   <g id="patch_28">
    <path clip-path="url(#pac0fb2be7c)" d="M 774.065133 576.72 
L 794.007058 576.72 
L 794.007058 267.553735 
L 774.065133 267.553735 
z
" style="fill:#9467bd;opacity:0.8;"/>
   </g>
   <g id="patch_29">
    <path clip-path="url(#pac0fb2be7c)" d="M 798.99254 576.72 
L 818.934465 576.72 
L 818.934465 273.279036 
L 798.99254 273.279036 
z
" style="fill:#9467bd;opacity:0.8;"/>
   </g>
   <g id="patch_30">
    <path clip-path="url(#pac0fb2be7c)" d="M 823.919946 576.72 
L 843.861872 576.72 
L 843.861872 279.004337 
L 823.919946 279.004337 
z
" style="fill:#9467bd;opacity:0.8;"/>
   </g>
   <g id="patch_31">
    <path clip-path="url(#pac0fb2be7c)" d="M 848.847353 576.72 
L 868.789279 576.72 
L 868.789279 279.004337 
L 848.847353 279.004337 
z
" style="fill:#9467bd;opacity:0.8;"/>
   </g>
   <g id="patch_32">
    <path clip-path="url(#pac0fb2be7c)" d="M 873.77476 576.72 
L 893.716685 576.72 
L 893.716685 313.356145 
L 873.77476 313.356145 
z
" style="fill:#9467bd;opacity:0.8;"/>
   </g>
   <g id="patch_33">
    <path clip-path="url(#pac0fb2be7c)" d="M 898.702167 576.72 
L 918.644092 576.72 
L 918.644092 336.257349 
L 898.702167 336.257349 
z
" style="fill:#9467bd;opacity:0.8;"/>
   </g>
   <g id="patch_34">
    <path clip-path="url(#pac0fb2be7c)" d="M 923.629573 576.72 
L 943.571499 576.72 
L 943.571499 336.257349 
L 923.629573 336.257349 
z
" style="fill:#9467bd;opacity:0.8;"/>
   </g>
   <g id="patch_35">
    <path clip-path="url(#pac0fb2be7c)" d="M 948.55698 576.72 
L 968.498906 576.72 
L 968.498906 347.707952 
L 948.55698 347.707952 
z
" style="fill:#9467bd;opacity:0.8;"/>
   </g>
   <g id="patch_36">
    <path clip-path="url(#pac0fb2be7c)" d="M 973.484387 576.72 
L 993.426312 576.72 
L 993.426312 347.707952 
L 973.484387 347.707952 
z
" style="fill:#9467bd;opacity:0.8;"/>
   </g>
   <g id="patch_37">
    <path clip-path="url(#pac0fb2be7c)" d="M 998.411794 576.72 
L 1018.353719 576.72 
L 1018.353719 387.78506 
L 998.411794 387.78506 
z
" style="fill:#9467bd;opacity:0.8;"/>
   </g>
   <g id="patch_38">
    <path d="M 630.981818 576.72 
L 630.981818 77.76 
" style="fill:none;stroke:#ffffff;stroke-linecap:square;stroke-linejoin:miter;"/>
   </g>
   <g id="patch_39">
    <path d="M 1036.8 576.72 
L 1036.8 77.76 
" style="fill:none;stroke:#ffffff;stroke-linecap:square;stroke-linejoin:miter;"/>
   </g>
   <g id="patch_40">
    <path d="M 630.981818 576.72 
L 1036.8 576.72 
" style="fill:none;stroke:#ffffff;stroke-linecap:square;stroke-linejoin:miter;"/>
   </g>
   <g id="patch_41">
    <path d="M 630.981818 77.76 
L 1036.8 77.76 
" style="fill:none;stroke:#ffffff;stroke-linecap:square;stroke-linejoin:miter;"/>
   </g>
   <g id="text_54">
    <!-- Unverified (Lab Comments) -->
    <defs>
     <path d="M 9.8125 72.90625 
L 19.671875 72.90625 
L 19.671875 8.296875 
L 55.171875 8.296875 
L 55.171875 0 
L 9.8125 0 
z
" id="DejaVuSans-76"/>
    </defs>
    <g transform="translate(734.654659 71.76)scale(0.144 -0.144)">
     <use xlink:href="#DejaVuSans-85"/>
     <use x="73.193359" xlink:href="#DejaVuSans-110"/>
     <use x="136.572266" xlink:href="#DejaVuSans-118"/>
     <use x="195.751953" xlink:href="#DejaVuSans-101"/>
     <use x="257.275391" xlink:href="#DejaVuSans-114"/>
     <use x="298.388672" xlink:href="#DejaVuSans-105"/>
     <use x="326.171875" xlink:href="#DejaVuSans-102"/>
     <use x="361.376953" xlink:href="#DejaVuSans-105"/>
     <use x="389.160156" xlink:href="#DejaVuSans-101"/>
     <use x="450.683594" xlink:href="#DejaVuSans-100"/>
     <use x="514.160156" xlink:href="#DejaVuSans-32"/>
     <use x="545.947266" xlink:href="#DejaVuSans-40"/>
     <use x="584.960938" xlink:href="#DejaVuSans-76"/>
     <use x="640.673828" xlink:href="#DejaVuSans-97"/>
     <use x="701.953125" xlink:href="#DejaVuSans-98"/>
     <use x="765.429688" xlink:href="#DejaVuSans-32"/>
     <use x="797.216797" xlink:href="#DejaVuSans-67"/>
     <use x="867.041016" xlink:href="#DejaVuSans-111"/>
     <use x="928.222656" xlink:href="#DejaVuSans-109"/>
     <use x="1025.634766" xlink:href="#DejaVuSans-109"/>
     <use x="1123.046875" xlink:href="#DejaVuSans-101"/>
     <use x="1184.570312" xlink:href="#DejaVuSans-110"/>
     <use x="1247.949219" xlink:href="#DejaVuSans-116"/>
     <use x="1287.158203" xlink:href="#DejaVuSans-115"/>
     <use x="1339.257812" xlink:href="#DejaVuSans-41"/>
    </g>
   </g>
   <g id="legend_1">
    <g id="patch_42">
     <path d="M 1025.8 90.76 
L 1029.8 90.76 
Q 1031.8 90.76 1031.8 88.76 
L 1031.8 84.76 
Q 1031.8 82.76 1029.8 82.76 
L 1025.8 82.76 
Q 1023.8 82.76 1023.8 84.76 
L 1023.8 88.76 
Q 1023.8 90.76 1025.8 90.76 
z
" style="fill:#e5e5e5;opacity:0.8;stroke:#cccccc;stroke-linejoin:miter;stroke-width:0.5;"/>
    </g>
   </g>
  </g>
  <g id="text_55">
   <!-- Frequency of Common Words -->
   <defs>
    <path d="M 9.8125 72.90625 
L 51.703125 72.90625 
L 51.703125 64.59375 
L 19.671875 64.59375 
L 19.671875 43.109375 
L 48.578125 43.109375 
L 48.578125 34.8125 
L 19.671875 34.8125 
L 19.671875 0 
L 9.8125 0 
z
" id="DejaVuSans-70"/>
    <path d="M 14.796875 27.296875 
Q 14.796875 17.390625 18.875 11.75 
Q 22.953125 6.109375 30.078125 6.109375 
Q 37.203125 6.109375 41.296875 11.75 
Q 45.40625 17.390625 45.40625 27.296875 
Q 45.40625 37.203125 41.296875 42.84375 
Q 37.203125 48.484375 30.078125 48.484375 
Q 22.953125 48.484375 18.875 42.84375 
Q 14.796875 37.203125 14.796875 27.296875 
z
M 45.40625 8.203125 
Q 42.578125 3.328125 38.25 0.953125 
Q 33.9375 -1.421875 27.875 -1.421875 
Q 17.96875 -1.421875 11.734375 6.484375 
Q 5.515625 14.40625 5.515625 27.296875 
Q 5.515625 40.1875 11.734375 48.09375 
Q 17.96875 56 27.875 56 
Q 33.9375 56 38.25 53.625 
Q 42.578125 51.265625 45.40625 46.390625 
L 45.40625 54.6875 
L 54.390625 54.6875 
L 54.390625 -20.796875 
L 45.40625 -20.796875 
z
" id="DejaVuSans-113"/>
   </defs>
   <g transform="translate(457.22125 25.1175)scale(0.16 -0.16)">
    <use xlink:href="#DejaVuSans-70"/>
    <use x="57.410156" xlink:href="#DejaVuSans-114"/>
    <use x="98.492188" xlink:href="#DejaVuSans-101"/>
    <use x="160.015625" xlink:href="#DejaVuSans-113"/>
    <use x="223.492188" xlink:href="#DejaVuSans-117"/>
    <use x="286.871094" xlink:href="#DejaVuSans-101"/>
    <use x="348.394531" xlink:href="#DejaVuSans-110"/>
    <use x="411.773438" xlink:href="#DejaVuSans-99"/>
    <use x="466.753906" xlink:href="#DejaVuSans-121"/>
    <use x="525.933594" xlink:href="#DejaVuSans-32"/>
    <use x="557.720703" xlink:href="#DejaVuSans-111"/>
    <use x="618.902344" xlink:href="#DejaVuSans-102"/>
    <use x="654.107422" xlink:href="#DejaVuSans-32"/>
    <use x="685.894531" xlink:href="#DejaVuSans-67"/>
    <use x="755.71875" xlink:href="#DejaVuSans-111"/>
    <use x="816.900391" xlink:href="#DejaVuSans-109"/>
    <use x="914.3125" xlink:href="#DejaVuSans-109"/>
    <use x="1011.724609" xlink:href="#DejaVuSans-111"/>
    <use x="1072.90625" xlink:href="#DejaVuSans-110"/>
    <use x="1136.285156" xlink:href="#DejaVuSans-32"/>
    <use x="1168.072266" xlink:href="#DejaVuSans-87"/>
    <use x="1266.871094" xlink:href="#DejaVuSans-111"/>
    <use x="1328.052734" xlink:href="#DejaVuSans-114"/>
    <use x="1369.150391" xlink:href="#DejaVuSans-100"/>
    <use x="1432.626953" xlink:href="#DejaVuSans-115"/>
   </g>
  </g>
 </g>
 <defs>
  <clipPath id="p5bfdee8d21">
   <rect height="498.96" width="405.818182" x="144" y="77.76"/>
  </clipPath>
  <clipPath id="pac0fb2be7c">
   <rect height="498.96" width="405.818182" x="630.981818" y="77.76"/>
  </clipPath>
 </defs>
</svg>
